<svg width="267" height="278" fill="none" xmlns="http://www.w3.org/2000/svg"><path d="M261.07 210.61l-99.94 58.09a8.42 8.42 0 01-7.66.02L1.61 181.02c-2.12-1.21-2.12-3.2 0-4.43l99.95-58.08a8.43 8.43 0 017.63 0l151.86 87.67c2.12 1.24 2.14 3.22.02 4.43z" fill="#B7C5FD"/><path d="M140.82 214.48c1.2.7 1.2 1.83 0 2.53l-24.85 14.44c-1.2.7-3.15.7-4.36 0L62.65 203.2c-1.2-.7-1.2-1.83 0-2.53l24.85-14.44c1.2-.7 3.15-.7 4.35 0l48.97 28.26z" fill="#9AADFD"/><path d="M262.64 208.42l-.01 8c0 .79-.53 1.59-1.57 2.2L161.1 276.7a8.48 8.48 0 01-7.65 0L1.59 189.03C.53 188.42 0 187.62 0 186.79l.02-7.98c0 .8.53 1.6 1.59 2.22l151.87 87.69a8.41 8.41 0 007.65-.02l99.94-58.09c1.06-.6 1.57-1.39 1.57-2.2zM259.16 89.27a8.42 8.42 0 013.82 6.61l-.27 106.85c0 2.42-1.73 3.41-3.84 2.19L109.19 118.5a8.44 8.44 0 01-3.82-6.62l.27-106.84c0-2.44 1.73-3.42 3.84-2.2l149.68 86.42z" fill="#9AADFD"/><path d="M184.17 50.56a7.23 7.23 0 013.29 5.7c0 2.08-1.47 2.94-3.3 1.88a7.22 7.22 0 01-3.27-5.68c0-2.09 1.47-2.94 3.28-1.9z" fill="#4466FB"/><path d="M267 93.55l-.27 106.85c0 1.2-.44 2.05-1.12 2.45l-4.02 2.33c.69-.4 1.12-1.25 1.12-2.45L263 95.89c0-2.44-1.71-5.4-3.83-6.63L109.48 2.86c-1.06-.61-2.02-.67-2.73-.28l4.02-2.33c.68-.4 1.67-.34 2.72.27l149.69 86.42a8.42 8.42 0 013.82 6.61z" fill="#B7C5FD"/><path d="M257.58 104.99l-.26 92.8-146.55-84.6.26-92.8 146.55 84.6z" fill="#fff"/><path d="M239.06 139.56l-.02 5.52L169 104.64l.02-5.52 70.04 40.44zM239 163.87l-.02 5.53-70.05-40.44.02-5.53 70.04 40.44zM239.03 151.75l-.02 5.45-70.04-40.44.01-5.45 70.05 40.44z" fill="#6BB5FB"/><path d="M239.17 104.92l-.07 23.17-115.26-66.54.07-23.17 115.26 66.54z" fill="#4466FB"/><path d="M161 94.48l-.09 29.85-37.2-21.48.09-29.84L161 94.48z" fill="#798FFE"/><path d="M206.98 142.3l15.95 10.85-3.92 2.24 5.68 9.84-6.73 3.8-5.69-9.84-3.92 2.23-1.37-19.11zM162.43 180.76l-8.56 4.98-9.78-5.65 8.56-4.98 9.78 5.65zM151.62 187.04l-8.56 4.97-9.78-5.64 8.57-4.98 9.77 5.65zM118.4 130.3l-8.6 5-9.77-5.64 8.6-5 9.77 5.65zM131.53 137.89l-8.6 4.99-9.77-5.64 8.6-5 9.77 5.65zM112.47 139.4l-8.6 5-14.64-8.47 8.59-4.99 14.65 8.46zM144.65 145.47l-8.6 4.99-9.77-5.65 8.6-4.99 9.77 5.65zM125.6 146.98l-8.6 5-9.77-5.65 8.59-5 9.78 5.65zM85.99 149.14l-8.57 4.98-9.77-5.65 8.56-4.97 9.78 5.64zM109.92 150.44l-8.56 4.98-22.9-13.22 8.56-4.98 22.9 13.22zM157.78 153.04l-8.6 5-9.77-5.65 8.6-4.99 9.77 5.64zM138.72 154.56l-8.59 4.99-9.77-5.64 8.59-5 9.77 5.65zM99.12 156.72l-8.57 4.98-9.77-5.65 8.56-4.97 9.78 5.64zM123.05 158.02l-8.57 4.98-9.77-5.65 8.56-4.97 9.78 5.64zM170.9 160.62l-8.59 5-9.77-5.65 8.6-4.99 9.77 5.64zM151.85 162.14l-8.6 4.99-9.77-5.64 8.6-5 9.77 5.65zM88.31 163l-8.56 4.97-22.9-13.22 8.56-4.97L88.31 163zM112.24 164.3l-8.56 4.98-9.78-5.65 8.57-4.97 9.77 5.64zM136.17 165.6l-8.56 4.98-9.78-5.65 8.57-4.97 9.77 5.64zM184.03 168.2l-8.59 5-9.77-5.65 8.59-5 9.77 5.65zM164.97 169.72l-8.59 4.99-9.74-5.63 8.59-5 9.75 5.63zM125.37 171.88l-8.56 4.97-9.78-5.64 8.56-4.98 9.78 5.65zM149.3 173.18l-8.56 4.98-9.78-5.65 8.56-4.97 9.78 5.64zM138.5 179.46l-8.57 4.97-9.77-5.64 8.56-4.98 9.78 5.65zM141.39 193.64l-8.57 4.98L83.1 169.9l8.57-4.98 49.72 28.7zM180.2 216.05l-8.56 4.98-9.77-5.65 8.56-4.97 9.77 5.64zM167.08 208.47l-8.57 4.98-9.77-5.64 8.56-4.98 9.78 5.64zM153.95 200.9l-8.56 4.97-9.78-5.64 8.56-4.98 9.78 5.64zM164.75 194.62l-8.56 4.97-9.78-5.64 8.57-4.98 9.77 5.65zM175.56 188.34l-8.57 4.97-9.77-5.64 8.56-4.98 9.78 5.65zM191.26 184.89l-8.6 5-9.77-5.65 8.6-5 9.77 5.65zM197.16 175.78l-8.6 5-9.77-5.65 8.6-5 9.77 5.65zM236.54 198.52l-8.59 5-9.75-5.64 8.6-4.99 9.74 5.63zM238.9 212.4l-8.6 4.98-18.03-10.4 8.6-5 18.02 10.41zM191 209.77l-8.56 4.98-9.77-5.64 8.56-4.98 9.78 5.64zM228.1 218.67l-8.57 4.98-22.9-13.23 8.56-4.97 22.9 13.22zM201.81 203.5l-8.56 4.97-9.78-5.64 8.56-4.98 9.78 5.65zM217.51 200.05l-8.59 4.99-9.77-5.64 8.59-5 9.77 5.65zM223.41 190.94l-8.59 5-9.77-5.65 8.59-5 9.77 5.65zM188.68 195.92l-8.56 4.97-9.78-5.64 8.57-4.98 9.77 5.65zM204.38 192.47l-8.59 5-9.77-5.65 8.59-5 9.77 5.65zM210.29 183.36l-8.6 5-9.77-5.65 8.6-5 9.77 5.65zM249.7 206.11l-8.6 5-9.77-5.65 8.6-4.99 9.77 5.64zM178.13 177.31l-8.59 5-9.77-5.65 8.59-5 9.77 5.65zM193.33 223.63l-8.56 4.98-9.75-5.63 8.56-4.98 9.75 5.63zM217.29 224.95l-19.37 11.25-9.77-5.64 19.36-11.26 9.78 5.65z" fill="#384E85"/></svg>