<svg width="203" height="194" fill="none" xmlns="http://www.w3.org/2000/svg"><path d="M198.83 154.21l-58.11 33.77c-1.38.8-3.59.8-4.96.01L37.3 131.14c-1.38-.79-1.38-2.07 0-2.87L95.4 94.5a5.47 5.47 0 014.95 0l98.46 56.84c1.38.8 1.39 2.08.02 2.87z" fill="#384E85"/><path d="M113.1 146.49c.79.45.79 1.19 0 1.64l-16.14 9.38c-.78.45-2.05.46-2.83 0L62.3 139.15c-.78-.45-.78-1.18 0-1.64l16.15-9.38a3.13 3.13 0 012.83 0l31.82 18.37z" fill="#2E4277"/><path d="M199.84 152.79l-.01 5.18c0 .51-.34 1.03-1.02 1.43l-58.1 33.77a5.5 5.5 0 01-4.97 0L37.3 136.33c-.7-.4-1.03-.92-1.03-1.45v-5.18c0 .53.35 1.05 1.04 1.44L135.76 188c1.37.8 3.58.8 4.96-.01l58.1-33.77c.7-.4 1.02-.9 1.02-1.42z" fill="#1B2A4F"/><path d="M111.46 109.84l-1.85 1.08-4.46-2.58 1.85-1.07 4.46 2.57zM87.15 117.03l-4.08 2.38-10.45-6.04L76.7 111l10.45 6.03zM86.3 110.58l-4.08 2.38-4.46-2.57 4.08-2.38 4.46 2.57zM92.3 114.05l-4.09 2.37-4.46-2.58 4.09-2.37 4.45 2.58zM97.44 111.06l-4.09 2.37-10.45-6.03 4.09-2.38 10.45 6.04zM103.42 114.51l-4.08 2.38-4.46-2.58 4.08-2.37 4.46 2.57zM110.78 112.82l-4.07 2.37-4.46-2.58 4.08-2.37 4.45 2.58zM104.8 109.36l-4.08 2.37-4.46-2.57 4.08-2.37 4.46 2.57zM105.47 106.39l-1.84 1.07-4.46-2.57 1.84-1.08 4.46 2.58zM98.8 105.9l-4.07 2.37-6.69-3.86 4.08-2.37 6.68 3.86zM99.48 102.93L97.63 104l-4.45-2.57 1.84-1.08 4.46 2.58zM135.4 123.67l-1.84 1.07-4.46-2.57 1.85-1.07 4.46 2.57zM134.73 126.64l-4.07 2.37-4.46-2.57 4.08-2.37 4.45 2.58zM128.75 123.19l-4.08 2.37-4.45-2.58 4.07-2.36 4.46 2.57zM110.26 124.41l-4.09 2.38-4.45-2.58 4.08-2.37 4.46 2.57zM116.25 127.87l-4.09 2.38-4.45-2.58 4.08-2.37 4.46 2.57zM117.45 113.3l-1.85 1.07-4.45-2.57 1.84-1.07 4.46 2.57zM123.43 116.76l-1.84 1.07-4.46-2.57 1.84-1.08 4.46 2.58zM116.77 116.28l-4.07 2.36-4.46-2.57 4.08-2.37 4.45 2.58zM109.41 117.97l-4.08 2.38-4.46-2.58 4.08-2.37 4.46 2.57zM122.76 119.73l-4.08 2.37-4.45-2.57 4.07-2.37 4.46 2.57zM104.27 120.96l-4.08 2.37-4.46-2.57 4.08-2.37 4.46 2.57zM115.4 121.43l-4.09 2.37-4.45-2.57 4.08-2.38 4.46 2.58zM117.1 134.32l-4.08 2.37-28.41-16.4 4.07-2.38 28.41 16.4zM129.42 120.22l-1.84 1.07-4.46-2.57 1.85-1.08 4.45 2.58zM141.4 127.13l-1.84 1.07-4.47-2.57 1.85-1.08 4.46 2.58zM153.37 134.04l-1.85 1.07-4.45-2.57 1.84-1.07 4.46 2.57zM121.39 124.89l-4.09 2.37-4.45-2.57 4.08-2.38 4.46 2.58zM127.37 128.34l-4.08 2.37-4.46-2.57 4.08-2.37 4.46 2.57zM133.36 131.8l-4.08 2.37-4.47-2.57 4.09-2.38 4.46 2.58zM140.72 130.1l-4.08 2.37-4.45-2.57 4.08-2.37 4.45 2.57zM139.35 135.26l-4.09 2.37-4.45-2.57 4.08-2.38 4.46 2.58zM135.05 144.69l-4.08 2.37-4.46-2.57 4.08-2.38 4.46 2.58zM140.2 141.7l-4.1 2.37-4.45-2.57 4.08-2.38 4.46 2.58zM151.32 142.17l-4.08 2.37-10.45-6.03 4.08-2.37 10.45 6.03zM159.36 137.5l-1.85 1.07-4.45-2.57 1.84-1.07 4.46 2.57zM156.46 139.19l-4.08 2.37-8.22-4.75 4.08-2.37 8.22 4.75zM146.71 133.56l-4.08 2.37-4.45-2.58 4.07-2.36 4.46 2.57zM147.38 130.59l-1.84 1.07-4.46-2.57 1.85-1.08 4.45 2.58zM168.45 152.06l-4.08 2.37-4.46-2.57 4.09-2.38 4.45 2.58zM180.43 158.97l-4.09 2.38-4.45-2.58 4.08-2.37 4.46 2.57zM152.18 154.57l-4.09 2.38-4.45-2.58 4.08-2.37 4.46 2.57zM170.5 143.93l-1.85 1.07-4.46-2.57 1.85-1.08 4.46 2.58zM167.6 145.62l-4.08 2.37-4.46-2.58 4.08-2.37 4.45 2.58zM176.49 147.39l-1.85 1.07-4.45-2.57 1.84-1.07 4.46 2.57zM162.46 148.6l-4.08 2.37-4.46-2.57 4.08-2.37 4.46 2.57zM173.59 149.07l-4.08 2.37-4.46-2.57 4.08-2.37 4.46 2.57zM157.32 151.59l-4.08 2.37-4.46-2.57 4.08-2.38 4.46 2.58zM179.57 152.53l-4.08 2.37-4.45-2.57 4.07-2.37 4.46 2.57zM163.31 155.05l-4.08 2.37-4.46-2.57 4.08-2.38 4.46 2.58zM174.44 155.51l-4.09 2.38-4.45-2.58 4.08-2.37 4.46 2.57zM169.3 158.5l-4.09 2.37-4.46-2.57 4.09-2.37 4.46 2.57zM98.28 117.5l-4.08 2.37-4.46-2.57 4.08-2.37 4.46 2.57zM123.08 137.78l-4.08 2.37-4.47-2.58 4.09-2.37 4.46 2.58zM128.22 134.79l-4.08 2.37-4.47-2.58 4.09-2.37 4.46 2.58zM129.07 141.23l-4.09 2.37-4.45-2.57 4.08-2.37 4.46 2.57zM134.2 138.24l-4.08 2.38-4.45-2.58 4.08-2.37 4.46 2.57zM122.23 131.33l-4.08 2.37-4.46-2.57 4.08-2.38 4.46 2.58zM141.04 148.15l-4.08 2.37-4.46-2.58 4.09-2.37 4.45 2.58zM185.56 155.99l-4.08 2.37-4.45-2.58 4.07-2.36 4.46 2.57zM188.46 154.3l-1.84 1.08-4.46-2.58 1.85-1.07 4.45 2.57zM182.47 150.84l-1.84 1.08-4.46-2.58 1.84-1.07 4.46 2.57zM158.17 158.03l-4.08 2.38-4.46-2.58 4.08-2.37 4.46 2.57zM175.29 161.96l-9.23 5.36-4.46-2.57 9.23-5.36 4.46 2.57zM164.15 161.49l-4.08 2.37-4.46-2.57 4.09-2.38 4.45 2.58z" fill="#798FFE"/><path d="M197.59 75.54a5.46 5.46 0 012.47 4.29l-.17 69.27c0 1.56-1.12 2.21-2.5 1.42L100.36 94.5a5.47 5.47 0 01-2.48-4.3l.17-69.26c0-1.58 1.12-2.21 2.5-1.42l97.04 56.02z" fill="#1B2A4F"/><path d="M202.67 78.32l-.18 69.27c0 .77-.28 1.33-.73 1.59l-2.6 1.5c.45-.25.73-.8.73-1.58l.18-69.27a5.5 5.5 0 00-2.48-4.3l-97.04-56.01c-.7-.4-1.31-.43-1.77-.18l2.6-1.51c.45-.26 1.08-.22 1.77.18l97.04 56.02a5.46 5.46 0 012.48 4.29z" fill="#384E85"/><path d="M196.56 78.98l-.17 66.92-95-54.85.16-66.92 95.01 54.85z" fill="#D9DDF6"/><path d="M185.45 59l-.16 52.78c0 .87-.3 1.48-.8 1.76l3.4-1.98c.5-.28.8-.89.8-1.76l.16-52.77-3.4 1.98z" fill="#4466FB"/><path d="M185.45 59l-.16 52.78c0 1.74-1.23 2.44-2.74 1.57L111.79 72.5a6.02 6.02 0 01-2.74-4.74l.16-52.77 76.24 44.02z" fill="#6BB5FB"/><path d="M112.18 20.15l-.14 49.04 70.27 40.58.15-49.04-70.28-40.58z" fill="#fff"/><path d="M188.88 48.62l-.02 8.42-3.4 1.96.02-8.4a6 6 0 00-2.74-4.72L111.98 5.02c-.76-.43-1.45-.48-1.95-.2l3.4-1.98c.51-.28 1.2-.24 1.95.2l70.77 40.85c1.5.89 2.73 3 2.73 4.73z" fill="#384E85"/><path d="M182.75 45.87a6.02 6.02 0 012.72 4.73l-.02 8.4-76.24-44 .02-8.42c0-1.74 1.24-2.44 2.75-1.56l70.77 40.85z" fill="#2E4277"/><path d="M180.27 47.2c-1.03-.6-1.88-.12-1.88 1.08 0 1.19.83 2.64 1.87 3.24 1.04.6 1.88.12 1.89-1.07 0-1.2-.84-2.65-1.88-3.25zM168.2 40.23c-1.03-.6-1.88-.11-1.88 1.08 0 1.2.84 2.64 1.88 3.24 1.03.6 1.88.12 1.88-1.07 0-1.2-.84-2.65-1.87-3.25zM174.24 43.72c-1.04-.6-1.89-.12-1.89 1.07 0 1.2.84 2.65 1.88 3.25 1.04.6 1.88.12 1.88-1.08 0-1.2-.83-2.64-1.87-3.24z" fill="#B7C5FD"/><path d="M124.98 46.46l2.87 4.97c-3.4 1.07-5.93 3.9-7.05 8.2l-.58-.34c.15-5.75 1.91-10.1 4.76-12.83z" fill="#D9DDF6"/><path d="M143.65 46.22l-.03 10.04a29.83 29.83 0 00-3.8-2.62c-4.5-2.6-8.66-3.24-11.97-2.2l-2.87-4.98c4.27-4.1 11.02-4.5 18.67-.24z" fill="#B7C5FD"/><path d="M162.4 67.07c3.23 6.41 5.2 13.3 5.33 19.65l-8.97-5.18c-.68-3.46-1.9-7-3.54-10.36l7.18-4.1z" fill="#9AADFD"/><path d="M144.06 46.44c7.42 4.27 14 12 18.34 20.63l-7.18 4.1c-2.83-5.8-6.91-11.14-11.6-14.9l.02-10.05c.14.07.28.13.43.22z" fill="#AABAFD"/><path d="M158.96 61.74L142 73.05c.47 1.63.22 3.09-.75 3.63-.64.37-1.47.25-2.31-.23a6.7 6.7 0 01-2.33-2.46c-1.28-2.21-1.27-4.61.01-5.34.64-.37 1.49-.25 2.32.23.41.24.81.56 1.2.95l18.82-8.1z" fill="#535D88"/><path d="M80.2 25.02l-.03 70.26c0 1.01-.67 2.03-2 2.8l-29.99 17.43c-2.69 1.56-7.06 1.56-9.76 0l-36.38-21C.68 93.7 0 92.68 0 91.65L.03 21.4c0 1.03.67 2.06 2.03 2.84l36.38 21c2.7 1.57 7.08 1.57 9.77 0l29.98-17.42c1.33-.78 2-1.8 2-2.8z" fill="#4466FB"/><path d="M78.16 22.17c2.7 1.57 2.71 4.1.03 5.66L48.2 45.25c-2.7 1.57-7.06 1.57-9.77 0l-36.38-21c-2.7-1.56-2.72-4.1-.03-5.65L32.01 1.17c2.7-1.56 7.06-1.56 9.77 0l36.38 21z" fill="#6BB5FB"/><path d="M66.43 23.75c1.2.7 1.2 1.81.01 2.5l-21 12.2c-1.18.7-3.12.7-4.31 0L13.79 22.68c-1.2-.69-1.2-1.8-.01-2.5l21-12.2c1.18-.7 3.12-.7 4.31 0l27.34 15.78z" fill="#4466FB"/><path d="M35.78 48.95l-31.2-18a.97.97 0 00-1.45.83v6.38c0 .7.37 1.33.97 1.68l31.2 18a.97.97 0 001.44-.84v-6.37c0-.7-.37-1.33-.96-1.68z" fill="#3955D1"/><path d="M48.5 50.55a3.29 3.29 0 00-1.5 2.59l.03 7.71c0 .95.67 1.33 1.5.86a3.29 3.29 0 001.5-2.59l-.04-7.7c0-.96-.67-1.34-1.5-.87z" fill="#1B2A4F"/><path d="M49.32 58.75l-.03-7.7c0-.3-.06-.52-.17-.7.51-.02.87.37.87 1.06l.03 7.71c0 .95-.66 2.11-1.49 2.59-.58.33-1.08.24-1.33-.17.19 0 .4-.07.63-.2a3.29 3.29 0 001.49-2.59z" fill="#6BB5FB"/><path d="M74.39 35.5a3.29 3.29 0 00-1.5 2.59l.03 7.71c0 .95.68 1.34 1.5.86a3.29 3.29 0 001.5-2.58l-.03-7.72c0-.95-.68-1.33-1.5-.85z" fill="#1B2A4F"/><path d="M75.21 43.7l-.03-7.7c0-.29-.06-.52-.16-.7.5-.02.86.37.87 1.06l.03 7.72c0 .94-.67 2.1-1.5 2.58-.58.33-1.08.24-1.33-.17.2 0 .4-.07.63-.2a3.29 3.29 0 001.5-2.58z" fill="#6BB5FB"/><path d="M67.91 39.27a3.29 3.29 0 00-1.49 2.58l.03 7.71c0 .95.68 1.34 1.5.86a3.29 3.29 0 001.5-2.58l-.04-7.72c0-.95-.67-1.33-1.5-.85z" fill="#1B2A4F"/><path d="M68.74 47.47l-.03-7.72c0-.28-.06-.51-.17-.68.51-.03.87.36.87 1.05l.03 7.72c0 .95-.66 2.1-1.49 2.58-.58.34-1.08.25-1.33-.17.19 0 .4-.07.63-.2a3.29 3.29 0 001.49-2.58z" fill="#6BB5FB"/><path d="M61.44 43.03a3.29 3.29 0 00-1.5 2.58l.04 7.72c0 .95.67 1.33 1.5.85a3.29 3.29 0 001.5-2.58l-.04-7.71c0-.95-.67-1.34-1.5-.86z" fill="#1B2A4F"/><path d="M62.27 51.23l-.03-7.71c0-.29-.06-.52-.17-.7.51-.01.87.38.87 1.07l.03 7.71c0 .95-.66 2.1-1.5 2.58-.57.34-1.07.25-1.32-.16.19-.01.4-.08.63-.2a3.29 3.29 0 001.49-2.59z" fill="#6BB5FB"/><path d="M54.97 46.8a3.29 3.29 0 00-1.5 2.58l.03 7.7c0 .96.68 1.34 1.5.86a3.29 3.29 0 001.5-2.58l-.03-7.71c0-.95-.68-1.33-1.5-.86z" fill="#1B2A4F"/><path d="M55.8 55l-.04-7.72c0-.28-.06-.52-.16-.7.5-.01.87.38.87 1.07l.03 7.71c0 .95-.67 2.1-1.5 2.58-.57.34-1.08.25-1.33-.16.2 0 .4-.08.63-.2a3.29 3.29 0 001.5-2.59z" fill="#6BB5FB"/><path d="M35.78 65.62l-31.2-18a.97.97 0 00-1.45.83v6.38c0 .7.37 1.33.97 1.68l31.2 18a.97.97 0 001.44-.83V67.3c0-.7-.37-1.33-.96-1.68z" fill="#3955D1"/><path d="M48.5 67.23A3.29 3.29 0 0047 69.8l.03 7.71c0 .95.67 1.33 1.5.86a3.29 3.29 0 001.5-2.59l-.04-7.7c0-.96-.67-1.34-1.5-.86z" fill="#1B2A4F"/><path d="M49.32 75.42l-.03-7.7c0-.3-.06-.52-.17-.7.51-.02.87.37.87 1.06l.03 7.71c0 .95-.66 2.11-1.49 2.59-.58.33-1.08.24-1.33-.17.19 0 .4-.07.63-.2a3.29 3.29 0 001.49-2.59z" fill="#6BB5FB"/><path d="M74.39 52.18a3.29 3.29 0 00-1.5 2.58l.03 7.71c0 .95.68 1.34 1.5.86a3.29 3.29 0 001.5-2.58l-.03-7.72c0-.95-.68-1.33-1.5-.85z" fill="#1B2A4F"/><path d="M75.21 60.38l-.03-7.72c0-.28-.06-.51-.16-.69.5-.02.86.37.87 1.06l.03 7.72c0 .95-.67 2.1-1.5 2.58-.58.33-1.08.24-1.33-.17.2 0 .4-.07.63-.2a3.29 3.29 0 001.5-2.58z" fill="#6BB5FB"/><path d="M67.91 55.94a3.29 3.29 0 00-1.49 2.58l.03 7.72c0 .94.68 1.33 1.5.85a3.29 3.29 0 001.5-2.58l-.04-7.72c0-.94-.67-1.33-1.5-.85z" fill="#1B2A4F"/><path d="M68.74 64.14l-.03-7.71c0-.29-.06-.52-.17-.7.51-.02.87.37.87 1.06l.03 7.72c0 .95-.66 2.1-1.49 2.58-.58.34-1.08.25-1.33-.17.19 0 .4-.07.63-.2a3.29 3.29 0 001.49-2.58z" fill="#6BB5FB"/><path d="M61.44 59.7a3.29 3.29 0 00-1.5 2.59l.04 7.7c0 .96.67 1.34 1.5.86a3.29 3.29 0 001.5-2.58l-.04-7.71c0-.95-.67-1.34-1.5-.86z" fill="#1B2A4F"/><path d="M62.27 67.9l-.03-7.71c0-.29-.06-.52-.17-.7.51-.01.87.38.87 1.07l.03 7.71c0 .95-.66 2.1-1.5 2.58-.57.34-1.07.25-1.32-.16.19-.01.4-.08.63-.2a3.29 3.29 0 001.49-2.59z" fill="#6BB5FB"/><path d="M54.97 63.46a3.29 3.29 0 00-1.5 2.59l.03 7.71c0 .95.68 1.33 1.5.86a3.29 3.29 0 001.5-2.59l-.03-7.71c0-.95-.68-1.33-1.5-.86z" fill="#1B2A4F"/><path d="M55.8 71.66l-.04-7.71c0-.28-.06-.52-.16-.69.5-.02.87.37.87 1.06l.03 7.71c0 .95-.67 2.1-1.5 2.59-.57.33-1.08.24-1.33-.17.2 0 .4-.07.63-.2a3.29 3.29 0 001.5-2.59z" fill="#6BB5FB"/><path d="M35.78 82.3L4.58 64.28a.97.97 0 00-1.45.84v6.37c0 .7.37 1.33.97 1.68l31.2 18a.97.97 0 001.44-.83v-6.38c0-.69-.37-1.33-.96-1.68z" fill="#3955D1"/><path d="M48.5 83.9a3.29 3.29 0 00-1.5 2.58l.03 7.71c0 .95.67 1.34 1.5.86a3.29 3.29 0 001.5-2.58l-.04-7.72c0-.95-.67-1.33-1.5-.85z" fill="#1B2A4F"/><path d="M49.32 92.1l-.03-7.72c0-.28-.06-.51-.17-.69.51-.02.87.37.87 1.06l.03 7.72c0 .94-.66 2.1-1.49 2.58-.58.33-1.08.24-1.33-.17.19 0 .4-.07.63-.2a3.29 3.29 0 001.49-2.58z" fill="#6BB5FB"/><path d="M74.39 68.85a3.29 3.29 0 00-1.5 2.58l.03 7.71c0 .95.68 1.34 1.5.86a3.29 3.29 0 001.5-2.58l-.03-7.72c0-.95-.68-1.33-1.5-.85z" fill="#1B2A4F"/><path d="M75.21 77.05l-.03-7.72c0-.28-.06-.51-.16-.69.5-.02.86.37.87 1.06l.03 7.72c0 .95-.67 2.1-1.5 2.58-.58.33-1.08.25-1.33-.17.2 0 .4-.07.63-.2a3.29 3.29 0 001.5-2.58z" fill="#6BB5FB"/><path d="M67.91 72.61a3.29 3.29 0 00-1.49 2.58l.03 7.72c0 .95.68 1.33 1.5.85a3.29 3.29 0 001.5-2.58l-.04-7.71c0-.95-.67-1.34-1.5-.86z" fill="#1B2A4F"/><path d="M68.74 80.8l-.03-7.7c0-.29-.06-.52-.17-.7.51-.02.87.38.87 1.07l.03 7.7c0 .96-.66 2.11-1.49 2.6-.58.33-1.08.24-1.33-.17.19-.01.4-.08.63-.2a3.29 3.29 0 001.49-2.6z" fill="#6BB5FB"/><path d="M61.44 76.37a3.29 3.29 0 00-1.5 2.59l.04 7.7c0 .96.67 1.34 1.5.86a3.29 3.29 0 001.5-2.58l-.04-7.71c0-.95-.67-1.33-1.5-.86z" fill="#1B2A4F"/><path d="M62.27 84.57l-.03-7.71c0-.28-.06-.52-.17-.7.51-.01.87.38.87 1.07l.03 7.71c0 .95-.66 2.1-1.5 2.58-.57.34-1.07.25-1.32-.16.19-.01.4-.08.63-.2a3.29 3.29 0 001.49-2.59z" fill="#6BB5FB"/><path d="M54.97 80.13a3.29 3.29 0 00-1.5 2.59l.03 7.71c0 .95.68 1.33 1.5.86a3.29 3.29 0 001.5-2.59L56.47 81c0-.95-.68-1.33-1.5-.86z" fill="#1B2A4F"/><path d="M55.8 88.33l-.04-7.7c0-.3-.06-.52-.16-.7.5-.02.87.37.87 1.06l.03 7.71c0 .95-.67 2.1-1.5 2.59-.57.33-1.08.24-1.33-.17.2 0 .4-.07.63-.2a3.29 3.29 0 001.5-2.59z" fill="#6BB5FB"/><path d="M35.78 98.96l-31.2-18a.97.97 0 00-1.45.84v6.37c0 .7.37 1.33.97 1.68l31.2 18a.97.97 0 001.44-.83v-6.38c0-.69-.37-1.33-.96-1.68z" fill="#3955D1"/><path d="M48.5 100.57a3.29 3.29 0 00-1.5 2.58l.03 7.71c0 .95.67 1.34 1.5.86a3.29 3.29 0 001.5-2.58l-.04-7.72c0-.95-.67-1.33-1.5-.85z" fill="#1B2A4F"/><path d="M49.32 108.77l-.03-7.72c0-.28-.06-.51-.17-.69.51-.02.87.37.87 1.06l.03 7.72c0 .94-.66 2.1-1.49 2.58-.58.33-1.08.24-1.33-.17.19 0 .4-.07.63-.2a3.29 3.29 0 001.49-2.58z" fill="#6BB5FB"/><path d="M74.39 85.52a3.29 3.29 0 00-1.5 2.58l.03 7.71c0 .95.68 1.34 1.5.86a3.29 3.29 0 001.5-2.58l-.03-7.72c0-.95-.68-1.33-1.5-.85z" fill="#1B2A4F"/><path d="M75.21 93.72L75.18 86c0-.28-.06-.51-.16-.68.5-.03.86.36.87 1.05l.03 7.72c0 .95-.67 2.1-1.5 2.58-.58.34-1.08.25-1.33-.17.2 0 .4-.07.63-.2a3.29 3.29 0 001.5-2.58z" fill="#6BB5FB"/><path d="M67.91 89.28a3.29 3.29 0 00-1.49 2.58l.03 7.72c0 .95.68 1.33 1.5.85a3.29 3.29 0 001.5-2.58l-.04-7.71c0-.95-.67-1.34-1.5-.86z" fill="#1B2A4F"/><path d="M68.74 97.48l-.03-7.71c0-.29-.06-.52-.17-.7.51-.01.87.38.87 1.07l.03 7.7c0 .96-.66 2.12-1.49 2.6-.58.33-1.08.24-1.33-.17.19-.01.4-.08.63-.2a3.29 3.29 0 001.49-2.59z" fill="#6BB5FB"/><path d="M61.44 93.04a3.29 3.29 0 00-1.5 2.59l.04 7.7c0 .96.67 1.34 1.5.86a3.29 3.29 0 001.5-2.58l-.04-7.71c0-.95-.67-1.33-1.5-.86z" fill="#1B2A4F"/><path d="M62.27 101.24l-.03-7.71c0-.28-.06-.52-.17-.69.51-.02.87.37.87 1.06l.03 7.71c0 .95-.66 2.1-1.5 2.58-.57.34-1.07.25-1.32-.16.19 0 .4-.08.63-.2a3.29 3.29 0 001.49-2.59z" fill="#6BB5FB"/><path d="M54.97 96.8a3.29 3.29 0 00-1.5 2.59l.03 7.71c0 .95.68 1.33 1.5.86a3.29 3.29 0 001.5-2.59l-.03-7.7c0-.96-.68-1.34-1.5-.86z" fill="#1B2A4F"/><path d="M55.8 105l-.04-7.7c0-.3-.06-.52-.16-.7.5-.02.87.37.87 1.06l.03 7.71c0 .95-.67 2.11-1.5 2.59-.57.33-1.08.24-1.33-.17.2 0 .4-.07.63-.2a3.29 3.29 0 001.5-2.59z" fill="#6BB5FB"/></svg>