<svg width="1920" height="914" fill="none" xmlns="http://www.w3.org/2000/svg"><path d="M1218 111l99-16v104h120v83h-120v123c0 21 4 38 11 51 7 12 22 18 45 18a207 207 0 0064-11l14 77a233 233 0 01-162 7c-18-7-32-17-43-30-10-13-18-29-22-48s-6-40-6-62V111z" fill="#E9E9E9"/><path d="M1218 111l99-16v104h120v83h-120v123c0 21 4 38 11 51 7 12 22 18 45 18a207 207 0 0064-11l14 77a233 233 0 01-162 7c-18-7-32-17-43-30-10-13-18-29-22-48s-6-40-6-62V111z" fill="url(#paint0_linear)"/><path d="M1639 481a562 562 0 0049-3v-75a183 183 0 00-40-4c-9 0-18 0-26 2-8 1-16 3-22 6s-11 7-14 12c-4 6-6 12-6 21 0 15 5 26 16 32 10 6 25 9 43 9zm-8-291c29 0 54 3 73 10a104 104 0 0172 74c5 18 8 37 8 59v207c-14 4-34 7-60 11a543 543 0 01-154 1c-18-4-34-11-47-20-14-9-24-21-31-36-7-14-11-32-11-54 0-20 4-38 12-52 9-14 20-26 34-34s29-14 47-18a251 251 0 01114 0v-9c0-17-5-31-15-41s-28-16-53-16a312 312 0 00-93 15l-13-81 21-5 29-5a350 350 0 0167-6z" fill="#E9E9E9"/><path d="M1639 481a562 562 0 0049-3v-75a183 183 0 00-40-4c-9 0-18 0-26 2-8 1-16 3-22 6s-11 7-14 12c-4 6-6 12-6 21 0 15 5 26 16 32 10 6 25 9 43 9zm-8-291c29 0 54 3 73 10a104 104 0 0172 74c5 18 8 37 8 59v207c-14 4-34 7-60 11a543 543 0 01-154 1c-18-4-34-11-47-20-14-9-24-21-31-36-7-14-11-32-11-54 0-20 4-38 12-52 9-14 20-26 34-34s29-14 47-18a251 251 0 01114 0v-9c0-17-5-31-15-41s-28-16-53-16a312 312 0 00-93 15l-13-81 21-5 29-5a350 350 0 0167-6z" fill="url(#paint1_linear)"/><path d="M2014 557c-29 0-53-3-71-9s-32-14-43-24a87 87 0 01-21-38c-3-16-5-32-5-51V48l99-16v383l2 24c2 7 4 13 8 18s9 9 16 12 17 5 29 6l-14 82z" fill="#E9E9E9"/><path d="M2014 557c-29 0-53-3-71-9s-32-14-43-24a87 87 0 01-21-38c-3-16-5-32-5-51V48l99-16v383l2 24c2 7 4 13 8 18s9 9 16 12 17 5 29 6l-14 82z" fill="url(#paint2_linear)"/><path d="M104 383l17 2h23c52 0 91-13 116-40 25-26 38-62 38-109 0-48-12-85-36-110s-62-37-114-37a375 375 0 00-44 2v292zm301-147c0 41-6 76-18 105-13 30-31 55-54 75-23 19-50 34-83 44-33 9-70 14-111 14A932 932 0 010 462V11A1018 1018 0 01142 0c40 0 76 4 108 13s60 23 83 42c23 20 41 44 54 74 12 30 18 66 18 107z" fill="#E9E9E9"/><path d="M104 383l17 2h23c52 0 91-13 116-40 25-26 38-62 38-109 0-48-12-85-36-110s-62-37-114-37a375 375 0 00-44 2v292zm301-147c0 41-6 76-18 105-13 30-31 55-54 75-23 19-50 34-83 44-33 9-70 14-111 14A932 932 0 010 462V11A1018 1018 0 01142 0c40 0 76 4 108 13s60 23 83 42c23 20 41 44 54 74 12 30 18 66 18 107z" fill="url(#paint3_linear)"/><path d="M585 788h-99V436h99v352zm9-453c0 18-6 32-18 43a60 60 0 01-41 15c-16 0-30-5-42-15a56 56 0 01-17-43c0-19 5-33 17-43 12-11 26-16 42-16s30 5 41 16c12 10 18 24 18 43z" fill="#E9E9E9"/><path d="M585 788h-99V436h99v352zm9-453c0 18-6 32-18 43a60 60 0 01-41 15c-16 0-30-5-42-15a56 56 0 01-17-43c0-19 5-33 17-43 12-11 26-16 42-16s30 5 41 16c12 10 18 24 18 43z" fill="url(#paint4_linear)"/><path d="M763 600c0 56 23 84 68 84a99 99 0 0051-13V512l-17-2-23-2c-27 0-46 9-59 26-13 18-20 40-20 66zm219 143c0 58-15 100-44 128s-74 42-135 42a374 374 0 01-124-21l18-83a294 294 0 00107 20c29 0 49-6 60-19 12-12 18-28 18-48v-13c-10 5-22 9-33 12-11 2-23 3-37 3-48 0-86-14-111-43-26-29-39-69-39-121 0-25 4-49 12-70s20-39 35-54c15-16 34-27 56-35 23-9 48-13 76-13l37 2a523 523 0 01104 18v295z" fill="#E9E9E9"/><path d="M763 600c0 56 23 84 68 84a99 99 0 0051-13V512l-17-2-23-2c-27 0-46 9-59 26-13 18-20 40-20 66zm219 143c0 58-15 100-44 128s-74 42-135 42a374 374 0 01-124-21l18-83a294 294 0 00107 20c29 0 49-6 60-19 12-12 18-28 18-48v-13c-10 5-22 9-33 12-11 2-23 3-37 3-48 0-86-14-111-43-26-29-39-69-39-121 0-25 4-49 12-70s20-39 35-54c15-16 34-27 56-35 23-9 48-13 76-13l37 2a523 523 0 01104 18v295z" fill="url(#paint5_linear)"/><path d="M1175 788h-100V436h100v352zm9-453c0 18-6 32-18 43a60 60 0 01-42 15c-16 0-30-5-42-15a56 56 0 01-17-43c0-19 6-33 17-43 12-11 26-16 42-16 17 0 30 5 42 16 12 10 18 24 18 43z" fill="#E9E9E9"/><path d="M1175 788h-100V436h100v352zm9-453c0 18-6 32-18 43a60 60 0 01-42 15c-16 0-30-5-42-15a56 56 0 01-17-43c0-19 6-33 17-43 12-11 26-16 42-16 17 0 30 5 42 16 12 10 18 24 18 43z" fill="url(#paint6_linear)"/><defs><linearGradient id="paint0_linear" x1="1037.5" y1="269.1" x2="1037.5" y2="913.1" gradientUnits="userSpaceOnUse"><stop stop-color="#F7F7F7"/><stop offset="1" stop-color="#fff" stop-opacity="0"/></linearGradient><linearGradient id="paint1_linear" x1="1037.5" y1="269.1" x2="1037.5" y2="913.1" gradientUnits="userSpaceOnUse"><stop stop-color="#F7F7F7"/><stop offset="1" stop-color="#fff" stop-opacity="0"/></linearGradient><linearGradient id="paint2_linear" x1="1037.5" y1="269.1" x2="1037.5" y2="913.1" gradientUnits="userSpaceOnUse"><stop stop-color="#F7F7F7"/><stop offset="1" stop-color="#fff" stop-opacity="0"/></linearGradient><linearGradient id="paint3_linear" x1="1037.5" y1="269.1" x2="1037.5" y2="913.1" gradientUnits="userSpaceOnUse"><stop stop-color="#F7F7F7"/><stop offset="1" stop-color="#fff" stop-opacity="0"/></linearGradient><linearGradient id="paint4_linear" x1="1037.5" y1="269.1" x2="1037.5" y2="913.1" gradientUnits="userSpaceOnUse"><stop stop-color="#F7F7F7"/><stop offset="1" stop-color="#fff" stop-opacity="0"/></linearGradient><linearGradient id="paint5_linear" x1="1037.5" y1="269.1" x2="1037.5" y2="913.1" gradientUnits="userSpaceOnUse"><stop stop-color="#F7F7F7"/><stop offset="1" stop-color="#fff" stop-opacity="0"/></linearGradient><linearGradient id="paint6_linear" x1="1037.5" y1="269.1" x2="1037.5" y2="913.1" gradientUnits="userSpaceOnUse"><stop stop-color="#F7F7F7"/><stop offset="1" stop-color="#fff" stop-opacity="0"/></linearGradient></defs></svg>