<svg width="1097" height="1281" fill="none" xmlns="http://www.w3.org/2000/svg"><path d="M282.67 1035.63c13.25 1.2 28.3 2.4 45.14 3.6h63.2c140.84 0 244.96-35.48 312.37-106.45 68.61-70.96 102.92-169 102.92-294.08 0-131.11-32.5-230.34-97.5-297.7-65-67.36-167.92-101.04-308.76-101.04-19.26 0-39.12.6-59.59 1.8-20.46 0-39.72 1.2-57.78 3.62v790.25zM1097 638.7c0 108.25-16.85 202.67-50.56 283.26-33.7 80.59-81.85 147.34-144.45 200.27-61.38 52.92-136.62 92.62-225.7 119.08-89.07 26.46-188.98 39.69-299.72 39.69-50.56 0-109.55-2.41-176.95-7.22A1357.45 1357.45 0 011 1248.52V30.67C66 18.64 133.41 10.83 203.23 7.22 274.25 2.4 335.03 0 385.59 0c107.14 0 204.04 12.03 290.7 36.08C764.17 60.14 839.4 98.03 902 149.75c62.6 51.72 110.75 117.88 144.45 198.46 33.71 80.6 50.56 177.42 50.56 290.49z" fill="#E9E9E9"/><path d="M282.67 1035.63c13.25 1.2 28.3 2.4 45.14 3.6h63.2c140.84 0 244.96-35.48 312.37-106.45 68.61-70.96 102.92-169 102.92-294.08 0-131.11-32.5-230.34-97.5-297.7-65-67.36-167.92-101.04-308.76-101.04-19.26 0-39.12.6-59.59 1.8-20.46 0-39.72 1.2-57.78 3.62v790.25zM1097 638.7c0 108.25-16.85 202.67-50.56 283.26-33.7 80.59-81.85 147.34-144.45 200.27-61.38 52.92-136.62 92.62-225.7 119.08-89.07 26.46-188.98 39.69-299.72 39.69-50.56 0-109.55-2.41-176.95-7.22A1357.45 1357.45 0 011 1248.52V30.67C66 18.64 133.41 10.83 203.23 7.22 274.25 2.4 335.03 0 385.59 0c107.14 0 204.04 12.03 290.7 36.08C764.17 60.14 839.4 98.03 902 149.75c62.6 51.72 110.75 117.88 144.45 198.46 33.71 80.6 50.56 177.42 50.56 290.49z" fill="url(#paint0_linear)"/><g opacity=".7"><mask id="a" maskUnits="userSpaceOnUse" x="0" y="0" width="1096" height="1281"><path d="M281.67 1035.63c13.25 1.2 28.3 2.4 45.14 3.6h63.2c140.84 0 244.96-35.48 312.37-106.45 68.61-70.96 102.92-169 102.92-294.08 0-131.11-32.5-230.34-97.5-297.7-65-67.36-167.92-101.04-308.76-101.04-19.26 0-39.12.6-59.59 1.8-20.46 0-39.72 1.2-57.78 3.62v790.25zM1096 638.7c0 108.25-16.85 202.67-50.56 283.26-33.7 80.59-81.85 147.34-144.45 200.27-61.38 52.92-136.62 92.62-225.7 119.08-89.07 26.46-188.98 39.69-299.72 39.69-50.56 0-109.55-2.41-176.95-7.22A1357.45 1357.45 0 010 1248.52V30.67C65 18.64 132.41 10.83 202.23 7.22 273.25 2.4 334.03 0 384.59 0c107.14 0 204.04 12.03 290.7 36.08C763.17 60.14 838.4 98.03 901 149.75c62.6 51.72 110.75 117.88 144.45 198.46 33.71 80.6 50.56 177.42 50.56 290.49z" fill="#E9E9E9"/><path d="M281.67 1035.63c13.25 1.2 28.3 2.4 45.14 3.6h63.2c140.84 0 244.96-35.48 312.37-106.45 68.61-70.96 102.92-169 102.92-294.08 0-131.11-32.5-230.34-97.5-297.7-65-67.36-167.92-101.04-308.76-101.04-19.26 0-39.12.6-59.59 1.8-20.46 0-39.72 1.2-57.78 3.62v790.25zM1096 638.7c0 108.25-16.85 202.67-50.56 283.26-33.7 80.59-81.85 147.34-144.45 200.27-61.38 52.92-136.62 92.62-225.7 119.08-89.07 26.46-188.98 39.69-299.72 39.69-50.56 0-109.55-2.41-176.95-7.22A1357.45 1357.45 0 010 1248.52V30.67C65 18.64 132.41 10.83 202.23 7.22 273.25 2.4 334.03 0 384.59 0c107.14 0 204.04 12.03 290.7 36.08C763.17 60.14 838.4 98.03 901 149.75c62.6 51.72 110.75 117.88 144.45 198.46 33.71 80.6 50.56 177.42 50.56 290.49z" fill="url(#paint1_linear)"/></mask><g mask="url(#a)"><g opacity=".6"><mask id="b" fill="#fff"><path d="M727.4 374v58.52h23.11v-31.16c11.06 4.15 17.83 14.32 17.83 29.83 0 22.65-14.36 36.67-34 36.67-20.32 0-34.68-14.67-34.68-34.34 0-13.17 5.95-23.67 13.54-28.51l-12.88-22.65c-15.52 9.82-26.41 28.65-26.41 50.99a61 61 0 0017.44 43.35 59.95 59.95 0 0019.63 13.26 59.38 59.38 0 0023.2 4.57c33.18 0 59.92-26.33 59.92-63.02 0-32.67-21.46-57.51-56.8-57.51h-9.9zM791.8 574.54h-62.74l62.72-45v-20H676.22v26.66h62.73l-62.74 45v20.01H791.8v-26.67zM676.23 621.21v26.68h115.56v-26.68H676.23zM791.8 716.23v-26.67h-90.16v-30h-25.42v86.67h25.42v-30h90.15zM502.33 719.23v26.67h115.56v-68.35h-25.42v41.68h-90.14zM676.22 753.73v72.51H791.8v-73.33h-25.42v46.66h-20.48V757.9h-25.1v41.67h-19.14v-45.84h-25.43zM599.73 834.26v-43.34l18.16-5.84v-29.19l-115.57 39.7v34l115.57 39.66V840.1l-18.16-5.83zM617.89 919.26V892.6h-90.15v-30h-25.42v86.68h25.42v-30h90.15zM502.32 960.93v26.68H617.9v-26.68H502.32zM560.27 1123.14c33.19 0 59.93-26.34 59.93-63.02 0-32.67-21.47-57.51-56.8-57.51h-9.9v58.52h23.1v-31.17c11.07 4.16 17.84 14.32 17.84 29.84 0 22.65-14.36 36.67-34.01 36.67-20.3 0-34.67-14.67-34.67-34.34 0-13.18 5.94-23.68 13.54-28.52l-12.88-22.67c-15.52 9.85-26.42 28.68-26.42 51.02a60.95 60.95 0 0017.44 43.34 59.57 59.57 0 0042.83 17.84zM502.32 1138.14v26.67H617.9v-26.67H502.32zM773.63 1223.32l-49.03-30.17h67.18v-26.67H676.22v26.67l51.34 31.66-51.34 31.68v26.67h115.57v-26.67h-67.2l49.04-30.17v-3zM617.89 1283.16v-46.68c0-32.16-25.1-56.67-57.8-56.67-32.68 0-57.77 24.51-57.77 56.67v46.68h115.57zM847.81 1244.99c0 20.17 12.88 39.17 35.17 39.17 22.12 0 30.37-16.99 35.15-34.34 4.8-17.51 7.6-24.17 14.7-24.17 4.46 0 9.42 3.16 9.42 15.84 0 13.16-6.44 20.32-16.02 24.49l13.21 23.02c17-6.51 28.56-22.18 28.56-46.69 0-25.34-13.2-43.33-35.5-43.33-24.43 0-30.54 19.83-35.82 37.5-5.45 18.17-9.08 21.01-14.36 21.01-4.63 0-8.75-4.17-8.75-12.5 0-10.67 5.11-16.18 13.37-20.18l-13.04-22.5c-17.01 8.51-26.09 23.51-26.09 42.68zM854.72 1102.27a58.72 58.72 0 00-6.92 28.54c0 35.17 26.09 60.67 60.1 60.67 34 0 60.1-25.5 60.1-60.67 0-21.34-10.4-40-26.75-50.02l-13.21 23.01c8.91 4.99 14.2 15.17 14.2 27.01 0 20.67-13.7 34-34.34 34-20.64 0-34.34-13.33-34.34-34 0-11.84 5.28-21.86 14.2-27.01l-13.21-23.01a58 58 0 00-19.83 21.48zM791.78 1156.47v-29.17l-18.16-5.83v-43.34l18.16-5.84v-29.17l-115.56 39.68v34l115.56 39.67zM894.36 1004.93v36.7l-44.25-.01v26.67h115.57v-26.67h-45.9v-36.69h45.9v-26.67H850.11v26.67h44.25zM791.78 1006.46h-37.97v-12.68l37.97-22V943.1l-42.43 24.83a38.4 38.4 0 00-13.76-15.5 37.88 37.88 0 00-19.75-6 39.13 39.13 0 00-15.18 3.03 39.6 39.6 0 00-21.45 21.66 40.29 40.29 0 00-3 15.33v46.68h115.57v-26.67zM857.92 868.88a61.12 61.12 0 00-10.12 33.73 60.7 60.7 0 004.44 23.3c3 7.39 7.42 14.1 13.02 19.75a59.5 59.5 0 0019.56 13.14 58.96 58.96 0 0023.08 4.48c11.88 0 23.5-3.56 33.39-10.23a60.56 60.56 0 0022.13-27.24 61.22 61.22 0 003.42-35.06 60.9 60.9 0 00-16.45-31.09 59.94 59.94 0 00-30.78-16.6 59.42 59.42 0 00-34.72 3.47 60.2 60.2 0 00-26.97 22.35zM738.29 903.93l53.49-37.34v-30.35l-59.27 41.02-56.3-39.35v30.36l50.2 35.66h-50.2v26.67h115.57v-26.67h-53.5zM857.92 737.52a61.12 61.12 0 00-10.12 33.72 60.72 60.72 0 004.44 23.3c3 7.4 7.42 14.1 13.01 19.76a59.47 59.47 0 0019.57 13.13 58.99 58.99 0 0023.07 4.49c11.89 0 23.51-3.56 33.4-10.24a60.54 60.54 0 0022.13-27.24 61.24 61.24 0 003.41-35.07 60.9 60.9 0 00-16.45-31.07 59.6 59.6 0 00-65.5-13.15 60.29 60.29 0 00-26.96 22.37zM940.25 627.2v41.68h-90.14v26.67h115.57v-68.34h-25.43z"/></mask><path d="M727.4 374v58.52h23.11v-31.16c11.06 4.15 17.83 14.32 17.83 29.83 0 22.65-14.36 36.67-34 36.67-20.32 0-34.68-14.67-34.68-34.34 0-13.17 5.95-23.67 13.54-28.51l-12.88-22.65c-15.52 9.82-26.41 28.65-26.41 50.99a61 61 0 0017.44 43.35 59.95 59.95 0 0019.63 13.26 59.38 59.38 0 0023.2 4.57c33.18 0 59.92-26.33 59.92-63.02 0-32.67-21.46-57.51-56.8-57.51h-9.9zM791.8 574.54h-62.74l62.72-45v-20H676.22v26.66h62.73l-62.74 45v20.01H791.8v-26.67zM676.23 621.21v26.68h115.56v-26.68H676.23zM791.8 716.23v-26.67h-90.16v-30h-25.42v86.67h25.42v-30h90.15zM502.33 719.23v26.67h115.56v-68.35h-25.42v41.68h-90.14zM676.22 753.73v72.51H791.8v-73.33h-25.42v46.66h-20.48V757.9h-25.1v41.67h-19.14v-45.84h-25.43zM599.73 834.26v-43.34l18.16-5.84v-29.19l-115.57 39.7v34l115.57 39.66V840.1l-18.16-5.83zM617.89 919.26V892.6h-90.15v-30h-25.42v86.68h25.42v-30h90.15zM502.32 960.93v26.68H617.9v-26.68H502.32zM560.27 1123.14c33.19 0 59.93-26.34 59.93-63.02 0-32.67-21.47-57.51-56.8-57.51h-9.9v58.52h23.1v-31.17c11.07 4.16 17.84 14.32 17.84 29.84 0 22.65-14.36 36.67-34.01 36.67-20.3 0-34.67-14.67-34.67-34.34 0-13.18 5.94-23.68 13.54-28.52l-12.88-22.67c-15.52 9.85-26.42 28.68-26.42 51.02a60.95 60.95 0 0017.44 43.34 59.57 59.57 0 0042.83 17.84zM502.32 1138.14v26.67H617.9v-26.67H502.32zM773.63 1223.32l-49.03-30.17h67.18v-26.67H676.22v26.67l51.34 31.66-51.34 31.68v26.67h115.57v-26.67h-67.2l49.04-30.17v-3zM617.89 1283.16v-46.68c0-32.16-25.1-56.67-57.8-56.67-32.68 0-57.77 24.51-57.77 56.67v46.68h115.57zM847.81 1244.99c0 20.17 12.88 39.17 35.17 39.17 22.12 0 30.37-16.99 35.15-34.34 4.8-17.51 7.6-24.17 14.7-24.17 4.46 0 9.42 3.16 9.42 15.84 0 13.16-6.44 20.32-16.02 24.49l13.21 23.02c17-6.51 28.56-22.18 28.56-46.69 0-25.34-13.2-43.33-35.5-43.33-24.43 0-30.54 19.83-35.82 37.5-5.45 18.17-9.08 21.01-14.36 21.01-4.63 0-8.75-4.17-8.75-12.5 0-10.67 5.11-16.18 13.37-20.18l-13.04-22.5c-17.01 8.51-26.09 23.51-26.09 42.68zM854.72 1102.27a58.72 58.72 0 00-6.92 28.54c0 35.17 26.09 60.67 60.1 60.67 34 0 60.1-25.5 60.1-60.67 0-21.34-10.4-40-26.75-50.02l-13.21 23.01c8.91 4.99 14.2 15.17 14.2 27.01 0 20.67-13.7 34-34.34 34-20.64 0-34.34-13.33-34.34-34 0-11.84 5.28-21.86 14.2-27.01l-13.21-23.01a58 58 0 00-19.83 21.48zM791.78 1156.47v-29.17l-18.16-5.83v-43.34l18.16-5.84v-29.17l-115.56 39.68v34l115.56 39.67zM894.36 1004.93v36.7l-44.25-.01v26.67h115.57v-26.67h-45.9v-36.69h45.9v-26.67H850.11v26.67h44.25zM791.78 1006.46h-37.97v-12.68l37.97-22V943.1l-42.43 24.83a38.4 38.4 0 00-13.76-15.5 37.88 37.88 0 00-19.75-6 39.13 39.13 0 00-15.18 3.03 39.6 39.6 0 00-21.45 21.66 40.29 40.29 0 00-3 15.33v46.68h115.57v-26.67zM857.92 868.88a61.12 61.12 0 00-10.12 33.73 60.7 60.7 0 004.44 23.3c3 7.39 7.42 14.1 13.02 19.75a59.5 59.5 0 0019.56 13.14 58.96 58.96 0 0023.08 4.48c11.88 0 23.5-3.56 33.39-10.23a60.56 60.56 0 0022.13-27.24 61.22 61.22 0 003.42-35.06 60.9 60.9 0 00-16.45-31.09 59.94 59.94 0 00-30.78-16.6 59.42 59.42 0 00-34.72 3.47 60.2 60.2 0 00-26.97 22.35zM738.29 903.93l53.49-37.34v-30.35l-59.27 41.02-56.3-39.35v30.36l50.2 35.66h-50.2v26.67h115.57v-26.67h-53.5zM857.92 737.52a61.12 61.12 0 00-10.12 33.72 60.72 60.72 0 004.44 23.3c3 7.4 7.42 14.1 13.01 19.76a59.47 59.47 0 0019.57 13.13 58.99 58.99 0 0023.07 4.49c11.89 0 23.51-3.56 33.4-10.24a60.54 60.54 0 0022.13-27.24 61.24 61.24 0 003.41-35.07 60.9 60.9 0 00-16.45-31.07 59.6 59.6 0 00-65.5-13.15 60.29 60.29 0 00-26.96 22.37zM940.25 627.2v41.68h-90.14v26.67h115.57v-68.34h-25.43z" stroke="#fff" stroke-width="10" mask="url(#b)"/></g><g opacity=".6"><mask id="c" fill="#fff"><path d="M1076.4-316v58.52h23.11v-31.16c11.06 4.15 17.83 14.32 17.83 29.83 0 22.65-14.36 36.67-34.01 36.67-20.31 0-34.67-14.67-34.67-34.34 0-13.17 5.95-23.67 13.54-28.51l-12.88-22.65c-15.52 9.82-26.41 28.65-26.41 50.99a60.66 60.66 0 0017.44 43.35 59.95 59.95 0 0019.63 13.26 59.42 59.42 0 0023.19 4.57c33.19 0 59.93-26.34 59.93-63.02 0-32.67-21.46-57.51-56.79-57.51h-9.91zM1140.79-115.46h-62.73l62.72-45v-20h-115.56v26.66h62.73l-62.73 45v20.01h115.57v-26.67zM1025.23-68.79v26.68h115.56v-26.68h-115.56zM1140.79 26.23V-.44h-90.15v-30h-25.42v86.67h25.42v-30h90.15zM851.33 29.23V55.9h115.56v-68.35h-25.42v41.68h-90.14zM1025.22 63.73v72.51h115.57V62.91h-25.42v46.66h-20.48V67.9h-25.09v41.67h-19.15V63.73h-25.43zM948.73 144.26v-43.34l18.16-5.84V65.89l-115.57 39.7v34l115.57 39.66V150.1l-18.16-5.83zM966.89 229.26V202.6h-90.15v-30h-25.42v86.68h25.42v-30h90.15zM851.32 270.93v26.68H966.9v-26.68H851.32zM909.27 433.14c33.19 0 59.93-26.34 59.93-63.02 0-32.67-21.47-57.51-56.8-57.51h-9.9v58.52h23.1v-31.17c11.07 4.16 17.84 14.32 17.84 29.84 0 22.65-14.36 36.67-34.01 36.67-20.3 0-34.67-14.67-34.67-34.34 0-13.18 5.94-23.68 13.54-28.52l-12.88-22.67C859.9 330.79 849 349.62 849 371.96a61 61 0 0017.44 43.34 59.95 59.95 0 0019.64 13.27 59.37 59.37 0 0023.2 4.57zM851.32 448.14v26.67H966.9v-26.67H851.32zM1122.63 533.32l-49.03-30.17h67.18v-26.67h-115.56v26.67l51.34 31.66-51.34 31.68v26.67h115.57V566.5h-67.19l49.03-30.17v-3zM966.89 593.16v-46.68c0-32.16-25.1-56.67-57.8-56.67-32.68 0-57.77 24.5-57.77 56.67v46.68h115.57zM1196.81 555c0 20.16 12.88 39.16 35.17 39.16 22.12 0 30.36-17 35.16-34.34 4.78-17.5 7.59-24.17 14.69-24.17 4.46 0 9.42 3.16 9.42 15.84 0 13.16-6.44 20.32-16.02 24.49l13.21 23.02c17-6.51 28.56-22.18 28.56-46.7 0-25.33-13.21-43.32-35.49-43.32-24.44 0-30.55 19.83-35.83 37.5-5.45 18.17-9.08 21-14.36 21-4.63 0-8.75-4.16-8.75-12.49 0-10.67 5.11-16.18 13.37-20.18l-13.04-22.5c-17.01 8.5-26.09 23.51-26.09 42.68zM1203.72 412.27a58.59 58.59 0 00-6.92 28.54c0 35.17 26.09 60.67 60.1 60.67 34.01 0 60.09-25.5 60.09-60.67 0-21.34-10.4-40-26.74-50.02l-13.21 23c8.91 5 14.2 15.18 14.2 27.02 0 20.67-13.7 34-34.34 34-20.64 0-34.34-13.33-34.34-34 0-11.84 5.28-21.86 14.2-27.01l-13.21-23.01a58.03 58.03 0 00-19.83 21.48zM1140.78 466.47V437.3l-18.16-5.82v-43.35l18.16-5.84v-29.17l-115.56 39.68v34l115.56 39.67zM1243.36 314.93v36.7l-44.25-.01v26.67h115.57v-26.67h-45.9v-36.69h45.9v-26.67h-115.57v26.67h44.25zM1140.78 316.46h-37.97v-12.68l37.97-22V253.1l-42.43 24.83a38.41 38.41 0 00-13.76-15.5 37.9 37.9 0 00-19.75-6 39.13 39.13 0 00-15.18 3.03 39.72 39.72 0 00-21.45 21.66 40.08 40.08 0 00-2.99 15.33v46.68h115.56v-26.67zM1206.92 178.88a61.16 61.16 0 00-10.12 33.73 60.57 60.57 0 0017.46 43.05 59.43 59.43 0 0019.56 13.14 58.98 58.98 0 0023.08 4.48 59.7 59.7 0 0033.39-10.23 60.58 60.58 0 0022.13-27.24 61.2 61.2 0 00-13.03-66.15 59.96 59.96 0 00-30.78-16.6 59.4 59.4 0 00-34.72 3.47 60.2 60.2 0 00-26.97 22.35zM1087.29 213.93l53.49-37.34v-30.35l-59.27 41.02-56.29-39.35v30.36l50.18 35.66h-50.18v26.67h115.56v-26.67h-53.49zM1206.92 47.52a61.08 61.08 0 00-10.12 33.72 60.6 60.6 0 0017.45 43.06 59.56 59.56 0 0019.57 13.14 58.95 58.95 0 0023.07 4.48 59.65 59.65 0 0033.39-10.23 60.54 60.54 0 0022.14-27.25 61.23 61.23 0 003.41-35.07 60.87 60.87 0 00-16.45-31.07 59.64 59.64 0 00-65.5-13.15 60.28 60.28 0 00-26.96 22.37zM1289.25-62.8v41.68h-90.14V5.55h115.57v-68.34h-25.43z"/></mask><path d="M1076.4-316v58.52h23.11v-31.16c11.06 4.15 17.83 14.32 17.83 29.83 0 22.65-14.36 36.67-34.01 36.67-20.31 0-34.67-14.67-34.67-34.34 0-13.17 5.95-23.67 13.54-28.51l-12.88-22.65c-15.52 9.82-26.41 28.65-26.41 50.99a60.66 60.66 0 0017.44 43.35 59.95 59.95 0 0019.63 13.26 59.42 59.42 0 0023.19 4.57c33.19 0 59.93-26.34 59.93-63.02 0-32.67-21.46-57.51-56.79-57.51h-9.91zM1140.79-115.46h-62.73l62.72-45v-20h-115.56v26.66h62.73l-62.73 45v20.01h115.57v-26.67zM1025.23-68.79v26.68h115.56v-26.68h-115.56zM1140.79 26.23V-.44h-90.15v-30h-25.42v86.67h25.42v-30h90.15zM851.33 29.23V55.9h115.56v-68.35h-25.42v41.68h-90.14zM1025.22 63.73v72.51h115.57V62.91h-25.42v46.66h-20.48V67.9h-25.09v41.67h-19.15V63.73h-25.43zM948.73 144.26v-43.34l18.16-5.84V65.89l-115.57 39.7v34l115.57 39.66V150.1l-18.16-5.83zM966.89 229.26V202.6h-90.15v-30h-25.42v86.68h25.42v-30h90.15zM851.32 270.93v26.68H966.9v-26.68H851.32zM909.27 433.14c33.19 0 59.93-26.34 59.93-63.02 0-32.67-21.47-57.51-56.8-57.51h-9.9v58.52h23.1v-31.17c11.07 4.16 17.84 14.32 17.84 29.84 0 22.65-14.36 36.67-34.01 36.67-20.3 0-34.67-14.67-34.67-34.34 0-13.18 5.94-23.68 13.54-28.52l-12.88-22.67C859.9 330.79 849 349.62 849 371.96a61 61 0 0017.44 43.34 59.95 59.95 0 0019.64 13.27 59.37 59.37 0 0023.2 4.57zM851.32 448.14v26.67H966.9v-26.67H851.32zM1122.63 533.32l-49.03-30.17h67.18v-26.67h-115.56v26.67l51.34 31.66-51.34 31.68v26.67h115.57V566.5h-67.19l49.03-30.17v-3zM966.89 593.16v-46.68c0-32.16-25.1-56.67-57.8-56.67-32.68 0-57.77 24.5-57.77 56.67v46.68h115.57zM1196.81 555c0 20.16 12.88 39.16 35.17 39.16 22.12 0 30.36-17 35.16-34.34 4.78-17.5 7.59-24.17 14.69-24.17 4.46 0 9.42 3.16 9.42 15.84 0 13.16-6.44 20.32-16.02 24.49l13.21 23.02c17-6.51 28.56-22.18 28.56-46.7 0-25.33-13.21-43.32-35.49-43.32-24.44 0-30.55 19.83-35.83 37.5-5.45 18.17-9.08 21-14.36 21-4.63 0-8.75-4.16-8.75-12.49 0-10.67 5.11-16.18 13.37-20.18l-13.04-22.5c-17.01 8.5-26.09 23.51-26.09 42.68zM1203.72 412.27a58.59 58.59 0 00-6.92 28.54c0 35.17 26.09 60.67 60.1 60.67 34.01 0 60.09-25.5 60.09-60.67 0-21.34-10.4-40-26.74-50.02l-13.21 23c8.91 5 14.2 15.18 14.2 27.02 0 20.67-13.7 34-34.34 34-20.64 0-34.34-13.33-34.34-34 0-11.84 5.28-21.86 14.2-27.01l-13.21-23.01a58.03 58.03 0 00-19.83 21.48zM1140.78 466.47V437.3l-18.16-5.82v-43.35l18.16-5.84v-29.17l-115.56 39.68v34l115.56 39.67zM1243.36 314.93v36.7l-44.25-.01v26.67h115.57v-26.67h-45.9v-36.69h45.9v-26.67h-115.57v26.67h44.25zM1140.78 316.46h-37.97v-12.68l37.97-22V253.1l-42.43 24.83a38.41 38.41 0 00-13.76-15.5 37.9 37.9 0 00-19.75-6 39.13 39.13 0 00-15.18 3.03 39.72 39.72 0 00-21.45 21.66 40.08 40.08 0 00-2.99 15.33v46.68h115.56v-26.67zM1206.92 178.88a61.16 61.16 0 00-10.12 33.73 60.57 60.57 0 0017.46 43.05 59.43 59.43 0 0019.56 13.14 58.98 58.98 0 0023.08 4.48 59.7 59.7 0 0033.39-10.23 60.58 60.58 0 0022.13-27.24 61.2 61.2 0 00-13.03-66.15 59.96 59.96 0 00-30.78-16.6 59.4 59.4 0 00-34.72 3.47 60.2 60.2 0 00-26.97 22.35zM1087.29 213.93l53.49-37.34v-30.35l-59.27 41.02-56.29-39.35v30.36l50.18 35.66h-50.18v26.67h115.56v-26.67h-53.49zM1206.92 47.52a61.08 61.08 0 00-10.12 33.72 60.6 60.6 0 0017.45 43.06 59.56 59.56 0 0019.57 13.14 58.95 58.95 0 0023.07 4.48 59.65 59.65 0 0033.39-10.23 60.54 60.54 0 0022.14-27.25 61.23 61.23 0 003.41-35.07 60.87 60.87 0 00-16.45-31.07 59.64 59.64 0 00-65.5-13.15 60.28 60.28 0 00-26.96 22.37zM1289.25-62.8v41.68h-90.14V5.55h115.57v-68.34h-25.43z" stroke="#fff" stroke-width="10" mask="url(#c)"/></g><g opacity=".6"><mask id="d" fill="#fff"><path d="M205.4-316v58.52h23.11v-31.16c11.06 4.15 17.83 14.32 17.83 29.83 0 22.65-14.36 36.67-34 36.67-20.31 0-34.68-14.67-34.68-34.34 0-13.17 5.95-23.67 13.54-28.51l-12.88-22.65c-15.52 9.82-26.41 28.65-26.41 50.99a61 61 0 0017.44 43.35 59.95 59.95 0 0019.64 13.26 59.38 59.38 0 0023.19 4.57c33.18 0 59.92-26.34 59.92-63.02 0-32.67-21.46-57.51-56.8-57.51h-9.9zM269.8-115.46h-62.74l62.72-45v-20H154.22v26.66h62.73l-62.73 45v20.01h115.57v-26.67zM154.22-68.79v26.68H269.8v-26.68H154.22zM269.8 26.23V-.44h-90.16v-30h-25.42v86.67h25.42v-30h90.15zM-19.67 29.23V55.9H95.89v-68.35H70.47v41.68h-90.14zM154.22 63.73v72.51H269.8V62.91h-25.42v46.66h-20.48V67.9h-25.1v41.67h-19.14V63.73h-25.43zM77.73 144.26v-43.34l18.16-5.84V65.89l-115.57 39.7v34L95.9 179.25V150.1l-18.16-5.83zM95.89 229.26V202.6H5.74v-30h-25.42v86.68H5.74v-30h90.15zM-19.68 270.93v26.68H95.9v-26.68H-19.68zM38.27 433.14c33.19 0 59.93-26.34 59.93-63.02 0-32.67-21.47-57.51-56.8-57.51h-9.9v58.52h23.1v-31.17c11.07 4.16 17.84 14.32 17.84 29.84 0 22.65-14.36 36.67-34.01 36.67-20.3 0-34.67-14.67-34.67-34.34 0-13.18 5.94-23.68 13.54-28.52L4.42 320.94C-11.1 330.79-22 349.62-22 371.96A61 61 0 00-4.56 415.3a59.96 59.96 0 0019.64 13.27 59.37 59.37 0 0023.2 4.57zM-19.68 448.14v26.67H95.9v-26.67H-19.68zM251.63 533.32l-49.03-30.17h67.18v-26.67H154.22v26.67l51.34 31.66-51.34 31.68v26.67h115.57V566.5h-67.2l49.04-30.17v-3zM95.89 593.16v-46.68c0-32.16-25.1-56.67-57.8-56.67-32.68 0-57.77 24.5-57.77 56.67v46.68H95.89zM325.81 555c0 20.16 12.88 39.16 35.17 39.16 22.12 0 30.37-17 35.15-34.34 4.8-17.5 7.6-24.17 14.7-24.17 4.46 0 9.42 3.16 9.42 15.84 0 13.16-6.44 20.32-16.02 24.49L417.44 599c17-6.51 28.56-22.18 28.56-46.7 0-25.33-13.2-43.32-35.5-43.32-24.43 0-30.54 19.83-35.82 37.5-5.45 18.17-9.08 21-14.37 21-4.62 0-8.74-4.16-8.74-12.49 0-10.67 5.11-16.18 13.37-20.18l-13.04-22.5c-17.01 8.5-26.09 23.51-26.09 42.68zM332.72 412.27a58.7 58.7 0 00-6.92 28.54c0 35.17 26.09 60.67 60.1 60.67 34 0 60.1-25.5 60.1-60.67 0-21.34-10.4-40-26.75-50.02l-13.21 23c8.91 5 14.2 15.18 14.2 27.02 0 20.67-13.7 34-34.34 34-20.64 0-34.34-13.33-34.34-34 0-11.84 5.28-21.86 14.2-27.01l-13.21-23.01a58.05 58.05 0 00-19.83 21.48zM269.78 466.47V437.3l-18.16-5.82v-43.35l18.16-5.84v-29.17L154.22 392.8v34l115.56 39.67zM372.36 314.93v36.7l-44.25-.01v26.67h115.57v-26.67h-45.9v-36.69h45.9v-26.67H328.11v26.67h44.25zM269.78 316.46h-37.97v-12.68l37.97-22V253.1l-42.43 24.83a38.4 38.4 0 00-13.76-15.5 37.88 37.88 0 00-19.75-6 39.13 39.13 0 00-15.18 3.03 39.6 39.6 0 00-21.45 21.66 40.29 40.29 0 00-3 15.33v46.68h115.57v-26.67zM335.92 178.88a61.12 61.12 0 00-10.12 33.73 60.7 60.7 0 004.44 23.3c3 7.39 7.42 14.1 13.02 19.75a59.5 59.5 0 0019.56 13.14 58.96 58.96 0 0023.08 4.48c11.88 0 23.5-3.56 33.39-10.23a60.56 60.56 0 0022.13-27.24 61.22 61.22 0 003.42-35.06 60.9 60.9 0 00-16.45-31.09 59.94 59.94 0 00-30.78-16.6 59.42 59.42 0 00-34.72 3.47 60.2 60.2 0 00-26.97 22.35zM216.29 213.93l53.49-37.34v-30.35l-59.27 41.02-56.3-39.35v30.36l50.2 35.66h-50.2v26.67h115.57v-26.67h-53.5zM335.92 47.52a61.12 61.12 0 00-10.12 33.72 60.72 60.72 0 004.44 23.3c3 7.4 7.42 14.1 13.01 19.76a59.47 59.47 0 0019.57 13.14 58.99 58.99 0 0023.07 4.48c11.89 0 23.51-3.56 33.4-10.23a60.54 60.54 0 0022.13-27.25 61.24 61.24 0 003.41-35.07 60.9 60.9 0 00-16.45-31.07 59.6 59.6 0 00-65.5-13.15 60.29 60.29 0 00-26.96 22.37zM418.25-62.8v41.68h-90.14V5.55h115.57v-68.34h-25.43z"/></mask><path d="M205.4-316v58.52h23.11v-31.16c11.06 4.15 17.83 14.32 17.83 29.83 0 22.65-14.36 36.67-34 36.67-20.31 0-34.68-14.67-34.68-34.34 0-13.17 5.95-23.67 13.54-28.51l-12.88-22.65c-15.52 9.82-26.41 28.65-26.41 50.99a61 61 0 0017.44 43.35 59.95 59.95 0 0019.64 13.26 59.38 59.38 0 0023.19 4.57c33.18 0 59.92-26.34 59.92-63.02 0-32.67-21.46-57.51-56.8-57.51h-9.9zM269.8-115.46h-62.74l62.72-45v-20H154.22v26.66h62.73l-62.73 45v20.01h115.57v-26.67zM154.22-68.79v26.68H269.8v-26.68H154.22zM269.8 26.23V-.44h-90.16v-30h-25.42v86.67h25.42v-30h90.15zM-19.67 29.23V55.9H95.89v-68.35H70.47v41.68h-90.14zM154.22 63.73v72.51H269.8V62.91h-25.42v46.66h-20.48V67.9h-25.1v41.67h-19.14V63.73h-25.43zM77.73 144.26v-43.34l18.16-5.84V65.89l-115.57 39.7v34L95.9 179.25V150.1l-18.16-5.83zM95.89 229.26V202.6H5.74v-30h-25.42v86.68H5.74v-30h90.15zM-19.68 270.93v26.68H95.9v-26.68H-19.68zM38.27 433.14c33.19 0 59.93-26.34 59.93-63.02 0-32.67-21.47-57.51-56.8-57.51h-9.9v58.52h23.1v-31.17c11.07 4.16 17.84 14.32 17.84 29.84 0 22.65-14.36 36.67-34.01 36.67-20.3 0-34.67-14.67-34.67-34.34 0-13.18 5.94-23.68 13.54-28.52L4.42 320.94C-11.1 330.79-22 349.62-22 371.96A61 61 0 00-4.56 415.3a59.96 59.96 0 0019.64 13.27 59.37 59.37 0 0023.2 4.57zM-19.68 448.14v26.67H95.9v-26.67H-19.68zM251.63 533.32l-49.03-30.17h67.18v-26.67H154.22v26.67l51.34 31.66-51.34 31.68v26.67h115.57V566.5h-67.2l49.04-30.17v-3zM95.89 593.16v-46.68c0-32.16-25.1-56.67-57.8-56.67-32.68 0-57.77 24.5-57.77 56.67v46.68H95.89zM325.81 555c0 20.16 12.88 39.16 35.17 39.16 22.12 0 30.37-17 35.15-34.34 4.8-17.5 7.6-24.17 14.7-24.17 4.46 0 9.42 3.16 9.42 15.84 0 13.16-6.44 20.32-16.02 24.49L417.44 599c17-6.51 28.56-22.18 28.56-46.7 0-25.33-13.2-43.32-35.5-43.32-24.43 0-30.54 19.83-35.82 37.5-5.45 18.17-9.08 21-14.37 21-4.62 0-8.74-4.16-8.74-12.49 0-10.67 5.11-16.18 13.37-20.18l-13.04-22.5c-17.01 8.5-26.09 23.51-26.09 42.68zM332.72 412.27a58.7 58.7 0 00-6.92 28.54c0 35.17 26.09 60.67 60.1 60.67 34 0 60.1-25.5 60.1-60.67 0-21.34-10.4-40-26.75-50.02l-13.21 23c8.91 5 14.2 15.18 14.2 27.02 0 20.67-13.7 34-34.34 34-20.64 0-34.34-13.33-34.34-34 0-11.84 5.28-21.86 14.2-27.01l-13.21-23.01a58.05 58.05 0 00-19.83 21.48zM269.78 466.47V437.3l-18.16-5.82v-43.35l18.16-5.84v-29.17L154.22 392.8v34l115.56 39.67zM372.36 314.93v36.7l-44.25-.01v26.67h115.57v-26.67h-45.9v-36.69h45.9v-26.67H328.11v26.67h44.25zM269.78 316.46h-37.97v-12.68l37.97-22V253.1l-42.43 24.83a38.4 38.4 0 00-13.76-15.5 37.88 37.88 0 00-19.75-6 39.13 39.13 0 00-15.18 3.03 39.6 39.6 0 00-21.45 21.66 40.29 40.29 0 00-3 15.33v46.68h115.57v-26.67zM335.92 178.88a61.12 61.12 0 00-10.12 33.73 60.7 60.7 0 004.44 23.3c3 7.39 7.42 14.1 13.02 19.75a59.5 59.5 0 0019.56 13.14 58.96 58.96 0 0023.08 4.48c11.88 0 23.5-3.56 33.39-10.23a60.56 60.56 0 0022.13-27.24 61.22 61.22 0 003.42-35.06 60.9 60.9 0 00-16.45-31.09 59.94 59.94 0 00-30.78-16.6 59.42 59.42 0 00-34.72 3.47 60.2 60.2 0 00-26.97 22.35zM216.29 213.93l53.49-37.34v-30.35l-59.27 41.02-56.3-39.35v30.36l50.2 35.66h-50.2v26.67h115.57v-26.67h-53.5zM335.92 47.52a61.12 61.12 0 00-10.12 33.72 60.72 60.72 0 004.44 23.3c3 7.4 7.42 14.1 13.01 19.76a59.47 59.47 0 0019.57 13.14 58.99 58.99 0 0023.07 4.48c11.89 0 23.51-3.56 33.4-10.23a60.54 60.54 0 0022.13-27.25 61.24 61.24 0 003.41-35.07 60.9 60.9 0 00-16.45-31.07 59.6 59.6 0 00-65.5-13.15 60.29 60.29 0 00-26.96 22.37zM418.25-62.8v41.68h-90.14V5.55h115.57v-68.34h-25.43z" stroke="#fff" stroke-width="10" mask="url(#d)"/></g><g opacity=".6"><mask id="e" fill="#fff"><path d="M205.4 612v58.52h23.11v-31.16c11.06 4.15 17.83 14.32 17.83 29.83 0 22.65-14.36 36.67-34 36.67-20.31 0-34.68-14.67-34.68-34.34 0-13.17 5.95-23.67 13.54-28.51l-12.88-22.65c-15.52 9.82-26.41 28.65-26.41 50.99a61 61 0 0017.44 43.35 59.95 59.95 0 0019.64 13.26 59.38 59.38 0 0023.19 4.57c33.18 0 59.92-26.33 59.92-63.02 0-32.67-21.46-57.51-56.8-57.51h-9.9zM269.8 812.54h-62.74l62.72-45v-20H154.22v26.66h62.73l-62.73 45v20.01h115.57v-26.67zM154.22 859.21v26.68H269.8v-26.68H154.22zM269.8 954.23v-26.67h-90.16v-30h-25.42v86.67h25.42v-30h90.15zM-19.67 957.23v26.67H95.89v-68.35H70.47v41.68h-90.14zM154.22 991.73v72.51H269.8v-73.33h-25.42v46.66h-20.48V995.9h-25.1v41.67h-19.14v-45.84h-25.43zM77.73 1072.26v-43.34l18.16-5.84v-29.19l-115.57 39.7v34l115.57 39.66v-29.16l-18.16-5.83zM95.89 1157.26v-26.67H5.74v-29.99h-25.42v86.67H5.74v-30.01h90.15zM-19.68 1198.93v26.67H95.9v-26.67H-19.68zM38.27 1361.14c33.19 0 59.93-26.34 59.93-63.02 0-32.67-21.47-57.51-56.8-57.51h-9.9v58.52h23.1v-31.17c11.07 4.16 17.84 14.32 17.84 29.84 0 22.65-14.36 36.67-34.01 36.67-20.3 0-34.67-14.67-34.67-34.34 0-13.18 5.94-23.68 13.54-28.52l-12.88-22.67c-15.52 9.85-26.42 28.68-26.42 51.02a60.95 60.95 0 0017.44 43.34 59.56 59.56 0 0042.83 17.84zM-19.68 1376.14v26.67H95.9v-26.67H-19.68zM251.63 1461.32l-49.03-30.17h67.18v-26.67H154.22v26.67l51.34 31.66-51.34 31.68v26.67h115.57v-26.67h-67.2l49.04-30.17v-3zM95.89 1521.16v-46.68c0-32.16-25.1-56.67-57.8-56.67-32.68 0-57.77 24.51-57.77 56.67v46.68H95.89zM325.81 1482.99c0 20.17 12.88 39.17 35.17 39.17 22.12 0 30.37-16.99 35.15-34.34 4.8-17.51 7.6-24.17 14.7-24.17 4.46 0 9.42 3.16 9.42 15.84 0 13.16-6.44 20.32-16.02 24.49l13.21 23.02c17-6.51 28.56-22.18 28.56-46.69 0-25.34-13.2-43.33-35.5-43.33-24.43 0-30.54 19.83-35.82 37.5-5.45 18.17-9.08 21.01-14.37 21.01-4.62 0-8.74-4.17-8.74-12.5 0-10.67 5.11-16.18 13.37-20.18l-13.04-22.5c-17.01 8.51-26.09 23.51-26.09 42.68zM332.72 1340.27a58.72 58.72 0 00-6.92 28.54c0 35.17 26.09 60.67 60.1 60.67 34 0 60.1-25.5 60.1-60.67 0-21.34-10.4-40-26.75-50.02l-13.21 23.01c8.91 4.99 14.2 15.17 14.2 27.01 0 20.67-13.7 34-34.34 34-20.64 0-34.34-13.33-34.34-34 0-11.84 5.28-21.86 14.2-27.01l-13.21-23.01a58 58 0 00-19.83 21.48zM269.78 1394.47v-29.17l-18.16-5.83v-43.34l18.16-5.84v-29.17l-115.56 39.68v34l115.56 39.67zM372.36 1242.93v36.7l-44.25-.01v26.67h115.57v-26.67h-45.9v-36.69h45.9v-26.67H328.11v26.67h44.25zM269.78 1244.46h-37.97v-12.68l37.97-22v-28.68l-42.43 24.83a38.46 38.46 0 00-13.76-15.51 37.88 37.88 0 00-19.75-5.98 39.17 39.17 0 00-15.18 3.02 39.85 39.85 0 00-21.45 21.66 40.27 40.27 0 00-3 15.33v46.68h115.57v-26.67zM335.92 1106.88a61.14 61.14 0 00-10.12 33.73 60.7 60.7 0 004.44 23.3c3 7.39 7.42 14.1 13.02 19.75a59.46 59.46 0 0019.56 13.14 58.96 58.96 0 0023.08 4.48c11.88 0 23.5-3.56 33.39-10.23a60.57 60.57 0 0022.13-27.24 61.23 61.23 0 00-13.03-66.15 59.94 59.94 0 00-30.78-16.59 59.36 59.36 0 00-34.72 3.46 60.19 60.19 0 00-26.97 22.35zM216.29 1141.93l53.49-37.34v-30.35l-59.27 41.02-56.3-39.35v30.36l50.2 35.66h-50.2v26.67h115.57v-26.67h-53.5zM335.92 975.52a61.12 61.12 0 00-10.12 33.72 60.69 60.69 0 004.44 23.3c3 7.39 7.42 14.11 13.01 19.76a59.57 59.57 0 0019.57 13.13 58.98 58.98 0 0023.07 4.49c11.89 0 23.51-3.56 33.4-10.23a60.59 60.59 0 0022.13-27.25 61.23 61.23 0 003.41-35.07 60.9 60.9 0 00-16.45-31.07 59.6 59.6 0 00-65.5-13.15 60.29 60.29 0 00-26.96 22.37zM418.25 865.2v41.68h-90.14v26.67h115.57v-68.34h-25.43z"/></mask><path d="M205.4 612v58.52h23.11v-31.16c11.06 4.15 17.83 14.32 17.83 29.83 0 22.65-14.36 36.67-34 36.67-20.31 0-34.68-14.67-34.68-34.34 0-13.17 5.95-23.67 13.54-28.51l-12.88-22.65c-15.52 9.82-26.41 28.65-26.41 50.99a61 61 0 0017.44 43.35 59.95 59.95 0 0019.64 13.26 59.38 59.38 0 0023.19 4.57c33.18 0 59.92-26.33 59.92-63.02 0-32.67-21.46-57.51-56.8-57.51h-9.9zM269.8 812.54h-62.74l62.72-45v-20H154.22v26.66h62.73l-62.73 45v20.01h115.57v-26.67zM154.22 859.21v26.68H269.8v-26.68H154.22zM269.8 954.23v-26.67h-90.16v-30h-25.42v86.67h25.42v-30h90.15zM-19.67 957.23v26.67H95.89v-68.35H70.47v41.68h-90.14zM154.22 991.73v72.51H269.8v-73.33h-25.42v46.66h-20.48V995.9h-25.1v41.67h-19.14v-45.84h-25.43zM77.73 1072.26v-43.34l18.16-5.84v-29.19l-115.57 39.7v34l115.57 39.66v-29.16l-18.16-5.83zM95.89 1157.26v-26.67H5.74v-29.99h-25.42v86.67H5.74v-30.01h90.15zM-19.68 1198.93v26.67H95.9v-26.67H-19.68zM38.27 1361.14c33.19 0 59.93-26.34 59.93-63.02 0-32.67-21.47-57.51-56.8-57.51h-9.9v58.52h23.1v-31.17c11.07 4.16 17.84 14.32 17.84 29.84 0 22.65-14.36 36.67-34.01 36.67-20.3 0-34.67-14.67-34.67-34.34 0-13.18 5.94-23.68 13.54-28.52l-12.88-22.67c-15.52 9.85-26.42 28.68-26.42 51.02a60.95 60.95 0 0017.44 43.34 59.56 59.56 0 0042.83 17.84zM-19.68 1376.14v26.67H95.9v-26.67H-19.68zM251.63 1461.32l-49.03-30.17h67.18v-26.67H154.22v26.67l51.34 31.66-51.34 31.68v26.67h115.57v-26.67h-67.2l49.04-30.17v-3zM95.89 1521.16v-46.68c0-32.16-25.1-56.67-57.8-56.67-32.68 0-57.77 24.51-57.77 56.67v46.68H95.89zM325.81 1482.99c0 20.17 12.88 39.17 35.17 39.17 22.12 0 30.37-16.99 35.15-34.34 4.8-17.51 7.6-24.17 14.7-24.17 4.46 0 9.42 3.16 9.42 15.84 0 13.16-6.44 20.32-16.02 24.49l13.21 23.02c17-6.51 28.56-22.18 28.56-46.69 0-25.34-13.2-43.33-35.5-43.33-24.43 0-30.54 19.83-35.82 37.5-5.45 18.17-9.08 21.01-14.37 21.01-4.62 0-8.74-4.17-8.74-12.5 0-10.67 5.11-16.18 13.37-20.18l-13.04-22.5c-17.01 8.51-26.09 23.51-26.09 42.68zM332.72 1340.27a58.72 58.72 0 00-6.92 28.54c0 35.17 26.09 60.67 60.1 60.67 34 0 60.1-25.5 60.1-60.67 0-21.34-10.4-40-26.75-50.02l-13.21 23.01c8.91 4.99 14.2 15.17 14.2 27.01 0 20.67-13.7 34-34.34 34-20.64 0-34.34-13.33-34.34-34 0-11.84 5.28-21.86 14.2-27.01l-13.21-23.01a58 58 0 00-19.83 21.48zM269.78 1394.47v-29.17l-18.16-5.83v-43.34l18.16-5.84v-29.17l-115.56 39.68v34l115.56 39.67zM372.36 1242.93v36.7l-44.25-.01v26.67h115.57v-26.67h-45.9v-36.69h45.9v-26.67H328.11v26.67h44.25zM269.78 1244.46h-37.97v-12.68l37.97-22v-28.68l-42.43 24.83a38.46 38.46 0 00-13.76-15.51 37.88 37.88 0 00-19.75-5.98 39.17 39.17 0 00-15.18 3.02 39.85 39.85 0 00-21.45 21.66 40.27 40.27 0 00-3 15.33v46.68h115.57v-26.67zM335.92 1106.88a61.14 61.14 0 00-10.12 33.73 60.7 60.7 0 004.44 23.3c3 7.39 7.42 14.1 13.02 19.75a59.46 59.46 0 0019.56 13.14 58.96 58.96 0 0023.08 4.48c11.88 0 23.5-3.56 33.39-10.23a60.57 60.57 0 0022.13-27.24 61.23 61.23 0 00-13.03-66.15 59.94 59.94 0 00-30.78-16.59 59.36 59.36 0 00-34.72 3.46 60.19 60.19 0 00-26.97 22.35zM216.29 1141.93l53.49-37.34v-30.35l-59.27 41.02-56.3-39.35v30.36l50.2 35.66h-50.2v26.67h115.57v-26.67h-53.5zM335.92 975.52a61.12 61.12 0 00-10.12 33.72 60.69 60.69 0 004.44 23.3c3 7.39 7.42 14.11 13.01 19.76a59.57 59.57 0 0019.57 13.13 58.98 58.98 0 0023.07 4.49c11.89 0 23.51-3.56 33.4-10.23a60.59 60.59 0 0022.13-27.25 61.23 61.23 0 003.41-35.07 60.9 60.9 0 00-16.45-31.07 59.6 59.6 0 00-65.5-13.15 60.29 60.29 0 00-26.96 22.37zM418.25 865.2v41.68h-90.14v26.67h115.57v-68.34h-25.43z" stroke="#fff" stroke-width="10" mask="url(#e)"/></g></g></g><defs><linearGradient id="paint0_linear" x1="549" y1="0" x2="549" y2="1281" gradientUnits="userSpaceOnUse"><stop stop-color="#F7F7F7"/><stop offset="1" stop-color="#fff" stop-opacity="0"/></linearGradient><linearGradient id="paint1_linear" x1="548" y1="0" x2="548" y2="1281" gradientUnits="userSpaceOnUse"><stop stop-color="#F7F7F7"/><stop offset="1" stop-color="#fff" stop-opacity="0"/></linearGradient></defs></svg>