<svg width="1920" height="563" fill="none" xmlns="http://www.w3.org/2000/svg"><mask id="a" maskUnits="userSpaceOnUse" x="-2" y="0" width="1923" height="563"><path fill="#F7F7F7" d="M-2 0h1923v563H-2z"/></mask><g mask="url(#a)" fill-rule="evenodd" clip-rule="evenodd" fill="#fff"><path d="M199.42 718.14c-29.55 0-49.42-22.5-49.42-51.6 0-23.1 13.16-35.53 25.73-41.8l2.28-1.15 11.74 24.8-2.43 1.01c-6.37 2.65-11.65 9.55-11.65 17.14 0 13.33 10.18 22.8 23.75 22.8s23.75-9.47 23.75-22.8c0-7.59-5.28-14.5-11.65-17.14l-2.43-1 11.74-24.81 2.28 1.14c12.29 6.14 25.73 18.71 25.73 41.81 0 29.11-20.01 51.6-49.42 51.6zM155 666.54c0 26.66 17.94 46.6 44.42 46.6 26.35 0 44.42-19.94 44.42-46.6 0-19.29-10.3-30.24-20.7-36.13l-7.35 15.52c6.95 3.92 12.38 11.78 12.38 20.61 0 16.33-12.67 27.8-28.75 27.8s-28.75-11.47-28.75-27.8c0-8.83 5.43-16.69 12.38-20.6l-7.35-15.54c-10.6 5.98-20.7 16.82-20.7 36.14zm-3.5-55.35v-28.4h95.7v28.4h-95.7zm5-5h85.7v-18.4h-85.7v18.4zm-5-37.7v-79.12h25.4v25.3h70.3v28.39h-70.3v25.43h-25.4zm5-5h15.4v-25.43h70.3v-18.4h-70.3v-25.3h-15.4v69.13zm-5-76.7v-32.37l31-18.28-31-18.02v-32.5l57.35 36.31h38.36v28.4h-38.36l-57.35 36.45zm5-9.11l50.9-32.36h34.8v-18.39h-34.8l-50.9-32.23v20.54l35.9 20.87-35.9 21.16v20.4zm150.97 28.75c-16.95 0-31.33-14.4-31.33-38.68 0-15.06 4.5-28.3 13.25-38.48l1.54-1.8 20.66 15.8-1.65 2a40.2 40.2 0 00-8.81 24.93c0 3.12.63 4.98 1.36 5.98.65.9 1.5 1.31 2.67 1.31.32 0 .77-.1 1.44-1.1.71-1.05 1.38-2.74 2.04-5.09.63-2.22 1.2-4.81 1.84-7.69l.08-.38c.67-3 1.4-6.26 2.3-9.54 1.8-6.51 4.4-13.36 8.9-18.59 4.6-5.34 11.08-8.88 20.25-8.88 9.78 0 18.1 3.64 23.93 10.68 5.78 7 8.9 17.07 8.9 29.63 0 18.94-5.91 32.36-15.1 41.98l-1.5 1.56-21.73-15.33 2.1-2.1a38.49 38.49 0 0011.24-27.2c0-3.73-.74-6.47-1.76-8.19-.99-1.66-2.13-2.23-3.22-2.23-.5 0-1 .18-1.68 1.14-.73 1.05-1.4 2.72-2.06 5.07a131.3 131.3 0 00-1.86 8l-.01.07c-.64 3.01-1.33 6.28-2.21 9.57-1.75 6.53-4.29 13.4-8.84 18.67-4.66 5.37-11.29 8.89-20.74 8.89zm-26.33-38.68c0 22.23 12.8 33.68 26.33 33.68 8.02 0 13.26-2.9 16.96-7.17 3.8-4.38 6.1-10.36 7.79-16.68.84-3.14 1.5-6.29 2.15-9.31l.04-.19c.61-2.92 1.21-5.75 1.9-8.2.7-2.47 1.55-4.82 2.78-6.58 1.3-1.85 3.18-3.28 5.78-3.28 3.26 0 5.86 1.88 7.52 4.67 1.63 2.74 2.46 6.46 2.46 10.75a43.46 43.46 0 01-10.69 28.58l13.4 9.45c7.41-8.49 12.28-20.22 12.28-36.94 0-11.79-2.93-20.6-7.76-26.44-4.77-5.77-11.62-8.87-20.07-8.87-7.69 0-12.8 2.88-16.46 7.14-3.77 4.38-6.12 10.36-7.87 16.67a179.5 179.5 0 00-2.23 9.28l-.1.44c-.62 2.82-1.23 5.55-1.9 7.91-.7 2.46-1.53 4.78-2.7 6.52-1.21 1.81-3.02 3.31-5.6 3.31a8.03 8.03 0 01-6.71-3.38c-1.58-2.19-2.31-5.23-2.31-8.9 0-8.73 2.78-18.3 8.37-26.06l-12.81-9.8c-6.9 8.9-10.55 20.28-10.55 33.4zm26.33-296.9c-16.95 0-31.33-14.4-31.33-38.68 0-15.06 4.5-28.31 13.25-38.49l1.54-1.79 20.66 15.8-1.65 2a40.2 40.2 0 00-8.81 24.93c0 3.12.63 4.97 1.36 5.98.65.9 1.5 1.3 2.67 1.3.32 0 .77-.1 1.44-1.09.71-1.06 1.38-2.74 2.04-5.1.63-2.21 1.2-4.8 1.84-7.69l.08-.37c.67-3 1.4-6.27 2.3-9.55 1.8-6.5 4.4-13.35 8.9-18.58 4.6-5.35 11.08-8.88 20.25-8.88 9.78 0 18.1 3.63 23.93 10.68 5.78 6.99 8.9 17.07 8.9 29.62 0 18.94-5.91 32.36-15.1 41.99l-1.5 1.56-21.73-15.33 2.1-2.1a38.49 38.49 0 0011.24-27.2c0-3.73-.74-6.48-1.76-8.2-.99-1.66-2.13-2.22-3.22-2.22-.5 0-1 .18-1.68 1.14-.73 1.04-1.4 2.72-2.06 5.07-.65 2.29-1.22 4.98-1.86 7.98l-.01.09c-.64 3-1.33 6.28-2.21 9.57-1.75 6.53-4.29 13.4-8.84 18.66-4.66 5.37-11.29 8.9-20.74 8.9zm-26.33-38.68c0 22.23 12.8 33.67 26.33 33.67 8.02 0 13.26-2.9 16.96-7.17 3.8-4.38 6.1-10.36 7.79-16.67.84-3.15 1.5-6.3 2.15-9.31l.04-.2c.61-2.92 1.21-5.75 1.9-8.2.7-2.47 1.55-4.81 2.78-6.58 1.3-1.85 3.18-3.27 5.78-3.27 3.26 0 5.86 1.88 7.52 4.67 1.63 2.73 2.46 6.45 2.46 10.75a43.45 43.45 0 01-10.69 28.57l13.4 9.46c7.41-8.5 12.28-20.23 12.28-36.95 0-11.78-2.93-20.6-7.76-26.44-4.77-5.77-11.62-8.86-20.07-8.86-7.69 0-12.8 2.87-16.46 7.14-3.77 4.38-6.12 10.36-7.87 16.66-.87 3.13-1.57 6.28-2.23 9.28l-.1.45c-.62 2.82-1.23 5.54-1.9 7.9-.7 2.46-1.53 4.78-2.7 6.53-1.21 1.81-3.02 3.3-5.6 3.3a8.03 8.03 0 01-6.71-3.37c-1.58-2.2-2.31-5.23-2.31-8.91 0-8.73 2.78-18.29 8.37-26.06l-12.81-9.8c-6.9 8.9-10.55 20.28-10.55 33.4zm26.33-51.96c-16.95 0-31.33-14.4-31.33-38.68 0-15.06 4.5-28.31 13.25-38.48l1.54-1.8 20.66 15.8-1.65 2a40.2 40.2 0 00-8.81 24.93c0 3.12.63 4.97 1.36 5.98.65.9 1.5 1.31 2.67 1.31.32 0 .77-.1 1.44-1.1.71-1.05 1.38-2.74 2.04-5.1.63-2.21 1.2-4.8 1.84-7.68l.08-.38c.67-3 1.4-6.27 2.3-9.54 1.8-6.52 4.4-13.36 8.9-18.59C326.35 3.53 332.83 0 342 0c9.78 0 18.1 3.64 23.93 10.68 5.78 6.99 8.9 17.07 8.9 29.63 0 18.93-5.91 32.36-15.1 41.98l-1.5 1.56-21.73-15.33 2.1-2.1a38.48 38.48 0 0011.24-27.2c0-3.73-.74-6.47-1.76-8.19-.99-1.66-2.13-2.23-3.22-2.23-.5 0-1 .18-1.68 1.14-.73 1.05-1.4 2.72-2.06 5.07-.65 2.3-1.22 4.98-1.86 7.99l-.01.08c-.64 3-1.33 6.28-2.21 9.57-1.75 6.53-4.29 13.4-8.84 18.66-4.66 5.38-11.29 8.9-20.74 8.9zm-26.33-38.68c0 22.23 12.8 33.68 26.33 33.68 8.02 0 13.26-2.9 16.96-7.17 3.8-4.38 6.1-10.36 7.79-16.68.84-3.14 1.5-6.3 2.15-9.31l.04-.2c.61-2.91 1.21-5.74 1.9-8.2.7-2.46 1.55-4.8 2.78-6.57 1.3-1.85 3.18-3.28 5.78-3.28 3.26 0 5.86 1.88 7.52 4.67 1.63 2.74 2.46 6.45 2.46 10.75a43.46 43.46 0 01-10.69 28.58l13.4 9.45c7.41-8.49 12.28-20.22 12.28-36.94 0-11.79-2.93-20.61-7.76-26.44C357.31 8.09 350.46 5 342.01 5c-7.69 0-12.8 2.87-16.46 7.14-3.77 4.38-6.12 10.36-7.87 16.66-.87 3.14-1.57 6.28-2.23 9.29l-.1.44c-.62 2.82-1.23 5.55-1.9 7.91-.7 2.46-1.53 4.78-2.7 6.52-1.21 1.81-3.02 3.31-5.6 3.31a8.03 8.03 0 01-6.71-3.38c-1.58-2.19-2.31-5.23-2.31-8.91 0-8.72 2.78-18.28 8.37-26.06L291.7 8.13c-6.9 8.9-10.55 20.28-10.55 33.4zm-3.64 671.99V659.6c0-9.55 3.12-16.84 8-21.76a24.76 24.76 0 0117.62-7.26c9.44 0 16.71 4.46 20.6 10.88 4.06-7.53 12.6-12.65 22.37-12.65 7.15 0 13.97 2.4 19.01 7.36 5.06 4.99 8.1 12.33 8.1 21.8v55.53h-95.7zm5-5h85.7v-50.54c0-8.36-2.65-14.34-6.6-18.23-3.98-3.91-9.47-5.93-15.5-5.93-10.37 0-18.42 6.88-19.7 15.15l-4.92.16c-1.64-7.39-8.21-13.54-18.36-13.54-5.1 0-10.22 1.9-14.07 5.79-3.83 3.85-6.55 9.82-6.55 18.23v48.9zm-5-95.6v-28.8h55.67c4.89 0 8.83-1.45 11.53-4.09 2.7-2.62 4.47-6.71 4.47-12.59 0-5.73-1.76-9.79-4.47-12.42-2.71-2.65-6.66-4.12-11.53-4.12H277.5v-28.66h56.35c11.8 0 22.13 3.6 29.51 11.25 7.37 7.65 11.48 19.02 11.48 33.95 0 15.07-4.14 26.5-11.5 34.18-7.38 7.7-17.69 11.3-29.35 11.3h-56.5zm5-5h51.49c10.63 0 19.5-3.27 25.73-9.76 6.24-6.5 10.12-16.55 10.12-30.72 0-14.04-3.85-24.02-10.08-30.48-6.22-6.45-15.13-9.72-25.9-9.72H282.5v18.66h50.67c5.88 0 11.18 1.8 15.02 5.54 3.86 3.76 5.98 9.22 5.98 16 0 6.9-2.1 12.4-5.98 16.17-3.85 3.76-9.16 5.5-15.02 5.5H282.5v18.8zm-5-195.8v-28.4h95.7v28.4h-95.7zm5-5h85.7v-18.4h-85.7v18.4zm-5-42.87v-27.84l44.8-32.95h-44.8v-28.53h95.7v26.35l-47.33 34.58h47.34v28.39H277.5zm5-5h85.7v-18.4h-57.65l57.66-42.11v-18.81H282.5v18.53h55.02l-55.02 40.48v20.31zm-5-103.83v-71.5h25.4v43.1h9.14v-42.15h25.4v42.16h10.37V183.9h25.4v71.5H277.5zm5-5h85.7v-61.5h-15.4v43.1h-20.36v-42.15h-15.4v42.16H297.9V188.9h-15.4v61.5zm14.72 439.7v-25.2c0-2.94.97-5.59 2.78-7.52a9.72 9.72 0 017.2-3.01 9.9 9.9 0 017.3 3 10.74 10.74 0 012.81 7.52v25.21h-20.1zm5-5h10.1v-20.2c0-1.83-.6-3.2-1.44-4.08a4.91 4.91 0 00-3.68-1.45c-1.53 0-2.73.56-3.55 1.44a5.83 5.83 0 00-1.43 4.08v20.21zm29.95 5V664.1c0-3.41 1.1-6.3 3.1-8.37 1.99-2.06 4.7-3.11 7.56-3.11 3.05 0 5.79 1.08 7.75 3.2 1.94 2.1 2.9 5 2.9 8.27v26.03h-21.31zm5-5h11.32V664.1c0-2.31-.67-3.9-1.58-4.89a5.31 5.31 0 00-4.08-1.6c-1.63 0-3 .6-3.97 1.6-.96.99-1.7 2.58-1.7 4.88v21.03zm114.25-57.62c-29.55 0-49.42-22.5-49.42-51.6 0-23.09 13.16-35.52 25.73-41.8l2.28-1.15 11.74 24.81-2.43 1c-6.37 2.65-11.65 9.55-11.65 17.15 0 13.32 10.18 22.8 23.75 22.8s23.75-9.48 23.75-22.8c0-7.6-5.28-14.5-11.65-17.14l-2.43-1 11.74-24.82 2.28 1.14c12.29 6.15 25.73 18.71 25.73 41.82 0 29.1-20.01 51.6-49.42 51.6zM407 575.9c0 26.66 17.94 46.6 44.42 46.6 26.35 0 44.42-19.94 44.42-46.6 0-19.29-10.3-30.24-20.7-36.13l-7.35 15.53c6.95 3.91 12.38 11.77 12.38 20.6 0 16.33-12.67 27.8-28.75 27.8s-28.75-11.47-28.75-27.8c0-8.83 5.43-16.69 12.38-20.6l-7.35-15.53c-10.6 5.98-20.7 16.8-20.7 36.14zm44.42-159.69c-29.1 0-49.42-22.03-49.42-51.05 0-29.02 20.33-50.91 49.42-50.91 29.09 0 49.42 21.89 49.42 50.91 0 29.02-20.32 51.05-49.42 51.05zM407 365.16c0 26.47 18.3 46.05 44.42 46.05s44.42-19.57 44.42-46.05c0-26.46-18.3-45.91-44.42-45.91-26.13 0-44.42 19.45-44.42 45.91zm44.42-61.23c-29.1 0-49.42-22.04-49.42-51.05 0-29.03 20.33-50.92 49.42-50.92 29.09 0 49.42 21.9 49.42 50.92 0 29.01-20.32 51.05-49.42 51.05zM407 252.88c0 26.47 18.3 46.05 44.42 46.05s44.42-19.58 44.42-46.05-18.3-45.92-44.42-45.92c-26.13 0-44.42 19.45-44.42 45.92zm26.47 464.3c-16.95 0-31.33-14.39-31.33-38.67 0-15.06 4.5-28.31 13.25-38.48l1.54-1.8 20.66 15.8-1.65 2a40.2 40.2 0 00-8.81 24.93c0 3.12.63 4.97 1.36 5.98.65.9 1.5 1.31 2.67 1.31.32 0 .77-.1 1.44-1.1.71-1.05 1.38-2.74 2.04-5.1.63-2.21 1.2-4.8 1.84-7.68l.08-.38c.67-3 1.4-6.27 2.3-9.54 1.8-6.52 4.4-13.36 8.9-18.59 4.6-5.35 11.08-8.88 20.25-8.88 9.78 0 18.1 3.64 23.93 10.68 5.78 6.99 8.9 17.07 8.9 29.63 0 18.93-5.91 32.36-15.1 41.98l-1.5 1.56-21.73-15.33 2.1-2.1a38.48 38.48 0 0011.24-27.2c0-3.73-.74-6.47-1.76-8.2-.99-1.65-2.13-2.22-3.22-2.22-.5 0-1 .18-1.68 1.14-.73 1.05-1.4 2.72-2.06 5.07-.65 2.3-1.22 4.98-1.86 7.99l-.01.08c-.64 3-1.33 6.28-2.21 9.57-1.75 6.53-4.29 13.4-8.84 18.66-4.66 5.38-11.29 8.9-20.74 8.9zm-26.33-38.67c0 22.23 12.8 33.68 26.33 33.68 8.02 0 13.26-2.9 16.96-7.17 3.8-4.38 6.1-10.36 7.79-16.68.84-3.14 1.5-6.3 2.15-9.31l.04-.2c.61-2.91 1.21-5.74 1.9-8.2.7-2.47 1.55-4.8 2.78-6.57 1.3-1.85 3.18-3.28 5.78-3.28 3.26 0 5.86 1.88 7.52 4.67 1.63 2.74 2.46 6.45 2.46 10.75a43.46 43.46 0 01-10.69 28.57l13.4 9.46c7.41-8.5 12.28-20.23 12.28-36.94 0-11.79-2.93-20.61-7.76-26.44-4.77-5.78-11.62-8.87-20.07-8.87-7.69 0-12.8 2.87-16.46 7.14-3.77 4.38-6.12 10.36-7.87 16.66a179.5 179.5 0 00-2.23 9.29l-.1.44c-.62 2.82-1.23 5.54-1.9 7.91-.7 2.46-1.53 4.78-2.7 6.52-1.21 1.81-3.02 3.31-5.6 3.31a8.03 8.03 0 01-6.71-3.38c-1.58-2.19-2.31-5.23-2.31-8.91 0-8.72 2.78-18.28 8.37-26.06l-12.81-9.79c-6.9 8.9-10.55 20.27-10.55 33.4zm-3.64-157.96v-28.39h33.86V459.5H403.5v-28.4h95.7v28.4h-36.44v32.67h36.45v28.4H403.5zm5-5h85.7v-18.39h-36.44V454.5h36.45v-18.4H408.5v18.4h33.86v42.67H408.5v18.4zm-5-328.53v-28.4h70.3v-36.44h25.4v64.84h-95.7zm5-5h85.7v-54.84h-15.4v36.45h-70.3v18.39zm25.92 199.33c4.2 3.83 10.13 6.06 17 6.06 6.8 0 12.74-2.23 16.95-6.06 4.19-3.81 6.8-9.32 6.8-16.19 0-13.35-10.2-22.11-23.75-22.11-6.87 0-12.81 2.23-17 6.04-4.17 3.8-6.75 9.27-6.75 16.07 0 6.88 2.59 12.39 6.75 16.2zm-3.37 3.7c-5.25-4.8-8.38-11.67-8.38-19.89 0-8.15 3.13-14.99 8.38-19.77 5.23-4.75 12.42-7.34 20.37-7.34 15.83 0 28.75 10.55 28.75 27.11 0 8.23-3.17 15.1-8.44 19.89-5.24 4.77-12.42 7.36-20.31 7.36-7.95 0-15.14-2.59-20.37-7.37zm3.37-115.98c4.2 3.82 10.13 6.06 17 6.06 6.8 0 12.74-2.23 16.95-6.06 4.19-3.81 6.8-9.32 6.8-16.2 0-13.35-10.2-22.1-23.75-22.1-6.87 0-12.81 2.23-17 6.04-4.17 3.79-6.75 9.26-6.75 16.07 0 6.88 2.59 12.38 6.75 16.19zm-3.37 3.69c-5.25-4.8-8.38-11.67-8.38-19.88 0-8.16 3.13-15 8.38-19.77 5.23-4.76 12.42-7.35 20.37-7.35 15.83 0 28.75 10.55 28.75 27.12 0 8.22-3.17 15.1-8.44 19.88-5.24 4.77-12.42 7.37-20.31 7.37-7.95 0-15.14-2.6-20.37-7.37zM1694.42 938.14c-29.55 0-49.42-22.5-49.42-51.6 0-23.1 13.16-35.53 25.73-41.8l2.28-1.15 11.74 24.8-2.43 1.01c-6.37 2.65-11.65 9.55-11.65 17.14 0 13.33 10.18 22.8 23.75 22.8s23.75-9.47 23.75-22.8c0-7.59-5.28-14.5-11.65-17.14l-2.43-1 11.74-24.81 2.28 1.14c12.29 6.14 25.73 18.71 25.73 41.81 0 29.11-20.01 51.6-49.42 51.6zm-44.42-51.6c0 26.66 17.94 46.6 44.42 46.6 26.35 0 44.42-19.94 44.42-46.6 0-19.29-10.31-30.24-20.7-36.13l-7.35 15.52c6.95 3.92 12.38 11.78 12.38 20.61 0 16.33-12.67 27.8-28.75 27.8s-28.75-11.47-28.75-27.8c0-8.83 5.43-16.69 12.38-20.6l-7.35-15.54c-10.59 5.98-20.7 16.82-20.7 36.14zm-3.5-55.35v-28.4h95.71v28.4h-95.71zm5-5h85.71v-18.4h-85.71v18.4zm-5-37.7v-79.12h25.4v25.3h70.31v28.39h-70.31v25.43h-25.4zm5-5h15.4v-25.43h70.31v-18.4h-70.31v-25.3h-15.4v69.13zm-5-76.7v-32.37l31-18.28-31-18.02v-32.5l57.35 36.31h38.36v28.4h-38.36l-57.35 36.45zm5-9.11l50.9-32.36h34.81v-18.39h-34.81l-50.9-32.23v20.54l35.9 20.87-35.9 21.16v20.4zm150.97 28.75c-16.94 0-31.33-14.4-31.33-38.68 0-15.06 4.51-28.3 13.25-38.48l1.54-1.8 20.66 15.8-1.65 2a40.2 40.2 0 00-8.81 24.93c0 3.12.63 4.97 1.36 5.98.65.9 1.5 1.31 2.67 1.31.32 0 .77-.1 1.44-1.1.71-1.05 1.38-2.74 2.04-5.09.63-2.22 1.2-4.81 1.84-7.69l.08-.38c.67-3 1.39-6.26 2.3-9.54 1.81-6.51 4.4-13.36 8.89-18.59 4.6-5.34 11.09-8.88 20.26-8.88 9.78 0 18.1 3.64 23.93 10.68 5.78 7 8.9 17.07 8.9 29.63 0 18.94-5.91 32.36-15.11 41.98l-1.49 1.56-21.73-15.33 2.1-2.1a38.49 38.49 0 0011.24-27.2c0-3.73-.74-6.47-1.76-8.19-.99-1.66-2.13-2.23-3.22-2.23-.49 0-1.01.18-1.68 1.14-.73 1.05-1.4 2.72-2.07 5.07-.64 2.3-1.21 4.99-1.84 8l-.02.07c-.64 3.01-1.33 6.29-2.21 9.57-1.75 6.53-4.29 13.4-8.84 18.66-4.66 5.38-11.29 8.9-20.74 8.9zm-26.33-38.68c0 22.23 12.81 33.68 26.33 33.68 8.02 0 13.26-2.9 16.96-7.17 3.8-4.38 6.1-10.36 7.79-16.68a181.3 181.3 0 002.15-9.31l.04-.19c.61-2.92 1.21-5.75 1.9-8.2.7-2.47 1.55-4.82 2.78-6.58 1.29-1.85 3.17-3.28 5.78-3.28 3.26 0 5.86 1.88 7.52 4.67 1.63 2.74 2.46 6.46 2.46 10.75a43.45 43.45 0 01-10.69 28.58l13.4 9.45c7.41-8.49 12.28-20.22 12.28-36.94 0-11.79-2.93-20.6-7.76-26.44-4.78-5.77-11.62-8.87-20.07-8.87-7.69 0-12.8 2.88-16.46 7.14-3.77 4.38-6.12 10.36-7.87 16.67-.87 3.13-1.57 6.27-2.23 9.28l-.1.44c-.62 2.82-1.23 5.55-1.9 7.91-.69 2.46-1.53 4.78-2.7 6.52-1.22 1.82-3.03 3.31-5.59 3.31a8.03 8.03 0 01-6.72-3.38c-1.58-2.19-2.31-5.23-2.31-8.9 0-8.73 2.78-18.3 8.37-26.06l-12.81-9.8c-6.89 8.9-10.55 20.28-10.55 33.4zm26.33-296.9c-16.94 0-31.33-14.4-31.33-38.68 0-15.06 4.51-28.31 13.25-38.49l1.54-1.79 20.66 15.8-1.65 2a40.2 40.2 0 00-8.81 24.93c0 3.12.63 4.97 1.36 5.98.65.9 1.5 1.3 2.67 1.3.32 0 .77-.1 1.44-1.09.71-1.06 1.38-2.74 2.04-5.1.63-2.21 1.2-4.8 1.84-7.69l.08-.37c.67-3 1.39-6.27 2.3-9.54 1.81-6.52 4.4-13.36 8.89-18.6 4.6-5.34 11.09-8.87 20.26-8.87 9.78 0 18.1 3.63 23.93 10.68 5.78 6.99 8.9 17.07 8.9 29.62 0 18.94-5.91 32.36-15.11 41.99l-1.49 1.56-21.73-15.33 2.1-2.1a38.49 38.49 0 0011.24-27.2c0-3.73-.74-6.48-1.76-8.2-.99-1.66-2.13-2.22-3.22-2.22-.49 0-1.01.18-1.68 1.14-.73 1.04-1.4 2.72-2.07 5.07-.64 2.29-1.21 4.98-1.84 7.99l-.02.08c-.64 3-1.33 6.28-2.21 9.57-1.75 6.53-4.29 13.4-8.84 18.66-4.66 5.37-11.29 8.9-20.74 8.9zm-26.33-38.68c0 22.23 12.81 33.67 26.33 33.67 8.02 0 13.26-2.9 16.96-7.17 3.8-4.38 6.1-10.36 7.79-16.68.84-3.13 1.51-6.29 2.15-9.3l.04-.2c.61-2.92 1.21-5.75 1.9-8.2.7-2.47 1.55-4.81 2.78-6.58 1.29-1.85 3.17-3.27 5.78-3.27 3.26 0 5.86 1.88 7.52 4.67 1.63 2.73 2.46 6.45 2.46 10.75a43.44 43.44 0 01-10.69 28.57l13.4 9.46c7.41-8.5 12.28-20.23 12.28-36.95 0-11.78-2.93-20.6-7.76-26.44-4.78-5.77-11.62-8.86-20.07-8.86-7.69 0-12.8 2.87-16.46 7.14-3.77 4.38-6.12 10.36-7.87 16.66-.87 3.13-1.57 6.28-2.23 9.29l-.1.44a142.7 142.7 0 01-1.9 7.9c-.69 2.46-1.53 4.78-2.7 6.53-1.22 1.81-3.03 3.3-5.59 3.3a8.03 8.03 0 01-6.72-3.37c-1.58-2.2-2.31-5.23-2.31-8.91 0-8.73 2.78-18.29 8.37-26.06l-12.81-9.8c-6.89 8.9-10.55 20.28-10.55 33.4zm26.33-51.96c-16.94 0-31.33-14.4-31.33-38.68 0-15.06 4.51-28.31 13.25-38.48l1.54-1.8 20.66 15.8-1.65 2a40.2 40.2 0 00-8.81 24.93c0 3.12.63 4.97 1.36 5.98.65.9 1.5 1.31 2.67 1.31.32 0 .77-.1 1.44-1.1.71-1.05 1.38-2.74 2.04-5.1.63-2.21 1.2-4.8 1.84-7.68l.08-.38c.67-3 1.39-6.26 2.3-9.54 1.81-6.51 4.4-13.36 8.89-18.59 4.6-5.35 11.09-8.88 20.26-8.88 9.78 0 18.1 3.64 23.93 10.68 5.78 6.99 8.9 17.07 8.9 29.63 0 18.93-5.91 32.36-15.11 41.98l-1.49 1.56-21.73-15.33 2.1-2.1a38.49 38.49 0 0011.24-27.2c0-3.73-.74-6.47-1.76-8.19-.99-1.66-2.13-2.23-3.22-2.23-.49 0-1.01.18-1.68 1.14-.73 1.05-1.4 2.72-2.07 5.07a132 132 0 00-1.84 7.99l-.02.08c-.64 3-1.33 6.28-2.21 9.57-1.75 6.53-4.29 13.4-8.84 18.66-4.66 5.38-11.29 8.9-20.74 8.9zm-26.33-38.68c0 22.23 12.81 33.68 26.33 33.68 8.02 0 13.26-2.9 16.96-7.17 3.8-4.39 6.1-10.36 7.79-16.68.84-3.14 1.51-6.3 2.15-9.31l.04-.2c.61-2.91 1.21-5.74 1.9-8.2.7-2.46 1.55-4.8 2.78-6.57 1.29-1.85 3.17-3.28 5.78-3.28 3.26 0 5.86 1.88 7.52 4.67 1.63 2.74 2.46 6.46 2.46 10.75a43.45 43.45 0 01-10.69 28.58l13.4 9.45c7.41-8.49 12.28-20.22 12.28-36.94 0-11.79-2.93-20.61-7.76-26.44-4.78-5.78-11.62-8.87-20.07-8.87-7.69 0-12.8 2.88-16.46 7.14-3.77 4.38-6.12 10.36-7.87 16.66-.87 3.14-1.57 6.28-2.23 9.29l-.1.44c-.62 2.82-1.23 5.55-1.9 7.91-.69 2.46-1.53 4.78-2.7 6.52-1.22 1.81-3.03 3.31-5.59 3.31a8.03 8.03 0 01-6.72-3.38c-1.58-2.19-2.31-5.23-2.31-8.91 0-8.72 2.78-18.28 8.37-26.06l-12.81-9.79c-6.89 8.9-10.55 20.28-10.55 33.4zm-3.64 671.98v-53.9c0-9.55 3.12-16.84 8-21.76a24.75 24.75 0 0117.62-7.26c9.44 0 16.71 4.46 20.61 10.88 4.05-7.53 12.58-12.65 22.36-12.65 7.15 0 13.97 2.4 19.01 7.36 5.06 4.99 8.11 12.33 8.11 21.8v55.53h-95.71zm5-5h85.71v-50.53c0-8.36-2.67-14.34-6.62-18.23-3.97-3.91-9.46-5.93-15.5-5.93-10.36 0-18.41 6.88-19.7 15.15l-4.91.16c-1.64-7.39-8.21-13.54-18.36-13.54-5.1 0-10.22 1.9-14.07 5.79-3.83 3.85-6.55 9.82-6.55 18.23v48.9zm-5-95.6v-28.8h55.67c4.89 0 8.83-1.44 11.53-4.08 2.7-2.62 4.47-6.71 4.47-12.59 0-5.73-1.76-9.79-4.47-12.42-2.71-2.65-6.66-4.12-11.53-4.12h-55.67v-28.66h56.35c11.8 0 22.13 3.6 29.51 11.25 7.37 7.65 11.48 19.02 11.48 33.95 0 15.07-4.14 26.5-11.51 34.18-7.37 7.7-17.67 11.3-29.34 11.3h-56.49zm5-5h51.49c10.63 0 19.51-3.26 25.73-9.75 6.24-6.5 10.12-16.55 10.12-30.72 0-14.04-3.85-24.02-10.08-30.48-6.22-6.45-15.13-9.72-25.91-9.72h-51.35v18.66h50.67c5.88 0 11.18 1.8 15.02 5.54 3.86 3.76 5.98 9.22 5.98 16 0 6.9-2.11 12.4-5.98 16.17-3.85 3.76-9.16 5.5-15.02 5.5h-50.67v18.8zm-5-195.79v-28.4h95.71v28.4h-95.71zm5-5h85.71v-18.4h-85.71v18.4zm-5-42.87v-27.84l44.79-32.95h-44.79v-28.53h95.71v26.35l-47.34 34.58h47.34v28.39h-95.71zm5-5h85.71v-18.4h-57.66l57.66-42.11v-18.81h-85.71v18.53h55.02l-55.02 40.48v20.31zm-5-103.83v-71.5h25.4v43.1h9.14v-42.15h25.4v42.16h10.37V403.9h25.4v71.5h-95.71zm5-5h85.71v-61.5h-15.4v43.1h-20.37v-42.15h-15.4v42.16h-19.14V408.9h-15.4v61.5zm14.72 439.7v-25.2c0-2.94.97-5.59 2.78-7.52a9.74 9.74 0 017.2-3.01 9.9 9.9 0 017.3 3 10.74 10.74 0 012.81 7.52v25.21h-20.09zm5-5h10.09v-20.2c0-1.83-.59-3.2-1.43-4.08a4.93 4.93 0 00-3.68-1.45 4.7 4.7 0 00-3.55 1.44 5.82 5.82 0 00-1.43 4.08v20.21zm29.95 5V884.1c0-3.41 1.1-6.3 3.1-8.37 1.99-2.06 4.7-3.11 7.56-3.11 3.05 0 5.79 1.08 7.75 3.2 1.94 2.1 2.91 5 2.91 8.27v26.03h-21.32zm5-5h11.32V884.1c0-2.31-.67-3.9-1.58-4.89a5.33 5.33 0 00-4.08-1.6c-1.63 0-3 .6-3.97 1.6-.96.99-1.69 2.58-1.69 4.88v21.03zm114.25-57.62c-29.55 0-49.42-22.5-49.42-51.6 0-23.09 13.16-35.52 25.73-41.8l2.28-1.15 11.74 24.81-2.43 1c-6.37 2.65-11.65 9.55-11.65 17.15 0 13.32 10.18 22.8 23.75 22.8s23.75-9.48 23.75-22.8c0-7.6-5.28-14.5-11.65-17.14l-2.43-1 11.74-24.82 2.28 1.14c12.29 6.15 25.73 18.71 25.73 41.82 0 29.1-20.01 51.6-49.42 51.6zM1902 795.9c0 26.66 17.94 46.6 44.42 46.6 26.35 0 44.42-19.94 44.42-46.6 0-19.29-10.31-30.24-20.7-36.13l-7.35 15.53c6.95 3.91 12.38 11.77 12.38 20.6 0 16.33-12.67 27.8-28.75 27.8s-28.75-11.47-28.75-27.8c0-8.83 5.43-16.69 12.38-20.6l-7.35-15.53c-10.59 5.98-20.7 16.8-20.7 36.14zm44.42-159.69c-29.1 0-49.42-22.03-49.42-51.05 0-29.02 20.33-50.91 49.42-50.91 29.09 0 49.42 21.89 49.42 50.91 0 29.02-20.32 51.05-49.42 51.05zM1902 585.16c0 26.48 18.3 46.05 44.42 46.05s44.42-19.58 44.42-46.05c0-26.46-18.29-45.91-44.42-45.91-26.13 0-44.42 19.45-44.42 45.91zm44.42-61.23c-29.1 0-49.42-22.04-49.42-51.05 0-29.03 20.33-50.92 49.42-50.92 29.09 0 49.42 21.9 49.42 50.92 0 29.01-20.32 51.05-49.42 51.05zM1902 472.88c0 26.47 18.3 46.05 44.42 46.05s44.42-19.58 44.42-46.05-18.29-45.92-44.42-45.92c-26.13 0-44.42 19.45-44.42 45.92zm26.47 464.3c-16.94 0-31.33-14.39-31.33-38.67 0-15.06 4.51-28.31 13.25-38.48l1.54-1.8 20.66 15.8-1.65 2a40.2 40.2 0 00-8.81 24.93c0 3.12.63 4.97 1.36 5.98.65.9 1.5 1.31 2.67 1.31.32 0 .77-.1 1.44-1.1.71-1.05 1.38-2.74 2.04-5.1.63-2.21 1.2-4.8 1.84-7.68l.08-.38c.67-3 1.39-6.27 2.3-9.54 1.81-6.52 4.4-13.36 8.89-18.59 4.6-5.35 11.09-8.88 20.26-8.88 9.78 0 18.1 3.64 23.93 10.68 5.78 6.99 8.9 17.07 8.9 29.63 0 18.93-5.91 32.36-15.11 41.98l-1.49 1.56-21.73-15.33 2.1-2.1a38.48 38.48 0 0011.24-27.2c0-3.73-.74-6.47-1.76-8.2-.99-1.65-2.13-2.22-3.22-2.22-.49 0-1.01.18-1.68 1.14-.73 1.05-1.4 2.72-2.07 5.07-.64 2.3-1.21 4.98-1.84 7.99l-.02.08c-.64 3-1.33 6.28-2.21 9.57-1.75 6.53-4.29 13.4-8.84 18.66-4.66 5.38-11.29 8.9-20.74 8.9zm-26.33-38.67c0 22.23 12.81 33.68 26.33 33.68 8.02 0 13.26-2.9 16.96-7.17 3.8-4.38 6.1-10.36 7.79-16.68.84-3.14 1.51-6.3 2.15-9.31l.04-.2a128.8 128.8 0 011.9-8.2c.7-2.47 1.55-4.8 2.78-6.57 1.29-1.85 3.17-3.28 5.78-3.28 3.26 0 5.86 1.88 7.52 4.67 1.63 2.74 2.46 6.45 2.46 10.75a43.44 43.44 0 01-10.69 28.57l13.4 9.46c7.41-8.5 12.28-20.23 12.28-36.94 0-11.79-2.93-20.61-7.76-26.44-4.78-5.78-11.62-8.87-20.07-8.87-7.69 0-12.8 2.87-16.46 7.14-3.77 4.38-6.12 10.36-7.87 16.66-.87 3.13-1.57 6.28-2.23 9.29l-.1.44a142.7 142.7 0 01-1.9 7.91c-.69 2.46-1.53 4.78-2.7 6.52-1.22 1.81-3.03 3.31-5.59 3.31a8.03 8.03 0 01-6.72-3.38c-1.58-2.19-2.31-5.23-2.31-8.91 0-8.72 2.78-18.28 8.37-26.06l-12.81-9.79c-6.89 8.9-10.55 20.27-10.55 33.4zm-3.64-157.96v-28.39h33.86V679.5h-33.86v-28.4h95.71v28.4h-36.45v32.67h36.45v28.4h-95.71zm5-5h85.71v-18.39h-36.45V674.5h36.45v-18.4h-85.71v18.4h33.86v42.67h-33.86v18.4zm-5-328.53v-28.4h70.31v-36.44h25.4v64.84h-95.71zm5-5h85.71v-54.84h-15.4v36.45h-70.31v18.39zm25.92 199.33c4.19 3.83 10.13 6.06 17 6.06 6.8 0 12.74-2.23 16.95-6.06 4.19-3.81 6.8-9.32 6.8-16.19 0-13.35-10.21-22.11-23.75-22.11-6.87 0-12.81 2.23-17 6.04-4.17 3.8-6.75 9.27-6.75 16.07 0 6.88 2.59 12.39 6.75 16.2zm-3.37 3.7c-5.25-4.8-8.38-11.67-8.38-19.89 0-8.15 3.13-14.99 8.38-19.76 5.23-4.76 12.42-7.35 20.37-7.35 15.83 0 28.75 10.55 28.75 27.11 0 8.23-3.17 15.1-8.44 19.89-5.24 4.77-12.42 7.36-20.31 7.36-7.95 0-15.14-2.59-20.37-7.37zm3.37-115.98c4.19 3.82 10.13 6.06 17 6.06 6.8 0 12.74-2.23 16.95-6.06 4.19-3.81 6.8-9.32 6.8-16.2 0-13.35-10.21-22.1-23.75-22.1-6.87 0-12.81 2.23-17 6.04-4.17 3.79-6.75 9.26-6.75 16.07 0 6.88 2.59 12.38 6.75 16.19zm-3.37 3.69c-5.25-4.8-8.38-11.67-8.38-19.88 0-8.16 3.13-15 8.38-19.77 5.23-4.76 12.42-7.35 20.37-7.35 15.83 0 28.75 10.55 28.75 27.12 0 8.22-3.17 15.1-8.44 19.88-5.24 4.77-12.42 7.37-20.31 7.37-7.95 0-15.14-2.6-20.37-7.37z"/></g></svg>