<svg width="402" height="373" fill="none" xmlns="http://www.w3.org/2000/svg"><path fill-rule="evenodd" clip-rule="evenodd" d="M186.27 0h29.37c0 9.23-1.02 18.51-.53 27.75a3.47 3.47 0 003.4 3.37c4.84.6 9.7.86 14.58.8a5.86 5.86 0 002.52-5.37l2.4-24.77a354.51 354.51 0 0129.76 4.66c-1.64 9.63-3.55 19.22-4.79 28.85a57.63 57.63 0 0016 5.5c3 1.07 4.38-2.39 4.86-4.65 1.9-8 3.72-15.99 5.72-23.89a64.78 64.78 0 0122.36 11.5 7.55 7.55 0 012.53 8.3c-3.59 11.99-7.53 23.97-11.2 35.96a55.64 55.64 0 00-3.1 11.63 57.97 57.97 0 007.97 21.53 41.27 41.27 0 0013.42 15.94c1.24-2 2.3-4.1 3.14-6.3 1.42-2.14 3.5-3.73 4.87-5.91a9.1 9.1 0 00-1.24-7.1 21.97 21.97 0 01-2-16.6 19.24 19.24 0 017.8-8.66 20.46 20.46 0 01-7.61-18.3c.61-4.39 2.94-8.36 6.46-11.05a25.88 25.88 0 0010.37 15.5c7.57 4.26 15.94 7.77 21.7 14.56a45.32 45.32 0 019.39 19.7 31.12 31.12 0 017.44 9.33c3.37 8.13.44 17.1-3.15 24.6a13.82 13.82 0 017.98 13.68c-.15 1.87-.68 3.7-1.55 5.36a16.6 16.6 0 01-8.95 6.4c3.5 5.63 11.2 7.54 13.29 14.24a25.44 25.44 0 01-4.74 19.98 31.58 31.58 0 0016.92-12.52c.84 9.23.57 19.93-5.94 27.21a39.37 39.37 0 01-24.71 10.92 25.8 25.8 0 0119.35 21.36c2.75 18.86-6.33 36.84-16.38 52.11-6.7 9.6-13.47 19.71-23.52 25.97-3.99 2.98-11.16.62-13.02 6.13a36.44 36.44 0 01-6.03 14.83 18.97 18.97 0 01-15.06 7.5 53.54 53.54 0 01-24.8-7.46l.89 5.77c7.08.62 12.49 5.6 18.95 8-5.67 4.08-11.42 9.14-18.78 9.58-.16 2.32-.99 4.54-2.39 6.4a14.24 14.24 0 01-8.24 3.28 9.41 9.41 0 00-3.98-5.2 38.03 38.03 0 01-11.6-5.63 14.78 14.78 0 01-4.17 11.4l-2.83-2.8a21.62 21.62 0 01-26.14 8 16.25 16.25 0 01-8.41-9.5c7.4-.44 16.74-.31 21.13-7.55 6.2-11.1 8.28-24.24 15.94-34.58a20.5 20.5 0 0114.75-9.01c6.2.1 12.25 1.94 17.45 5.33a14.97 14.97 0 0111.74-10.21 62.09 62.09 0 00-19.23-12.7c5-6.57 10.1-14.07 18.47-16.52a13.48 13.48 0 0115.68-6.16 57.87 57.87 0 01-1.86-12.48 25.18 25.18 0 01-9.12-5.28 13.64 13.64 0 01-1.6-16.12 9.4 9.4 0 0111.79-3.73c2.5 1.4 4.58 3.46 6.02 5.95a91.7 91.7 0 01-2.93-16.96c.14-3.06-3-4.48-4.87-6.43-4.43-3.69-7.35-9.1-12.4-12.17-.97 10.3-.97 20.7-2.96 30.9a164.5 164.5 0 01-51.56 94.11 185.17 185.17 0 01-45.93 31.12 6.82 6.82 0 01-6.82.85 180.5 180.5 0 01-74.9-63.75 169.56 169.56 0 01-27.19-93.1 24.74 24.74 0 00-8.41 7.78 101.67 101.67 0 01-9 8.52 85.31 85.31 0 01-3 18.96c2.56-3.82 6.73-7.86 11.77-6.35 7.8 1.68 9.84 12.07 6.12 18.2a20.24 20.24 0 01-10.94 7.46c-.11 4.24-.7 8.45-1.77 12.56a12.99 12.99 0 0115.5 6c8.41 2.52 13.6 10.03 18.69 16.64a64.67 64.67 0 00-19.31 12.7 15.04 15.04 0 0111.82 10.2c7.36-4.65 17.45-7.8 25.34-2.7 8.41 5.32 12.04 15.23 15.59 24.06 2.79 6.44 4.25 13.72 8.94 19.09 4.96 5.33 12.76 4.8 19.4 5.37a16.21 16.21 0 01-8.41 9.46 21.92 21.92 0 01-26.31-7.9l-2.66 2.66a15.3 15.3 0 01-4.34-11.28 34.85 34.85 0 01-11.51 5.6 8.96 8.96 0 00-3.86 5.28 10.26 10.26 0 01-10.72-9.77c-7.7-.31-13.15-6.21-19.62-9.63 7.09-1.6 12.4-7.42 19.85-8l.88-5.72c-8.02 4-16.65 8.04-25.9 7.41a20.7 20.7 0 01-18.39-16.38c-1.1-3.02-.88-7.23-4.07-9a35.47 35.47 0 01-11.96-3.87 83.66 83.66 0 01-19.58-21.4c-9.12-13.27-17.54-27.88-19.26-44.17a31.46 31.46 0 017.52-26.2c3.3-3.09 7.25-5.4 11.56-6.74a38.99 38.99 0 01-25.15-12.2c-5.5-7.38-5.76-17.28-4.87-26.02a29.67 29.67 0 0016.83 12.43c-3.77-6.04-7.05-13.63-4.39-20.73 2.44-6.13 9.75-7.86 12.85-13.4a17.45 17.45 0 01-8.73-6.27 14.1 14.1 0 016.29-19.22 33.36 33.36 0 01-3.9-22.2 20.1 20.1 0 018.28-11.23c1.19-6 3.49-11.72 6.78-16.87a44.14 44.14 0 0115.77-13.31 60.03 60.03 0 0012.05-7.2 32.96 32.96 0 006.77-12.74c10.01 6.8 7.97 22.47-1.02 29.26a15.83 15.83 0 018.64 14.3c.3 6.03-3.81 11-4.6 16.82a20.68 20.68 0 004.47 5.9 24.04 24.04 0 013.63 7.77c7-3.9 10.98-11.19 14.8-17.89 3.36-6.88 7.52-14.2 6.68-22.1-4.43-15.1-9.39-29.97-13.95-44.98a7.79 7.79 0 012.52-8.74 64.92 64.92 0 0122.37-11.37c1.73 7.37 3.54 14.7 5.22 22.07a9.7 9.7 0 003.37 6.65 82.4 82.4 0 0015.28-4 4.4 4.4 0 002.13-5.76c-1.33-8.26-2.84-16.43-4.21-24.68 9.8-2.09 19.7-3.67 29.67-4.75.93 8.74 1.64 17.49 2.66 26.23a3.74 3.74 0 003.77 4c4.74-.05 9.48-.42 14.17-1.11a5.01 5.01 0 002.61-5.55c-.22-8.44-.62-16.87-.88-25.35h-.05zm6.2 4.4c-3.36-.14-1.9 4.35-2.21 6.52.44 1.64-.44 5.02 2 5.15 5.94.4 11.9.4 17.84 0 2.88-2.66 1.42-7.55 1.2-11.14a63.37 63.37 0 00-18.78-.54h-.05zm-38.84 2.92c-4.74 1.25-10.63.4-14.48 3.73-.2 3.54.57 7.07 2.21 10.21a134 134 0 0019.53-3.06c.98-3.58.83-7.38-.44-10.88-2.23-.65-4.6-.65-6.82 0zm88.05-.04a25.8 25.8 0 00-1.1 10.7c6.64 1.72 13.43 2.8 20.28 3.24a24.41 24.41 0 001.95-10.39c-2.8-2.48-7.09-2.04-10.59-2.93a26.34 26.34 0 00-10.54-.62zM102.74 20.51a36.76 36.76 0 00-10.94 7.37 12.1 12.1 0 002 9.85 94.8 94.8 0 0117.09-9.19c2.04-2.84.09-6.57-1.02-9.45a8.84 8.84 0 00-7.09 1.46l-.04-.04zm88.27.09c-.5 3.47-.38 7 .36 10.43 1.9 2.49 5.53.8 8.19.8l.13-11.8c-2.79-.36-6.55-1.96-8.68.57zm12-.89a38.83 38.83 0 00-.57 12.12c2.64.6 5.38.58 8.02-.04.84-3.64 1.06-7.4.66-11.1-1.68-2.58-5.54-1.2-8.1-.98zm86.95 6.7l1.33 2.45a99.47 99.47 0 0116.74 8.43c2.57-2.89 4.47-8.66.44-11.14a39.83 39.83 0 00-15.33-7.68 15.79 15.79 0 00-3.18 7.94zm-136.15-3.2c-.7 3.31-.5 6.75.57 9.95 1.24 3.64 5.94.93 8.68.76.12-3.72-.23-7.43-1.06-11.06a7.25 7.25 0 00-8.2.36zm86.76-1.15a17.61 17.61 0 00-1.41 11.55c2.16 1.19 4.63 1.69 7.08 1.42 1.89-3.3 2.7-7.1 2.35-10.88-1.33-2.8-5.4-2.44-8.02-2.09zm-98.59 2.84c-.4 4.08.11 8.19 1.5 12.03 2.73-.22 5.41-.8 7.98-1.73.03-3.98-.44-7.95-1.42-11.8-2.73.05-5.44.56-8.01 1.5h-.05zm110.15-1.28a40.95 40.95 0 00-2 11.8c2.75.1 6.56 2.8 8.65.1 1.5-3.45 1.77-7.3.75-10.93a18.17 18.17 0 00-7.35-.97h-.05zM106.86 35.34c-1.68 3.24.4 7.1 1.82 10.07 2.34-.44 4.56-1.24 6.82-1.95.03-3.78-.95-7.5-2.84-10.79a38.23 38.23 0 00-5.76 2.67h-.04zm179.73 6.7a7.84 7.84 0 007.04 3.2 21.07 21.07 0 002.3-9.02 17.6 17.6 0 00-6.42-3.55A19.17 19.17 0 00286.6 42v.04zm-105.94-6.13a3.2 3.2 0 00-1.69 3.87 21.8 21.8 0 001.29 8.16c3.95.55 7.95.61 11.91.18 9.3-.62 18.6.27 27.9.27 3.02-.05 2.66-3.9 2.97-6.04 0-2.22 1.02-6.4-2.39-6.66a240.74 240.74 0 00-40 .22zm-15.73 1.2c-9.47 1.2-19 2.31-28.34 4.35a3.94 3.94 0 00-3.9 3.02c.06 3.22.79 6.4 2.13 9.32 2.54.32 5.12.1 7.57-.66 10.9-2.35 22.15-2.84 33.09-4.49a13.54 13.54 0 00.22-11.54c-3.24-1.82-7.27-.04-10.77 0zm60.9 1.6c-.08 3.2-2.12 8.57 1.64 10.17 13.29 1.33 26.53 2.88 39.6 5.55a25.3 25.3 0 002.26-10.97 9.86 9.86 0 00-5.94-2.49 426.24 426.24 0 00-32.6-4.57c-1.9-.18-5-.44-4.96 2.31zM95.7 42.44a16.8 16.8 0 002.57 9.37 27.55 27.55 0 006.06-4.8 34.67 34.67 0 00-2.56-9.4 20.25 20.25 0 00-6.07 4.83zm201.96 4.66a31.5 31.5 0 006.2 4.7 23.34 23.34 0 002.75-8.25c-.49-3.06-3.94-4.22-6.07-5.95a29.28 29.28 0 00-2.88 9.5zM105.5 52.07a12 12 0 00-5.63 4.7c.3 3.07 1.17 6.06 2.57 8.8a82.93 82.93 0 0113.5-6.66 98.6 98.6 0 0014.63-5.55c-.6-3.28-1.52-6.5-2.75-9.59a150.25 150.25 0 00-22.32 8.3zm168.61-7.85c-1.53 3-2.18 6.36-1.86 9.72a29 29 0 006.95 2.66 87.47 87.47 0 0120.51 8.97c1.24-3.55 4.7-8.92.13-11.54a81.95 81.95 0 00-25.73-9.81zm-115.33 9.63c-2.62 2.22-.67 6.04-.45 8.88 0 2.62 2.8 2.93 4.74 2.53a323.56 323.56 0 0132.65-1.96c1.32-.13 3.54 0 3.72-1.82.3-3.3.36-6.63.17-9.94-6.9-.65-13.86-.62-20.77.09-6.73.23-13.44.98-20.06 2.22zm45.62-2.67c-2.66.36-1.82 3.6-2.13 5.55.22 2.09-.57 5.06 1.77 6.22 4.39.8 8.86.27 13.29.62 8.15.22 16.25 1.38 24.36 1.78 3.45-2 2.92-7.46 2.57-11.01-3.98-1.32-8.13-2-12.31-2.05a225.16 225.16 0 00-27.5-1.15l-.05.04zM61.69 62.5a67.04 67.04 0 00-20.47 13.37 39.68 39.68 0 00-7.53 37.82 58.59 58.59 0 0023.12 30.85 43.72 43.72 0 01-18.2-12.96 53.48 53.48 0 01-11.52-31.7c-7.44 9.6-2.21 22.29 3.55 31.26-3.68.66-8.73.97-10.1 5.23a9.74 9.74 0 004.56 11.24c.27-3.56 1.1-8.13 5.36-8.8 5.58-.3 10.27 3.47 15.46 5.07 7 2.98 14.75 3.7 22.19 2.08a41.18 41.18 0 01-23.88-27.08A27.8 27.8 0 0150 93.27a11.51 11.51 0 0113.33-2.98 13.1 13.1 0 015.05 6.62 15.1 15.1 0 002.66-14.56c-2.97-5.68-10.68-6.3-16.12-4.44-7.53 2.66-11.74 9.85-15.73 16.3a24.9 24.9 0 0114.09-20.43c4.96-2.75 11.34-3.68 14.7-8.7a17.07 17.07 0 002.57-13.9 23.16 23.16 0 01-8.86 11.32zM331.4 51.05a17.3 17.3 0 002.84 14.34c3.54 5.06 10.18 5.77 15.23 8.88a24.06 24.06 0 0113.29 20.06c-3.94-6.7-8.5-14.11-16.34-16.64-5.5-1.56-13.38-.71-15.77 5.32a16.02 16.02 0 002.97 14.03 13.05 13.05 0 015.31-6.88 12.07 12.07 0 0114.22 4.44 29.96 29.96 0 01.84 33.52 41.58 41.58 0 01-19.98 17.93 37.78 37.78 0 0023.26-2.57c4.83-1.51 9.3-5.24 14.57-4.53 4.12.7 4.78 5.2 4.91 8.66a9.32 9.32 0 004.7-11.2c-1.28-4.34-6.42-4.65-10.14-5.19 5.84-9.05 11.16-21.88 3.58-31.51a66.8 66.8 0 01-3.1 17 44.29 44.29 0 01-26.04 27.52c4.82-3.7 9.25-7.9 13.2-12.52a47.31 47.31 0 009.74-41.42A36.39 36.39 0 00352.45 69c-4.25-2.8-9.12-4.44-13.33-7.24a26.1 26.1 0 01-7.75-10.65l.04-.05zm-188.99 4.93a91.48 91.48 0 00-28.87 8.97c.8 3.29 1.9 6.5 3.28 9.59a256.92 256.92 0 0137.73-8.57c2.22-3.15.53-7.73-.49-11.14-3.92-.3-7.86.1-11.64 1.15zm104.13 8.97c.67 1.77 3.23 1.24 4.74 1.86 11.53 1.61 22.91 4.18 34.02 7.68.97-3.37 5.22-9.23.4-11.23a155.07 155.07 0 00-37.34-9.15 22.86 22.86 0 00-1.77 10.84h-.05zm-142.3 5.23c.08 3.3 1.01 6.5 2.7 9.33l5.62-3.51a37.6 37.6 0 00-3.36-9.85 23.55 23.55 0 00-4.96 4.03zm187.92-2.97a30.33 30.33 0 00-2.66 8.97l5.58 3.24a18.23 18.23 0 002.66-9.01 5.06 5.06 0 00-5.58-3.2zm-127.95 3.46c-3.27.08-6.48.88-9.4 2.36 14.49 2.66 29.24 2.97 43.85 4.79-21.39 3.6-43.22 1.2-64.57-1.15a12.55 12.55 0 00-9.74 2.75c2.05.72 4.15 1.3 6.28 1.73 19.76 3.37 39.78 4.8 59.66 7.46a132.93 132.93 0 01-28.34 1.06 237.94 237.94 0 01-47.13-6.21c-2.21-1.07-6.2.66-3.76 3.24a80.25 80.25 0 0020.77 5.46 439.25 439.25 0 0063.82 4.44c24.4.46 48.8-.95 73-4.22a68.93 68.93 0 0023.86-6.66l-2.78-2.53c-6.87.85-13.56 3.1-20.47 3.82a227.27 227.27 0 01-57.35 1.82c21.79-3.64 44.15-3.9 65.68-9.19-4.7-4.75-11.78-2.53-17.63-2.04a213.08 213.08 0 01-56.56.3c13.02-1.5 26.13-2.48 39.2-3.85 1.6-.28 3.17-.78 4.65-1.47a91.07 91.07 0 00-19.31-2.8 365.89 365.89 0 00-63.73.9zm-58.69 23.66c-9.79 7.55-12.84 20.74-22.59 28.42a14.87 14.87 0 01-15.68 3.24 6.34 6.34 0 01-1.94-10.17c3.27-.8 4.73 2.7 6.24 4.88.18-3.24 1.6-7.32-1.15-9.94a10.62 10.62 0 00-12.58 1.06c-6.29 4.67-6.2 13.86-2.7 20.2 6.55 11.63 22.06 15.54 34.24 11.86 3.23-.76 7.4-4.89 4.11-7.9-1.99-2.67-5.13-.14-7.66.22a21.67 21.67 0 01-20.55-4.35c10.85 2 23.48.97 31.18-7.86v-15.67c5.58-.13 11.2.3 16.83-.18a17.48 17.48 0 006.56-14.03c-4.65-1.33-10.06-3.02-14.3.22zm177.07 2.22a14.5 14.5 0 006.51 11.55c5.45.57 10.94.09 16.4.22v15.71c7.83 8.7 20.37 9.9 31.22 7.77-3.2 2.63-7.01 4.41-11.08 5.2-5.29.46-10.6-.49-15.4-2.76a14.06 14.06 0 00-3.1 4.44 9.4 9.4 0 007.96 5.9 30.93 30.93 0 0029.37-9.05 17.91 17.91 0 002.79-20.38 11.74 11.74 0 00-14.8-4.88c-3.67 2.22-2.34 6.84-1.86 10.3 1.51-2.09 2.8-5.77 6.16-4.66 3.68 2.57 1.46 8.17-1.9 9.99a14.1 14.1 0 01-14.4-2.13c-8.68-6.04-12.4-16.38-18.82-24.37a14.58 14.58 0 00-11.74-7.02c-2.79.36-7.26.4-7.3 4.22v-.05zm-225.35-1.9c-8.54 3.64-10.4 14.51-8.85 22.72 1.51-4.23 4.3-7.89 7.97-10.47 2.79-1.87 7-2.93 7.44-6.93a4.67 4.67 0 00-6.56-5.32zm281.03 5.46c.53 3.95 4.78 5.06 7.62 6.92 3.5 2.63 6.2 6.18 7.79 10.26 1.37-8.22-.22-19.05-8.86-22.64a4.69 4.69 0 00-6.55 5.46zm-212.46-2.8a74.3 74.3 0 01-5.67 10.96l7.97.1a59.49 59.49 0 005.14-10.84c-2.41-.8-5-.87-7.44-.22zm142.97.09a38.18 38.18 0 005 10.43c2.66.55 5.4.73 8.1.53-2.2-3.55-3.85-7.41-6.1-10.92a9.41 9.41 0 00-7-.04zm-130.22 1.24c-1.77 3.1-2.97 6.53-4.52 9.77 2.7-.1 5.5-.1 8.2-.14 1.46-3.2 2.74-6.43 3.98-9.72-2.48-.18-5.49-1.77-7.61.1h-.05zm117.46-.44a63.32 63.32 0 003.68 10.07l8.32.05a65.96 65.96 0 00-5.22-10.12 16.74 16.74 0 00-6.78 0zM151.5 99.44a64.4 64.4 0 00-3.63 8.88l8.55-.1a92.34 92.34 0 002.35-9 20.2 20.2 0 00-7.27.22zm91.5.04c.8 2.98 1.7 5.9 2.58 8.8h8.54c-1.2-3.2-2.47-6.44-3.98-9.5-2.36.2-4.72.45-7.09.75l-.04-.05zm-78.74.27l-2.48 8.57h8.6l1.63-8.08c-2.57-.18-5.14-.36-7.7-.45l-.05-.04zm12.98.71l-1.55 7.86h8.68l.88-7.81h-7.97l-.04-.05zm39.42 0l.88 7.81h8.68l-1.5-7.8H216.66zm13.2-.27l1.85 8.13 8.42-.05-2.4-8.43-7.83.35h-.05zm-40.31 8.08h8.86v-7.5h-7.97l-.89 7.5zm13.95 0h8.86l-.8-7.54h-8.01v7.59l-.05-.05zm-102.53 4.89c0 29.83-.13 59.7.09 89.54a168.27 168.27 0 0015.19 70.94 173.31 173.31 0 0084.6 82.21 176.09 176.09 0 0070.33-57.18 161.27 161.27 0 0029.72-92.42c.35-31.03.04-62.06.13-93.14H100.97v.05zm-70.69 31.07l-.88 3.82a14.84 14.84 0 019.65 15.76 16.27 16.27 0 019.3-.67c3.46 1.7 6.3 4.43 8.15 7.82 5.6-1.4 10.78-4.1 15.15-7.86a50.06 50.06 0 01-10.99-11.23 64.28 64.28 0 01-15.94-3.42c-4.74-1.6-9.26-4.53-14.44-4.22zm329.74 3.15a62.78 62.78 0 01-18.6 4.44 54.88 54.88 0 01-11.03 11.28 36.56 36.56 0 0015.06 7.86 18.36 18.36 0 018.46-7.9c3.11-.66 6.35-.38 9.3.8-.42-2.93-.02-5.91 1.15-8.62a21.02 21.02 0 018.86-7.81l-2.66-3.33a30.5 30.5 0 00-10.54 3.28zm-268.57.63a63.83 63.83 0 01-23.92 5.5c3.5 3.2 7.41 5.91 11.65 8.03a37.76 37.76 0 01-14.53 12.3 12.5 12.5 0 0012.5-2.84c2.47-1.78 3.98-5.77 7.52-5.41 3.45 1.73 1.1 5.68-.18 8.12a82.61 82.61 0 01-14.17 17.13 69.82 69.82 0 01-48.63 14.56 45.35 45.35 0 0026.75 2c3.54-.22 8.2-1.55 11.03 1.47 2.26 4.13-2.22 7.63-6.11 7.28-9.61-.36-19.93 0-28.3 5.32-4.43 2.9-8.9 7.82-7.49 13.54a23.36 23.36 0 0114.62-7.1c-6.07 3.47-13.07 7.1-15.55 14.2a11.84 11.84 0 001.64 9.15c3.54-4.66 5.85-10.2 9.79-14.6 3.98-5.02 10-7.64 14.61-11.94a22.22 22.22 0 017.31-4.4c-2.61 4.57-4.34 10.21-.57 14.65a87.62 87.62 0 0011.07-7.5 52.38 52.38 0 014.43-13.14c3.9-7.1 11.3-11.1 16.83-16.74a44.2 44.2 0 0013.64-25 12.2 12.2 0 00-3.19-12.38c-3.06-2.48-7.09-1.15-10.63-.93 4-2.42 8.17-4.55 12.49-6.35 2.61-1.86.44-6.83-2.66-4.88l.05-.05zm214.54 1.37c2.04 6.66 10.36 5.5 14.48 10.21-2.49-.61-5.05-.88-7.62-.8a8.63 8.63 0 00-6.42 7.64 40.13 40.13 0 0012.67 30c5.36 5.96 12.84 9.77 17.18 16.66 2.71 4.43 4.43 9.4 5.05 14.56 3.72 2.53 7.53 5.01 11.39 7.36a14.46 14.46 0 002.25-7.1 35.54 35.54 0 00-2.92-7.59c2.7 1 5.2 2.51 7.35 4.44 4.34 4.22 10.1 6.7 14.04 11.4 4.21 4.45 6.51 10.3 10.41 15.06a11.96 11.96 0 001.29-9.77c-2.75-6.79-9.62-10.3-15.68-13.67a25 25 0 0115.01 7.23c1.33-5.63-3.1-10.43-7.35-13.4-8.28-5.42-18.6-5.86-28.17-5.46-3.72.44-8.64-2.75-6.55-6.88 2.48-3.64 7.7-2 11.38-1.87a45.34 45.34 0 0026.57-1.95c-19.04.8-39.6-4.22-52.84-18.64a56.1 56.1 0 01-11.73-17.23 2.85 2.85 0 013.63-3.86 62.8 62.8 0 009.3 7.9c2.82.85 5.82.92 8.68.22a38.38 38.38 0 01-14.57-12.3 44.27 44.27 0 0011.51-8.03 59.62 59.62 0 01-22.8-5.15 4.82 4.82 0 00-5.54 1.02zm61.43 10.08c-1.06 5.01 3.14 8.74 4.87 13.1a11.13 11.13 0 01-2.74 8.83c-2.09-5.77-4.88-13.54-12.14-14.03a7.08 7.08 0 00-6.47 5.64c3.17.19 6.18 1.44 8.55 3.55a12 12 0 01-3.05 16.7 49.52 49.52 0 01-11.87 3.85c9.03 4.18 17.89-2.04 24.22-8.08-1.41 4.62-6.55 7.64-6.77 12.43a34.91 34.91 0 0023.47.31c7.84-2.35 11.43-10.56 13.2-17.84-6.2 3.24-12.18 8.7-19.62 7.77-1.73-2.67 1.15-4.93 2.39-7.1a15.3 15.3 0 00-.31-20.07c-3.63-3.17-6.63-7-8.86-11.28a10.56 10.56 0 00-4.87 6.22zm-337.8-6.22a36.98 36.98 0 01-8.64 11.2 15.33 15.33 0 00-.44 20.15c1.33 2.04 3.94 4.3 2.43 6.97-7.35 1.33-13.37-4.44-19.57-7.55 1.55 6.83 4.78 14.25 11.6 17.22a40.66 40.66 0 0020.1 1.91 5.97 5.97 0 005.32-2.84 99 99 0 01-6.95-11.05c6.25 5.81 15.1 12.3 23.92 7.63a33.02 33.02 0 01-12.4-4 11.9 11.9 0 01-2.22-16.5 16.95 16.95 0 018.37-3.43 6.88 6.88 0 00-7.57-5.41c-6.47 1.1-8.73 8.12-10.9 13.36a8.08 8.08 0 01-2.96-8.12c1.41-4.22 5.4-7.55 4.91-12.26a8.9 8.9 0 00-5-7.23v-.05zm16.65 27.08a6.4 6.4 0 001.42 8.57 26.05 26.05 0 0014.17 4.53 25.1 25.1 0 0012.58-13.67c-5.98.12-11.9-1.21-17.27-3.87a17.7 17.7 0 01-10.9 4.44zm281.33-.57c1.38 6.21 7.13 9.98 11.96 13.54 5.98-.36 14.04-1.2 16.83-7.55.58-1.91 1.2-5.33-1.6-5.68a15.05 15.05 0 01-9.87-4.22 37.57 37.57 0 01-17.32 3.9zM84.71 199.1c-2.96 3.73-8.41 8.21-5.35 13.45 7.88-7.63 18.24-16.51 16.52-28.76-4.34 4.61-6.74 10.7-11.17 15.31zm221.06-14.83a26.9 26.9 0 008.86 20.2c2.79 2.84 5.13 6.88 9.47 7.5-.3-7.99-7.57-12.56-11.42-18.82-2.3-2.93-3.28-7.15-6.87-8.88h-.04zM63.5 225.7c-1.82 10.44 4.52 19.85 4.87 30.1a22.11 22.11 0 01-8.15 20.29 22.15 22.15 0 01-28.08-3.73c6.51 2.8 13.64 5.9 20.9 3.82a17.4 17.4 0 0012.5-17.32 17.48 17.48 0 00-1.9-7.37c-4-7.23-12.54-10.07-17.28-16.64a20.01 20.01 0 01-2.04-8.97 17.56 17.56 0 001.02 22.2c3.77 4.44 10.98 6.21 12.1 12.56a8.45 8.45 0 01-7.76 9.77 35.31 35.31 0 01-31.53-13.37 53.2 53.2 0 0014.4 24.38c11.15 9.85 26.79 12.07 41.18 12.07 11.16 0 21.7-5.02 32.86-4.3a34.26 34.26 0 00-8.72-6.89 22.14 22.14 0 00-15.06 2.58 25.64 25.64 0 015.27-10.12 14.15 14.15 0 00-11.51 5.5c-3.2 3.1-6.03 8.44-11.25 7.55a4.39 4.39 0 01-.93-7.55c3.85-3.46 9.2-5.42 11.73-10.2 3.9-6.58.62-14.66 3.77-21.45a4.96 4.96 0 016.06-1.73l1.11 4.7c2-1.76 3.43-4.08 4.12-6.66a6.54 6.54 0 00-5.31-7.94c-5.05.44-5.76 6.84-9.8 8.88a3.9 3.9 0 01-4.29-3.56c-.7-6.08 2-11.8 2.4-17.84.09-6.37.86-12.7 2.3-18.91a31.04 31.04 0 00-12.94 20.15h-.04zm261.93-20.2a89.02 89.02 0 012.4 19.1c.44 6.03 3.1 11.85 2.3 17.93a3.55 3.55 0 01-4.79 3.1c-3.23-2.17-4.07-6.83-7.75-8.38a5.65 5.65 0 00-6.51 3.76c-.3.88-.37 1.8-.22 2.72a10.53 10.53 0 003.9 7.77c.62-2.31 1.68-6.04 4.87-4.93 4.38 1.95 3.72 7.72 3.99 11.67a18.68 18.68 0 006.42 16.6c3.36 2.94 9.43 4.49 9.26 9.9a4.46 4.46 0 01-5 3.2 4.42 4.42 0 01-1.96-.84c-4.43-2.8-6.77-7.9-11.3-10.66a16.45 16.45 0 00-7.08-1.64 27.8 27.8 0 015.23 10.12 24.71 24.71 0 00-13.6-3.02 25.42 25.42 0 00-10.23 7.28c5.48-.17 10.95.46 16.25 1.87a77.66 77.66 0 0045.05-2c14-4.88 23.43-18.2 27.15-32.1a35.35 35.35 0 01-28.88 13.68 11.06 11.06 0 01-8.9-3.69 8.45 8.45 0 011.33-11.4c3.8-3.42 8.85-5.69 11.51-10.3a18.14 18.14 0 00-.97-19.1c-.13 3.3-1.1 6.5-2.8 9.33-4.87 6.04-12.66 9.05-16.69 15.85a17.53 17.53 0 0010.5 24.81c7.3 2.22 14.48-1.15 21.17-3.73a22.75 22.75 0 01-28.26 3.73 21.48 21.48 0 01-8.24-19.18c0-10.65 6.73-20.42 4.87-31.25a31.52 31.52 0 00-13.02-20.2zm-302.5 44.4a9.56 9.56 0 00.44 10.07c3.24-1.5 3.28-5.72 5.14-8.39 2.66-5.63 9.79-10.34 7.09-17.4a37.84 37.84 0 00-12.71 15.72h.04zm342.9-15.32c-.46 3.25.38 6.56 2.34 9.19a82.01 82.01 0 019.75 16.82c4.56-4.88 1.46-11.54-1.78-16.1-2.83-3.78-5.31-8.71-10.31-9.9zM34.09 261.65a19.92 19.92 0 0016.52 3.55 3.76 3.76 0 00.75-6.3c-4.11-3.01-8-6.32-11.64-9.9a36.35 36.35 0 00-5.67 12.7l.04-.05zm316.68-2.88a3.77 3.77 0 00.8 6.48 19 19 0 0016.47-3.87 41.28 41.28 0 00-5.76-12.43 87.57 87.57 0 01-11.51 9.81zm-318.4 28.32c6.73 9.23 14.43 19.13 25.81 22.55.45-2.62-.8-8.04 3.46-7.72 5.76 1.33 10.72 5.32 16.83 5.45a19.1 19.1 0 0015.37-6.08c4.1-3.7 8.66-6.84 13.6-9.32-10.1-1.24-19.63 3.33-29.59 3.86-10.98.76-22.41 1.91-33.09-1.55a40.81 40.81 0 01-12.4-7.2zm324.73 7.23c-10.59 3.38-21.88 2.22-32.78 1.51-9.96-.53-19.48-5.01-29.54-3.9a72.23 72.23 0 0113.42 9.4 19.13 19.13 0 0015.55 6c6.02-.27 10.94-4.26 16.7-5.41 4.12-.1 2.97 5.1 3.36 7.76 11.52-3.55 19.14-13.58 26.05-22.81a41.04 41.04 0 01-12.76 7.45zm-33.04 16.07a13.3 13.3 0 012.13 12.03c-1.69 5.6-8.5 6.49-13.42 5.95a7.97 7.97 0 01-7.8-8.65c.97-3.73 5.31-3.73 8.42-4.31a8.99 8.99 0 00-6.74-5.9c-4.34-.54-6.95 4.12-7.22 7.8-.97 3.3 2.13 5.91 2 9.06a4.02 4.02 0 01-5.94-1.33 30.43 30.43 0 00-10.94-8.3 12.33 12.33 0 00-14.53 2.44 22.46 22.46 0 00-4.51 13.76c1.3-3.25 3.6-6.02 6.55-7.9 5.63-2.53 11.74.1 17.28 1.6 7.66 2.13 14.04 8.08 22.27 8.17 6.96-.09 15.1-1.51 19.05-8a16.64 16.64 0 00-.18-18.01l-6.42 1.6zM77.81 332.5a27.1 27.1 0 0021.83 0c8.42-4.3 17.5-8.65 27.15-8.43a11.86 11.86 0 019.43 9.63 20.99 20.99 0 00-4.12-14.34 11.6 11.6 0 00-12.4-3.37 30.57 30.57 0 00-14.17 10.07c-1.68 2.22-6.73 1.11-4.56-2a10.03 10.03 0 00-3.19-14.29c-4.25-1.5-7.44 2.22-9.3 5.55 3.01.71 7.62.62 8.41 4.4 1.33 5.15-4.07 8.7-8.59 8.74-4.7.22-10.9-.66-12.44-5.9a13.35 13.35 0 012.12-12.21l-6.1-1.69a16 16 0 005.97 23.84h-.04zm1.63-19.22a8.19 8.19 0 006.47 11.9 10 10 0 008.86-4.58 10.88 10.88 0 00-9.08-.35c-.47-2.8-.7-5.64-.71-8.48-1.9.26-3.76.77-5.54 1.5zm237.67-1.51a29.5 29.5 0 01-1.02 8.44c-2.57-.23-5.5-1.91-7.84-.1-.18 3.51 4.12 4.89 7 5.07a8.08 8.08 0 008.17-6.97c.19-1.3.06-2.63-.38-3.86-.93-2.4-3.99-1.83-5.93-2.62v.04zm-179.16 12.39c.99 4.55.41 9.3-1.64 13.5a8.43 8.43 0 01-12.09 2.79 11.95 11.95 0 01-3.19-9.2 13.22 13.22 0 00-6.33 6.67c-.23 2.58.3 5.17 1.5 7.45-5.97-4.12-12.84-.88-18.6 1.87 8.37 6.84 20.07 4.75 29.55 1.86-4.08 3.47-10.15 4-13.56 8.22a15.3 15.3 0 003.1 3.81 13.56 13.56 0 016.25-5.32c3.8-1.42 8.85-2.09 10.54-6.35 1.46-2.66 1.46-7.46 5.4-7.64a4.07 4.07 0 013.24 5.5c-1.31 3.88-2.1 7.91-2.35 12 1.77-1.07 3.58-2.22 5.4-3.25a15.55 15.55 0 005.05 9.28 21.27 21.27 0 0020.33.89 29.77 29.77 0 01-13.5-4.4 29.89 29.89 0 01-9.44-15.44 179.97 179.97 0 00-9.66-22.24zm113.03 30.5a22.52 22.52 0 01-19.4 11.53 20.9 20.9 0 0020.38-.97 15.91 15.91 0 004.87-9.32l5.44 3.46a62.86 62.86 0 00-2.6-13.1 3.75 3.75 0 011.73-3.83 3.7 3.7 0 014.2.24c2.39 3.64 2.48 9.32 7.26 10.96 4.6 1.69 9.79 2.75 12.4 7.37 1.02-1.33 4.2-3.06 2.26-4.88-3.8-2.8-8.64-3.82-12.27-6.97 9.35 2.84 20.82 4.84 29.06-1.87-5.72-2.88-12.67-6.17-18.6-1.77a11.74 11.74 0 001.23-8.52 14.68 14.68 0 00-6.02-5.73 11.66 11.66 0 01-3.06 9.06 8.2 8.2 0 01-12-2.5 19.4 19.4 0 01-1.77-13.58c-5.45 9.68-8.6 20.34-13.1 30.41zm-125.34-20.43c-.13 2.09 2.43 2.84 3.63 4.22 1.2-2.26 3.01-5.24.89-7.6-2.35-2.08-5 .9-4.48 3.34l-.04.04zm146.33-3.33c-2.52 1.87-.7 8.44 2.66 6.22 3.55-1.78 1.33-9.1-2.66-6.22zM107.3 120.08c62.45-.06 124.9-.06 187.35 0 .09 28.72 0 57.5 0 86.3a152.66 152.66 0 01-35.96 97.89 171.76 171.76 0 01-57.8 44.39 164.04 164.04 0 01-78.97-77.02 159.87 159.87 0 01-14.66-71.38l.04-80.18zm2.44 2.67v78.8a155.13 155.13 0 0014.84 66.27 161.97 161.97 0 0076.3 74.54 164.1 164.1 0 0077.65-77.34 152.06 152.06 0 0013.73-65.87v-76.36H109.69l.05-.04zm84.46 25.74c-.26-6.57 3.77-12.3 6.87-17.8 2.87 5.64 7.08 11.19 6.73 17.8a9.35 9.35 0 01-4.52 6.53l-.04 12.2 2.56-2.43a9.48 9.48 0 01.89-9.02c4.52-4.66 11.34-5.77 17.27-7.54-1.77 5.99-2.88 12.83-7.53 17.31a9.02 9.02 0 01-9.08.89c-6.2 7.99-3.58 18.51-4.16 27.88.22 3.95-1.15 9.05 2.97 11.54a13.55 13.55 0 004.74-10.79 8.5 8.5 0 01-5.85-8.08 44.66 44.66 0 016.95-16.51 45.11 45.11 0 016.91 16.6 8.8 8.8 0 01-5.75 8l.04 3.37c4.78-4.44 10.63-8.97 10.8-16.12a8.72 8.72 0 01-5.97-7.32c.09-6.4 3.9-11.9 6.86-17.32a40.28 40.28 0 016.87 17.1 8.54 8.54 0 01-5.5 7.36l-.13 3.56c4.79-4.49 10.37-9.24 10.5-16.39a9.43 9.43 0 01-5.45-5.41c-1.24-7.1 3.55-13.14 6.6-19.1 3.01 5.6 7.18 11.37 6.73 18.03a9.1 9.1 0 01-5.62 6.53l-.04 3.64c2.92-2.89 5.84-5.77 8.68-8.8a9.8 9.8 0 011.72-8.07c4.52-4.53 11.2-5.64 17.1-7.41-1.77 5.9-2.84 12.56-7.3 17.09a9.69 9.69 0 01-8.3 1.68c-2.96 2.84-5.84 5.77-8.72 8.66h3.77a8.61 8.61 0 016.64-5.64c6.6-.26 12.31 3.78 17.85 6.84a40.87 40.87 0 01-17.14 6.92 8.67 8.67 0 01-7.4-5.9 24.99 24.99 0 00-16.74 11.19c5 .8 5.5-5.86 10.1-6.04 6.78-.67 12.62 3.64 18.34 6.66-5.67 3.1-11.52 7.28-18.3 6.79a8.93 8.93 0 01-6.42-5.9c-7.17.4-12.04 6.08-16.38 11.1 5.13.8 5.75-6.35 10.76-5.95 6.3.81 12.3 3.2 17.45 6.92-5.54 2.84-11.07 6.8-17.5 6.84a8.85 8.85 0 01-7.17-6.04c-3.81.8-11.56 2-9.97 7.55 8.5.7 17.1.04 25.6.3 4.6.35 9.17-1.11 12.72-4.08a9.07 9.07 0 01.53-8.65c4.38-5.1 11.56-6.04 17.62-8-1.77 5.87-2.92 12.53-7.26 17.14a8.72 8.72 0 01-9.12 1.11l-2.53 2.49 12.23-.05a9.05 9.05 0 017.22-4.53c6.09 1 11.88 3.33 16.96 6.84-5.67 3.1-11.52 7.33-18.3 6.75a9.51 9.51 0 01-5.84-4.44c-4.12-.09-8.24-.04-12.31 0l2.57 2.49a8.62 8.62 0 019.2 1.24 40.45 40.45 0 017.18 16.96 40.26 40.26 0 01-17-7.15 8.76 8.76 0 01-1.15-9.46c-4.88-4.61-11.65-4.4-17.85-4.21l-1.95 2.88a12.12 12.12 0 00-13.82-1.15 17.31 17.31 0 00-5.5 12.43 88.98 88.98 0 003.77 36.09 32.42 32.42 0 0010.5 17.18 35.55 35.55 0 0014.4 5.64 20.06 20.06 0 01-17.9-2.36 18.27 18.27 0 00-9.3-4.17c-2.22 2.49-.53 6-.53 8.92-4.03-2.66-5.85-7.4-9.3-10.7a40.67 40.67 0 01-8.86 10.75c0-3.06 2.21-7.06-1.02-9.19-4.78.93-8.24 4.8-12.76 6.4-4.42 1.84-9.37 2-13.9.44 5.55-.9 10.8-3.13 15.32-6.48 6.25-5.07 8.68-13.15 10.8-20.56a81.34 81.34 0 001.96-35.51 12.37 12.37 0 00-7.1-10.04 13.83 13.83 0 00-13.23 3.47 8.77 8.77 0 01-1.07 9.5 39.69 39.69 0 01-17.05 7.23c1.77-5.86 2.93-12.43 7.27-17a8.86 8.86 0 019.16-1.15l2.66-2.53c-6.6-.18-13.9-.9-19.13 4a9.03 9.03 0 01-1.11 9.45 39.45 39.45 0 01-17.05 7.23c1.77-5.9 2.88-12.56 7.4-17.09a8.63 8.63 0 019.12-.97l2.66-2.67-12.5.05a9.79 9.79 0 01-5.7 4.43c-6.83.76-12.67-3.68-18.48-6.61a38 38 0 0117.23-6.97 9.55 9.55 0 017 4.57h12.1l-2.44-2.44a8.4 8.4 0 01-9-1.06c-4.42-4.62-5.66-11.24-7.4-17.18 5.9 1.82 12.54 2.97 17.2 7.37a9.02 9.02 0 01.92 9.27 16.85 16.85 0 0011.74 4.09c8.86-.31 17.8.57 26.62-.45 1.42-5.32-6.11-6.66-9.92-7.45a8.98 8.98 0 01-7.09 6.03c-6.5.18-12.05-3.95-17.58-6.79 5.45-3.1 11.12-6.92 17.63-6.92a8.84 8.84 0 016.86 5.59h3.54c-4.56-4.7-9.16-10.39-16.3-10.83a9.34 9.34 0 01-6.2 5.95c-6.82.7-12.7-3.64-18.5-6.62 5.75-3.2 11.68-7.55 18.6-6.8a8.93 8.93 0 015.93 5.6l3.76.1c-4.51-4.94-9.43-10.35-16.6-10.84a8.43 8.43 0 01-7.76 5.9 42.63 42.63 0 01-16.78-6.88 42.02 42.02 0 0116.92-6.97 8.61 8.61 0 017.61 5.73l3.63.04c-2.87-2.93-5.75-5.85-8.76-8.7a9.41 9.41 0 01-8.64-2.08 41.9 41.9 0 01-6.82-16.65 42.01 42.01 0 0116.6 6.84 9.15 9.15 0 012.13 8.6c2.84 2.98 5.76 5.91 8.73 8.8l-.09-3.64a8.63 8.63 0 01-5.67-7.68 43.6 43.6 0 016.91-16.87 43.13 43.13 0 016.95 16.78 8.77 8.77 0 01-5.89 7.86c.36 7.19 5.94 11.98 10.81 16.51 0-1.29-.09-2.57-.13-3.82a8.77 8.77 0 01-5.58-5.94c-.76-6.84 3.76-12.75 6.73-18.52 3.06 5.69 7.44 11.63 6.64 18.43a9.16 9.16 0 01-5.84 6.21c.4 7.2 6.1 11.77 10.85 16.34l-.1-3.55a8.86 8.86 0 01-5.53-6.93c-.09-6.48 3.9-12.12 6.87-17.62 2.88 5.55 7 11.14 6.86 17.66 0 3.56-3.4 5.24-5.76 7.15a10.33 10.33 0 003.86 9.28 1.85 1.85 0 003.14-.8c.89-3.5 1.19-7.1.89-10.7-.27-9 1.5-19-4.3-26.77a8.75 8.75 0 01-9.7-1.28 41.65 41.65 0 01-7-16.87c6.03 1.9 12.98 2.93 17.46 7.77a9 9 0 01.7 8.88l2.84 2.7v-12.52a9.2 9.2 0 01-4.87-6.48l.04-.09zm6.78-7.19a16.54 16.54 0 00-2.93 8.3c1.29 2.93 6.34 2.13 5.98-1.15a23.44 23.44 0 00-3.1-7.1l.05-.05zm-15.6 14.43a15.1 15.1 0 005.14 8.88l3.86-4.22a16.5 16.5 0 00-9-4.66zm22.15 4.62a11.87 11.87 0 003.9 3.55c3.67-.85 3.9-5.33 5.14-8.26-3.38.68-6.5 2.31-9 4.7h-.04zm-64.49-4.22a15.11 15.11 0 004.43 8.43 7.26 7.26 0 004.57-4 22.93 22.93 0 00-8.95-4.43h-.05zm19.36 8.66c1.82 1.86 3.94-.54 5.5-1.47-1.12-2.66-2.31-5.33-3.64-7.9-.97 2.8-4.83 6.66-1.82 9.32l-.04.05zm72.24-2.1a3.3 3.3 0 004.42 2.58 3.27 3.27 0 001.51-1.2 14.9 14.9 0 00-2.88-8.7 26.83 26.83 0 00-3.05 7.33zm16.7-3.1c-1.69 2.04.44 4 2.25 4.88 3.95-.53 4.12-5.41 5.4-8.3-2.76.56-5.38 1.71-7.66 3.38v.04zm-74.32 8.66a14 14 0 00-2.57 8.74c1.86 2.36 4.51.71 6.38-.66a51.56 51.56 0 00-3.81-8.04v-.04zm44.95 7.81a3.12 3.12 0 002.87 2.25 3.09 3.09 0 003.02-2.03 21.43 21.43 0 00-2.75-7.99 13.78 13.78 0 00-3.14 7.77zm-79.63 1.24c2.56 1.34 5.22 2.53 7.88 3.64a5.07 5.07 0 001.55-5.77c-3.06-2.35-6.51.98-9.43 2.13zm107.13 0c1.11 5.78 7.18 1.51 10.24 0-3.02-1.6-9.13-5.63-10.23 0zm-62.58 10.92a3.25 3.25 0 005.14 2.4c2.57-2.97-.97-6.66-1.95-9.5a30.47 30.47 0 00-3.19 7.1zm22.46 1.91a6.54 6.54 0 005.67.45 20.15 20.15 0 00-2.84-9.41c-1.46 2.75-4.03 5.68-2.83 8.96zm-54.17 0a19.2 19.2 0 007.84 3.16 3.18 3.18 0 001.56-4.94 3.2 3.2 0 00-1.6-1.15 19.9 19.9 0 00-7.8 2.93zm83.09-2.66a3.28 3.28 0 00-.13 5.5c3.14.9 5.93-1.55 8.63-2.75-2.65-1.24-5.4-3.64-8.5-2.7v-.05zm-95.23 11.01c1.16 2.8 1.42 6.57 4.39 8.26a4.82 4.82 0 004.07-2.8c-.7-3.95-5.44-4.22-8.41-5.46h-.05zm107.72 5.42c.66 1.9 2.97 4 4.87 2.13a20.81 20.81 0 003.32-7.55c-2.79 1.33-7.97 1.38-8.2 5.42zm-82.7-.76c2.98 1.6 9.62 5.64 10.24-.44-1.86-5.1-7.18-1.11-10.23.44zm57.94 2.89c2.86-.26 5.59-1.3 7.88-3.02a34.05 34.05 0 00-6.86-2.98 3.1 3.1 0 00-2.93 2.59 3.11 3.11 0 001.91 3.4zm-27.68 6.21a4.96 4.96 0 005.14 1.78 7.65 7.65 0 00-.93-4.75 3 3 0 00-4.21 2.97zm-69.54 1.73a21.55 21.55 0 007.67 3.24 3.55 3.55 0 001.2-5.9 14.6 14.6 0 00-8.87 2.66zm135.53-3.28c-.93 2.22-1.9 6.21 1.73 6.52 2.54-.7 4.98-1.73 7.26-3.06a26.75 26.75 0 00-8.99-3.46zm-71.53 4.84a55.15 55.15 0 014.92 29.43c-.1 2.54.66 5.05 2.17 7.1a9.05 9.05 0 00-3.8 5.77 41.33 41.33 0 003.53 3.24 11.08 11.08 0 00-6.02 5.86 22.58 22.58 0 004.96 3.11c-2.83 1.91-8.41 2.62-7.97 7.01 6.99-.51 14-.57 21-.17.4-4-5.14-5.02-7.8-7.1a8.95 8.95 0 004.74-3.11 13 13 0 00-5.98-5.73 40.1 40.1 0 003.32-2.84c.75-2.7-2.13-4.26-3.63-6a11.25 11.25 0 002.17-6.96 56.81 56.81 0 014.87-29.61 28.79 28.79 0 00-8.2 6.57 31.87 31.87 0 00-8.28-6.57zm-49.65 14.07c2.88-1.2 7.44-1.33 8.24-5.06a46.93 46.93 0 00-2.66-3.9 12.67 12.67 0 00-5.58 8.96zm18.16.04c3.01-1.24 7.31-1.5 8.42-5.1a7.1 7.1 0 00-2.93-3.29c-3.98.58-4.25 5.42-5.44 8.44l-.05-.05zm89.3-5.23c.97 3.72 5.44 3.99 8.4 5.23a13.5 13.5 0 00-5.44-9 47 47 0 00-2.92 3.77h-.05zm-73.09-92.2c4.74 1.5 10.37 2.21 13.69 6.25a5.33 5.33 0 01-6.16 8c-5.31-2.54-5.75-9.33-7.53-14.26zm33.13 6.92c2.88-4.75 9.17-5.33 13.95-6.93-1.64 4.89-2.26 11.32-7.22 14.16a5.31 5.31 0 01-6.73-7.23zm-89.73 51.4c4.83 1.65 10.9 2.22 13.9 6.8a5.33 5.33 0 01-7.21 7.1c-4.43-3.06-5.1-9.1-6.65-13.9h-.04zm146.34 6.57c3.18-4.26 9.03-4.97 13.77-6.48-1.6 4.88-2.17 11.41-7.22 14.07a5.3 5.3 0 01-7.22-4.43c-.1-1.1.12-2.2.67-3.16zm-34.86 21.76a7.43 7.43 0 019.74 2.44 51.18 51.18 0 016.03 15.67 44.57 44.57 0 01-16.4-6.48 7.19 7.19 0 01.63-11.59v-.04zm.93 7.54a19.7 19.7 0 007.4 3.2c-.56-2.62-1.61-5.1-3.1-7.33-2.35-2.75-7.05 1.87-4.3 4.13zm-56.12-3.77a5.27 5.27 0 019.84.66c1.06 5.33-2.66 10.04-4.97 14.52-2.43-4.62-6.5-9.68-4.87-15.18zm38.1-.18a5.27 5.27 0 019.74.84c.97 5.33-2.75 10.04-5.1 14.52-2.34-4.7-6.64-9.85-4.65-15.4v.04zm-20.42 80.7A20.46 20.46 0 01209.7 302c-.35 2.62.89 6.44-2.74 7.06l-1.07-5.15a9.9 9.9 0 00-7.08.98c-6.82 4.53-4.88 18.29 4.12 18.51 3.4 1.2 3.4-3.02 4.34-5.2l2.56.05.05 6.4a20.5 20.5 0 01-15.01-.45 12.6 12.6 0 01-4.15-16.5 12.6 12.6 0 014.15-4.54z" fill="#8B8B8B"/></svg>