<svg width="55" height="76" fill="none" xmlns="http://www.w3.org/2000/svg"><path d="M52.38.1c-.28-.16-.68-.14-1.12.12L1.58 28.9A3.47 3.47 0 000 31.63L.08 72.7c0 .5.18.85.47 1.02l2.07 1.2c-.29-.17-.46-.52-.47-1.01l-.08-41.08c0-1 .7-2.22 1.58-2.73L53.33 1.42c.44-.25.84-.28 1.12-.11L52.38.11z" fill="#B7C5FD"/><path d="M53.33 1.42c.87-.5 1.58-.1 1.59.9L55 43.4c0 1-.7 2.22-1.57 2.72L3.74 74.81c-.87.5-1.58.1-1.59-.9l-.08-41.08c0-1 .7-2.22 1.58-2.73L53.33 1.42z" fill="#9AADFD"/><path d="M52.95 7.34l.07 36.74L4.13 72.31l-.07-36.75 48.9-28.22zM46.94 7.3c.45-.25.81-.04.82.47 0 .52-.36 1.14-.81 1.4-.45.26-.81.05-.81-.46 0-.52.36-1.14.8-1.4zM52.14 4.3c.45-.25.81-.04.81.47 0 .52-.36 1.14-.8 1.4-.45.26-.81.05-.81-.46 0-.52.36-1.14.8-1.4zM49.54 5.8c.45-.25.81-.04.81.47 0 .52-.36 1.14-.8 1.4-.45.26-.81.05-.81-.46 0-.52.35-1.14.8-1.4z" fill="#fff"/><path d="M13.7 39.63l4.96-.71c-.75 2.73-2.68 5.48-4.94 6.79l-.02-6.08z" fill="#3955D1"/><path d="M17.87 33.5c.7.62 1.12 1.67 1.12 3.08 0 .75-.12 1.55-.33 2.34l-4.96.7 4.17-6.12z" fill="#4466FB"/><path d="M8.75 40.34l4.95-.71.02 6.08c-2.92 1.68-5.3.33-5.3-3.03 0-.75.11-1.55.33-2.34z" fill="#AABAFD"/><path d="M13.69 33.55l.01 6.08-4.95.71c.75-2.73 2.67-5.48 4.94-6.79z" fill="#798FFE"/><path d="M13.69 33.55c1.7-.98 3.21-.93 4.18-.05l-4.17 6.13-.01-6.08z" fill="#6BB5FB"/><path d="M27.9 25.35v2.4a7.12 7.12 0 00-2.99 4.1l-1.95.29c.74-2.73 2.67-5.48 4.93-6.79z" fill="#798FFE"/><path d="M27.9 25.35c1.7-.98 3.2-.93 4.18-.05l-1.65 2.42c-.59-.53-1.5-.56-2.53.03v-2.4z" fill="#6BB5FB"/><path d="M30.9 31l1.96-.28c-.74 2.73-2.67 5.48-4.93 6.78l-.01-2.4A7.12 7.12 0 0030.9 31z" fill="#3955D1"/><path d="M32.08 25.3c.7.62 1.11 1.67 1.12 3.07 0 .76-.12 1.55-.34 2.35l-1.95.28c.13-.48.2-.96.2-1.42 0-.85-.26-1.48-.68-1.86l1.65-2.42z" fill="#4466FB"/><path d="M22.96 32.14l1.95-.28c-.13.48-.2.96-.2 1.41 0 2.03 1.44 2.85 3.21 1.83v2.4c-2.91 1.69-5.29.34-5.3-3.02 0-.75.12-1.55.34-2.34z" fill="#AABAFD"/><path d="M42.3 17.26c1.43-.76 2.78-.77 3.7-.04l-1.33 1.96c-.61-.45-1.45-.44-2.36.03l-.01-1.95z" fill="#6BB5FB"/><path d="M46.25 17.44c.62.63.95 1.62.96 2.85 0 .63-.09 1.3-.26 2l-1.59.23c.1-.44.16-.86.15-1.26 0-.79-.2-1.43-.6-1.86l1.34-1.96z" fill="#4466FB"/><path d="M41.9 17.5v1.94a7.67 7.67 0 00-2.89 3.98l-1.59.24a11.42 11.42 0 014.48-6.17z" fill="#798FFE"/><path d="M37.28 24.16l1.59-.23c-.1.44-.15.86-.15 1.26 0 2.07 1.41 2.96 3.21 2.04v1.95c-2.7 1.44-4.9.1-4.9-3.02 0-.63.08-1.3.25-2z" fill="#AABAFD"/><path d="M45.22 23.02l1.6-.23a11.43 11.43 0 01-4.49 6.16V27a7.69 7.69 0 002.9-3.98z" fill="#3955D1"/><path d="M14.5 57.44l.02 4.75-1.63.94-.02-4.74 1.64-.95z" fill="#6BB5FB"/><path d="M16.13 53.74l.03 7.5-1.64.95-.02-7.5 1.63-.95z" fill="#4466FB"/><path d="M20.28 57.37l.01 1.49-1.63.94-.02-1.48 1.64-.95z" fill="#6BB5FB"/><path d="M21.9 54.76l.03 3.15-1.64.95-.02-3.16 1.64-.94zM27.66 43.73l.04 10.85-1.64.94-.04-10.85 1.64-.94z" fill="#4466FB"/><path d="M26.03 48.52l.03 7-1.63.95-.04-7 1.64-.95zM31.81 49.3l.02 2.9-1.63.94-.03-2.9 1.64-.94z" fill="#6BB5FB"/><path d="M33.44 46.67l.03 4.58-1.64.94-.03-4.58 1.64-.94z" fill="#4466FB"/><path d="M35.57 50.04v.14L10.15 64.86v-.84l-.46.27v-.15l.46-.26v-.83l-.46.28v-.17l.46-.26v-.82l-.46.26v-.14l.46-.26v-.84l-.46.26v-.15l.46-.27-.01-.82-.46.27v-.16l.46-.27v-.82l-.46.28v-.17l.46-.26v-.82l-.46.25v-.13l.46-.28v-.81l-.46.25v-.15l.46-.27v-.82l-.46.26v-.16l.46-.25-.01-.84-.46.27v-.16l.46-.25v-.84l-.46.27v-.15l.46-.26v-.82l-.46.26v-.16l.46-.28v-.81l-.46.27v-.15l.6-.35.03 12.57 25.27-14.59z" fill="#1B2A4F"/><path d="M49.83 37.5v1.23l-10.5 6.07v-1.23l10.5-6.06zM44.07 43.5v1.22l-4.73 2.74v-1.22l4.73-2.73zM46.94 36.51v1.23l-7.62 4.4V40.9l7.62-4.4zM49.81 32.19v1.23l-10.5 6.06v-1.23l10.5-6.06z" fill="#9AADFD"/></svg>