<svg width="92" height="70" fill="none" xmlns="http://www.w3.org/2000/svg"><path d="M91.5 39.26v6.83c0 .33-.23.66-.66.91L52.92 69.03c-.86.5-2.29.5-3.18 0l-28-16.17c-.44-.25-.66-.58-.66-.92l.02-6.83c0 .33.22.67.66.93l16.49 9.52v-3.81c0-.24.16-.48.47-.64l2.47-1.44a2.45 2.45 0 012.24 0c.3.18.46.41.46.65l-.01 4.57c0 .24-.16.46-.47.64l-2.47 1.44c-.04.03-.09.05-.13.06l8.94 5.17c.9.5 2.32.5 3.2 0l37.9-22.03c.43-.25.65-.58.65-.9z" fill="#1B2A4F"/><path d="M90.85 40.17L52.95 62.2c-.88.5-2.3.5-3.2 0l-28-16.16c-.87-.52-.87-1.34 0-1.85l37.9-22.02c.88-.52 2.3-.52 3.19 0l27.99 16.16c.89.5.9 1.34.02 1.84z" fill="#2E4277"/><path d="M90.85 39.38l-37.9 22.03c-.88.5-2.3.5-3.2 0l-28-16.16a1.42 1.42 0 01-.54-.53c-.24.45-.07.96.55 1.32l28 16.16c.88.5 2.3.5 3.19 0l37.9-22.03c.61-.35.78-.86.54-1.3-.1.19-.28.37-.54.51z" fill="#384E85"/><path d="M42.81 49.62c.62.36.63.94 0 1.3l-2.47 1.43c-.6.36-1.61.36-2.23 0-.61-.35-.62-.93 0-1.29l2.47-1.44a2.45 2.45 0 012.23 0z" fill="#6BB5FB"/><path d="M33.98 30.4l-2.8-1.62-2.24 1.3 2.8 1.62 2.24-1.3z" fill="#D9DDF6"/><path d="M31.66 29.7l-.5-.29-.39.23.5.28.39-.22zM33.03 30.5l-.5-.3-.38.24.48.28.4-.23z" fill="#384E85"/><path d="M31.73 31.7v1.23l2.26-1.3-.01-1.23-2.25 1.3z" fill="#8CA1FD"/><path d="M29.07 33.45l-3.68-2.14.01 1.63 3.68 2.14v-1.63z" fill="#1B2A4F"/><path d="M32.5 31.48l-3.69-2.14-3.42 1.97 3.68 2.14 3.42-1.97z" fill="#384E85"/><path d="M29.07 33.45l.01 1.63 3.42-1.98v-1.62l-3.43 1.97zM38.03 57.93l-4.25-2.47v1.87l4.26 2.48v-1.88z" fill="#2E4277"/><path d="M37.35 57.97l-2.74-1.6-2 1.16 2.75 1.59 1.99-1.15z" fill="#D9DDF6"/><path d="M35.36 59.12v1.2l2-1.14-.01-1.21-2 1.15z" fill="#8CA1FD"/><path d="M33.5 60.42l-3.62-2.1v1.6l3.62 2.1v-1.6z" fill="#2E4277"/><path d="M36.86 58.48l-3.62-2.1-3.36 1.94 3.61 2.1 3.37-1.94z" fill="#384E85"/><path d="M33.5 60.42v1.6l3.37-1.95-.01-1.6-3.37 1.95z" fill="#1B2A4F"/><path d="M28.13 62.96l4.25-2.47v.77l-4.25 2.47c-1.2.7-3.14.7-4.34 0L.91 50.52C.3 50.17 0 49.7 0 49.25v-.77c0 .45.3.92.9 1.26l22.9 13.22a4.8 4.8 0 004.33 0zM28.04 33.4v.77L2.56 48.97c-.14.08-.21.18-.21.29v-.77c0-.1.07-.21.2-.3L28.05 33.4z" fill="#8CA1FD"/><path d="M28.03 33.4L2.57 48.2c-.28.16-.27.42 0 .58l22.89 13.21c.27.16.72.16 1 0l4.25-2.47 1.67.97-4.25 2.47c-1.19.69-3.14.69-4.34 0L.91 49.74c-1.2-.69-1.2-1.82-.02-2.5l25.47-14.8 1.67.96z" fill="#B7C5FD"/><path d="M40.99 16.79c-.03 9.83 6.88 21.8 15.44 26.74a14.97 14.97 0 006.04 2.08c1.65.16 3.16-.1 4.46-.73l5.63-3.27c-1.3.64-2.82.9-4.48.74a14.75 14.75 0 01-6.02-2.08C53.5 35.33 46.57 23.35 46.6 13.53c0-2.46.44-4.55 1.24-6.23a8.2 8.2 0 013.27-3.7L45.5 6.86a8.25 8.25 0 00-3.28 3.7 14.48 14.48 0 00-1.24 6.23z" fill="#3955D1"/><path d="M58.67 6.85c-8.55-4.94-15.51-.98-15.54 8.85-.03 9.83 6.89 21.8 15.44 26.74 8.56 4.94 15.51.98 15.54-8.85.03-9.83-6.88-21.8-15.44-26.74z" fill="#4466FB"/><path d="M43.7 3.75C46.98 1.85 51.53 2.1 56.54 5c9.97 5.76 18.01 19.7 17.97 31.14-.01 5.69-2.02 9.7-5.25 11.56l4.52-2.52c3.24-1.89 5.25-5.89 5.26-11.58.04-11.44-8.01-25.38-17.97-31.14-5-2.9-9.55-3.16-12.84-1.25L43.7 3.75z" fill="#D9DDF6"/><path d="M57.74 25.97l.02.7-1.1-.62.03-.69c.15.2.33.36.52.47.2.1.37.15.53.14z" fill="#D9DDF6"/><path d="M57.22 24c.3.19.54.61.54.96s-.24.5-.55.31a1.2 1.2 0 01-.54-.94c0-.35.24-.5.55-.32z" fill="#6BB5FB"/><path d="M57.67 23.84a1.83 1.83 0 00-.45-.38.93.93 0 00-.45-.14l.2-5.25.53.3.17 5.47z" fill="#D9DDF6"/><path d="M56.37 24.83c.07.16.16.31.26.45l-1.24.73-.28-.49 1.26-.7z" fill="#384E85"/><path d="M56.27 23.65a1 1 0 00-.08.4c0 .16.03.33.07.5l-.67-.39v-.91l.68.4z" fill="#D9DDF6"/><path d="M58.19 24.8c.03.15.05.3.05.44s-.02.26-.06.37c-.08.21-.24.34-.44.36a.9.9 0 01-.53-.14 1.88 1.88 0 01-.58-.55 2.48 2.48 0 01-.37-.74 1.77 1.77 0 01-.07-.49 1 1 0 01.08-.4c.1-.22.27-.34.5-.33.14 0 .29.04.45.14a1.83 1.83 0 01.6.57 2.5 2.5 0 01.37.77zm-.98.47c.31.18.55.04.55-.31s-.23-.77-.54-.95c-.3-.18-.55-.03-.55.32s.24.77.54.94z" fill="#4466FB"/><path d="M58.19 24.8l8.3 4.98v.44l-8.3-4.61c.03-.1.05-.23.05-.37 0-.14-.02-.29-.05-.43z" fill="#D9DDF6"/><path d="M63.8 20.74l.14.23-5.89 3.47a2.5 2.5 0 00-.23-.4l5.99-3.3z" fill="#384E85"/><path d="M58.87 9.43l-.01 2.53-.41-.24V9.19l.42.24zM58.79 37.58v2.52l-.42-.24v-2.52l.42.24zM52.16 7.5l1.1 2.82-.36.03-1.1-2.82.36-.03zM64.34 38.94l1.1 2.82-.37.03-1.09-2.81.36-.04zM47.18 10.16l1.9 2.36-.2.3-1.9-2.37.2-.3zM68.36 36.48l1.9 2.36-.2.29-1.9-2.36.2-.29zM47.47 17.98v.47l-2.2-1.27v-.47l2.2 1.27zM71.97 32.12v.47l-2.2-1.27v-.47l2.2 1.27zM48.84 25.21l.2.54-1.9.15-.2-.53 1.9-.16zM70.1 23.39l.2.52-1.9.17-.21-.53 1.9-.16zM52.83 32.3l.36.45-1.1 1.54-.36-.44 1.1-1.55zM65.15 15l.36.44-1.1 1.56-.36-.45 1.1-1.55z" fill="#D9DDF6"/><path d="M74.51 36.15c-.03 11.45-8.13 16.06-18.09 10.3-9.96-5.74-18.01-19.68-17.98-31.13.03-11.44 8.14-16.06 18.1-10.31 9.96 5.75 18 19.7 17.97 31.14zm-18.08 7.38c8.55 4.94 15.51.98 15.54-8.85.03-9.83-6.88-21.8-15.44-26.74C47.98 3.01 41.01 6.96 41 16.8c-.03 9.83 6.89 21.8 15.44 26.74z" fill="#6BB5FB"/></svg>