<svg width="75" height="78" fill="none" xmlns="http://www.w3.org/2000/svg"><path d="M1.66 58.97l27.98 16.26c.6.35 1.55.35 2.15 0L74.3 50.69c.59-.34.59-.89 0-1.24L46.32 33.18a2.36 2.36 0 00-2.13 0L1.67 57.73c-.6.34-.6.9-.01 1.24z" fill="#B7C5FD"/><path d="M35.33 60.05c-.34.2-.33.51 0 .71l6.96 4.04c.33.2.88.2 1.22 0l13.7-7.91c.34-.2.34-.51 0-.7l-6.95-4.05c-.34-.2-.88-.2-1.22 0l-13.7 7.91z" fill="#9AADFD"/><path d="M1.22 58.35v2.25c0 .21.15.44.44.61l27.99 16.26c.6.34 1.55.34 2.14 0l42.52-24.54c.3-.17.45-.4.45-.63v-2.24c0 .23-.16.45-.45.63L31.79 75.23c-.6.34-1.55.34-2.15 0L1.66 58.96c-.3-.17-.44-.39-.44-.62zM2.2 25a2.36 2.36 0 00-1.07 1.85l.07 29.91c0 .68.49.96 1.08.61l41.9-24.19a2.36 2.36 0 001.08-1.85L45.18 1.4c0-.68-.48-.95-1.08-.61L2.2 25z" fill="#9AADFD"/><path d="M23.2 14.16c-.52.3-.93 1-.93 1.6 0 .57.41.82.93.52.5-.3.91-1 .91-1.6 0-.58-.41-.82-.92-.52z" fill="#4466FB"/><path d="M0 26.2l.08 29.9c0 .34.12.58.31.7l1.12.65c-.19-.11-.3-.35-.3-.69l-.09-29.91c0-.68.48-1.51 1.08-1.86L44.1.8c.3-.17.57-.19.77-.08L43.74.07c-.19-.11-.46-.1-.76.08l-41.9 24.2A2.36 2.36 0 000 26.18z" fill="#B7C5FD"/><path d="M2.64 29.4l.07 25.98L43.74 31.7l-.07-25.98L2.64 29.4z" fill="#fff"/><path d="M7.82 39.07v1.55L27.45 29.3v-1.55L7.81 39.07zM7.84 45.88v1.55L27.47 36.1v-1.55L7.83 45.88zM7.83 42.49v1.52L27.46 32.7v-1.52L7.82 42.49z" fill="#6BB5FB"/><path d="M7.8 29.38l.01 6.48 32.27-18.63-.02-6.49L7.8 29.38z" fill="#4466FB"/><path d="M29.68 26.45l.02 8.36 10.42-6.01-.02-8.36-10.42 6.01z" fill="#798FFE"/><path d="M16.8 39.84l-4.46 3.04 1.1.63-1.6 2.75 1.9 1.07 1.58-2.76 1.1.63.39-5.36zM29.28 50.61l2.4 1.4 2.73-1.59-2.4-1.39-2.73 1.58zM32.3 52.37l2.4 1.4 2.74-1.59-2.4-1.4-2.74 1.59zM41.6 36.48l2.41 1.4 2.74-1.58-2.4-1.4-2.74 1.58zM37.93 38.6l2.4 1.4 2.74-1.58-2.4-1.4-2.74 1.59zM43.27 39.03l2.4 1.4 4.1-2.37-2.4-1.4-4.1 2.37zM34.26 40.73l2.4 1.4 2.74-1.58-2.4-1.4-2.74 1.58zM39.6 41.15l2.4 1.4 2.73-1.58-2.4-1.4-2.74 1.58zM50.68 41.76l2.4 1.4 2.74-1.59-2.4-1.4-2.74 1.59zM43.98 42.12l2.4 1.4 6.41-3.7-2.4-1.4-6.4 3.7zM30.58 42.85l2.4 1.4 2.74-1.58-2.4-1.4-2.74 1.58zM35.92 43.27l2.4 1.4 2.74-1.58-2.4-1.4-2.74 1.58zM47 43.88l2.4 1.4 2.74-1.59-2.4-1.39-2.73 1.58zM40.3 44.24l2.4 1.4 2.74-1.58-2.4-1.4-2.73 1.58zM26.9 44.97l2.41 1.4 2.74-1.58-2.4-1.4-2.74 1.58zM32.24 45.4l2.4 1.4 2.74-1.59-2.4-1.4-2.74 1.59zM50.03 45.64l2.4 1.4 6.41-3.71-2.4-1.4-6.41 3.7zM43.33 46l2.4 1.4 2.73-1.58-2.4-1.4L43.34 46zM36.63 46.37l2.4 1.39 2.73-1.58-2.4-1.4-2.73 1.59zM23.23 47.1l2.4 1.4 2.74-1.59-2.4-1.4-2.74 1.58zM28.57 47.52l2.4 1.4 2.73-1.58-2.4-1.4-2.73 1.58zM39.65 48.12l2.4 1.4 2.74-1.58-2.4-1.4-2.74 1.58zM32.95 48.49l2.4 1.4 2.74-1.59-2.4-1.4-2.74 1.59zM35.98 50.25l2.4 1.39 2.73-1.58-2.4-1.4-2.73 1.59zM35.17 54.22l2.4 1.39 13.92-8.04-2.4-1.4-13.92 8.05zM24.3 60.5l2.4 1.39 2.74-1.58-2.4-1.4-2.74 1.58zM27.98 58.37l2.4 1.4 2.73-1.59-2.4-1.39-2.73 1.58zM31.65 56.25l2.4 1.4 2.74-1.59-2.4-1.4-2.74 1.59zM28.63 54.49l2.4 1.4 2.73-1.59-2.4-1.39-2.73 1.58zM25.6 52.73l2.4 1.4 2.74-1.58-2.4-1.4-2.74 1.58zM21.2 51.77l2.41 1.4 2.74-1.59-2.4-1.4-2.74 1.59zM19.55 49.22l2.41 1.4 2.74-1.59-2.4-1.4-2.75 1.59zM8.53 55.58l2.4 1.4 2.73-1.58-2.4-1.4-2.73 1.58zM7.87 59.47l2.4 1.4 5.05-2.92-2.4-1.4-5.05 2.92zM21.28 58.73l2.4 1.4 2.73-1.58-2.4-1.4-2.73 1.58zM10.9 61.22l2.4 1.4 6.4-3.7-2.4-1.4-6.4 3.7zM18.25 56.98l2.4 1.39 2.74-1.58-2.4-1.4-2.74 1.59zM13.86 56.01l2.4 1.4L19 55.83l-2.4-1.4-2.74 1.58zM12.2 53.46l2.4 1.4 2.75-1.58-2.41-1.4-2.74 1.58zM21.93 54.85l2.4 1.4 2.73-1.58-2.4-1.4-2.73 1.58zM17.53 53.89l2.4 1.4 2.74-1.58-2.4-1.4-2.74 1.58zM15.88 51.34l2.4 1.4 2.74-1.58-2.4-1.4-2.74 1.58zM4.84 57.7l2.41 1.4 2.74-1.57-2.4-1.4-2.75 1.58zM24.88 49.64l2.4 1.4 2.74-1.58-2.4-1.4-2.74 1.58zM20.63 62.61l2.4 1.4 2.72-1.58-2.4-1.4-2.72 1.58zM13.92 62.98l5.42 3.15 2.74-1.58-5.42-3.15-2.74 1.58z" fill="#384E85"/></svg>