<svg width="351" height="721" fill="none" xmlns="http://www.w3.org/2000/svg"><path fill-rule="evenodd" clip-rule="evenodd" d="M49 718c-29 0-49-22-49-51 0-24 13-36 26-42l2-1 12 24-3 1c-6 3-11 10-11 18 0 13 10 22 23 22 14 0 24-9 24-22 0-8-5-15-11-18l-3-1 12-24 2 1c12 6 26 18 26 42 0 29-20 51-50 51zM5 667c0 26 18 46 44 46 27 0 45-20 45-46 0-20-10-31-21-37l-7 16c7 4 12 12 12 21 0 16-12 27-29 27-16 0-28-11-28-27 0-9 5-17 12-21l-7-16c-11 6-21 17-21 37zm-4-56v-28h96v28H1zm5-5h86v-18H6v18zm-5-38v-79h26v26h70v28H27v25H1zm5-5h16v-25h70v-18H22v-26H6v69zm-5-76v-33l32-18-32-18v-32l58 36h38v28H59L1 487zm5-9l51-33h35v-18H57L6 395v20l36 21-36 21v21zm151 28c-16 0-31-14-31-38 0-15 5-29 13-39l2-2 21 16-2 2c-6 7-9 17-9 25l1 6 3 1 2-1 2-5 1-7 1-1 2-9c2-7 4-14 9-19 4-5 11-9 20-9 10 0 18 4 24 11s9 17 9 30c0 18-6 32-15 42l-2 1-21-15 2-2c6-6 11-16 11-28l-2-8-3-2-2 1-2 5-2 8-2 10c-2 6-4 13-9 19-4 5-11 8-21 8zm-26-38c0 22 13 33 26 33 8 0 14-2 17-7 4-4 7-10 8-16l2-10 2-8 3-7c1-2 3-3 6-3s6 2 7 5c2 2 3 6 3 10 0 12-5 22-11 29l14 9c7-8 12-20 12-36 0-12-3-21-8-27s-12-9-20-9-13 3-16 7c-4 5-7 11-8 17l-3 9v1l-2 8-2 6c-1 2-3 3-6 3-2 0-5-1-7-3l-2-9c0-9 3-18 9-26l-13-10c-7 9-11 21-11 34zm26-297c-16 0-31-15-31-39 0-15 5-28 13-38l2-2 21 16-2 2c-6 7-9 16-9 25l1 6 3 1 2-1 2-5 1-8h1l2-10c2-6 4-13 9-18 4-6 11-9 20-9 10 0 18 3 24 10s9 17 9 30c0 19-6 32-15 42l-2 1-21-15 2-2c6-6 11-16 11-27l-2-8-3-3-2 2-2 5-2 8-2 9c-2 7-4 14-9 19-4 5-11 9-21 9zm-26-39c0 22 13 34 26 34 8 0 14-3 17-7 4-5 7-11 8-17l2-9v-1l2-8 3-6c1-2 3-4 6-4s6 2 7 5c2 3 3 7 3 11 0 12-5 22-11 28l14 10c7-9 12-20 12-37 0-12-3-21-8-26-5-6-12-9-20-9s-13 3-16 7c-4 4-7 10-8 16l-3 10-2 8-2 7c-1 1-3 3-6 3-2 0-5-1-7-3l-2-9c0-9 3-19 9-26l-13-10c-7 9-11 20-11 33zm26-52c-16 0-31-14-31-38 0-16 5-29 13-39l2-2 21 16-2 2c-6 7-9 17-9 25l1 6 3 1 2-1 2-5 1-8h1l2-10c2-6 4-13 9-18 4-5 11-9 20-9 10 0 18 4 24 11s9 17 9 29c0 19-6 33-15 42l-2 2-21-15 2-3c6-6 11-15 11-27l-2-8c-1-2-2-2-3-2l-2 1-2 5-2 8-2 10c-2 6-4 13-9 18-4 6-11 9-21 9zm-26-38c0 22 13 33 26 33 8 0 14-3 17-7 4-4 7-10 8-17l2-9 2-8 3-7c1-2 3-3 6-3s6 2 7 4c2 3 3 7 3 11 0 12-5 22-11 29l14 9c7-8 12-20 12-37 0-11-3-20-8-26s-12-9-20-9-13 3-16 7c-4 5-7 10-8 17l-3 9v1l-2 7-2 7c-1 2-3 3-6 3-2 0-5-1-7-3l-2-9c0-9 3-18 9-26L142 8c-7 9-11 20-11 34zm-4 672v-54c0-10 4-17 8-22 5-5 12-7 18-7 10 0 17 4 21 10 4-7 12-12 22-12 7 0 14 2 19 7s8 13 8 22v56h-96zm5-5h86v-51c0-8-2-14-6-18s-10-6-16-6c-10 0-18 7-20 15h-5c-1-7-8-13-18-13-5 0-10 1-14 5s-7 10-7 19v49zm-5-96v-29h56c5 0 9-1 12-4 2-3 4-7 4-13 0-5-2-9-4-12-3-3-7-4-12-4h-56v-29h57c12 0 22 4 29 11 8 8 12 20 12 34 0 16-4 27-12 35-7 7-17 11-29 11h-57zm5-5h52c11 0 19-3 26-10 6-6 10-16 10-31 0-14-4-24-10-30s-15-10-26-10h-52v19h51c6 0 11 2 15 5 4 4 6 10 6 16 0 7-2 13-6 17-4 3-9 5-15 5h-51v19zm-5-196v-28h96v28h-96zm5-5h86v-18h-86v18zm-5-43v-28l45-33h-45v-28h96v26l-47 35h47v28h-96zm5-5h86v-18h-57l57-42v-19h-86v18h56l-56 41v20zm-5-104v-71h26v43h9v-42h25v42h11v-43h25v71h-96zm5-5h86v-61h-15v43h-21v-42h-15v42h-19v-43h-16v61zm15 440v-25c0-3 1-6 3-8s4-3 7-3 6 1 7 3c2 2 3 5 3 8v25h-20zm5-5h10v-20l-1-4-4-2-3 2-2 4v20zm30 5v-26c0-3 1-6 3-8s5-3 8-3 6 1 8 3 2 5 2 8v26h-21zm5-5h11v-21l-1-5-4-1-4 1-2 5v21zm114-57c-29 0-49-23-49-52 0-23 13-36 26-42l2-1 12 25-3 1c-6 2-11 9-11 17 0 13 10 23 23 23 14 0 24-10 24-23 0-8-5-15-11-17l-3-1 12-25 2 1c12 6 26 19 26 42 0 29-20 52-50 52zm-44-52c0 27 18 47 44 47 27 0 45-20 45-47 0-19-10-30-21-36l-7 15c7 4 12 12 12 21 0 16-12 28-29 28-16 0-28-12-28-28 0-9 5-17 12-21l-7-15c-11 6-21 17-21 36zm44-160c-29 0-49-22-49-51s20-51 49-51c30 0 50 22 50 51s-20 51-50 51zm-44-51c0 27 18 46 44 46 27 0 45-19 45-46 0-26-18-46-45-46-26 0-44 20-44 46zm44-61c-29 0-49-22-49-51s20-51 49-51c30 0 50 22 50 51s-20 51-50 51zm-44-51c0 26 18 46 44 46 27 0 45-20 45-46 0-27-18-46-45-46-26 0-44 19-44 46zm26 464c-16 0-31-14-31-38 0-16 5-29 13-39l2-2 21 16-2 2c-6 7-9 17-9 25l1 6 3 1 2-1 2-5 1-8h1l2-10c2-6 4-13 9-18 4-5 11-9 20-9 10 0 18 4 24 11s9 17 9 29c0 19-6 33-15 42l-2 2-21-16 2-2c6-6 11-15 11-27l-2-8c-1-2-2-2-3-2l-2 1-2 5-2 8-2 10c-2 6-4 13-9 18-4 6-11 9-21 9zm-26-38c0 22 13 33 26 33 8 0 14-3 17-7 4-4 7-10 8-17l2-9 2-8 3-7c1-2 3-3 6-3s6 2 7 4c2 3 3 7 3 11 0 12-5 22-11 29l14 9c7-8 12-20 12-37 0-11-3-20-8-26s-12-9-20-9-13 3-16 7c-4 5-7 10-8 17l-3 9v1l-2 7-2 7c-1 2-3 3-6 3-2 0-5-1-7-3l-2-9c0-9 3-18 9-26l-13-10c-7 9-11 20-11 34zm-4-158v-29h34v-33h-34v-28h96v28h-36v33h36v29h-96zm5-5h86v-19h-36v-43h36v-18h-86v18h34v43h-34v19zm-5-329v-28h71v-37h25v65h-96zm5-5h86v-55h-15v37h-71v18zm26 199c5 4 11 6 17 6 7 0 13-2 17-6 5-3 7-9 7-16 0-13-10-22-24-22-6 0-12 2-17 6-4 4-6 9-6 16s2 13 6 16zm-3 4c-5-5-8-12-8-20s3-15 8-20c5-4 12-7 20-7 16 0 29 11 29 27 0 8-3 15-8 20-6 5-13 7-21 7s-15-2-20-7zm3-116c5 4 11 6 17 6 7 0 13-2 17-6 5-4 7-9 7-16 0-13-10-22-24-22-6 0-12 2-17 6-4 4-6 9-6 16s2 12 6 16zm-3 4c-5-5-8-12-8-20s3-15 8-20 12-7 20-7c16 0 29 10 29 27 0 8-3 15-8 20-6 5-13 7-21 7s-15-2-20-7z" fill="#EEE"/></svg>