<svg width="255" height="59" fill="none" xmlns="http://www.w3.org/2000/svg"><path fill-rule="evenodd" clip-rule="evenodd" d="M200.62 19.62h-1.03v5.46a26.71 26.71 0 00.09 2.49h-.06l-5.2-7.95h-1.24v9.5h1.02v-5.4c0-.78-.04-1.64-.1-2.58h.05l5.2 7.97h1.27v-9.5zm6.71 9.53c.37-.08.74-.2 1.09-.36v-.96c-.72.32-1.5.48-2.29.49a2.2 2.2 0 01-1.7-.66 2.82 2.82 0 01-.63-1.9h4.92v-.68a3.37 3.37 0 00-.78-2.33 2.7 2.7 0 00-2.13-.88 2.82 2.82 0 00-2.28 1.02c-.6.78-.9 1.75-.85 2.73-.06.98.26 1.94.9 2.68a3.29 3.29 0 002.51.96c.42 0 .84-.03 1.25-.11h-.01zm-.22-5.83c.33.45.5 1 .45 1.56h-3.74c.03-.57.24-1.11.6-1.55a1.77 1.77 0 011.39-.55 1.6 1.6 0 011.3.54zm10.58 5.8l1.97-7.12h-1.12a392.5 392.5 0 00-1.36 5.25c-.06.24-.1.48-.14.72H217c-.12-.64-.29-1.26-.5-1.88L215.22 22h-1.18l-1.3 4.1a17.05 17.05 0 00-.51 1.88h-.05c-.1-.63-.24-1.27-.41-1.89L210.7 22h-1.13l1.94 7.13h1.25l1.36-4.17c.13-.41.28-1 .45-1.76h.05c.23.9.38 1.49.47 1.75l1.3 4.18h1.29zm7.81-10.11h-1.08v10.12h1.08V19zm6.55 10.14c.37-.08.73-.2 1.08-.35v-.97c-.72.32-1.5.48-2.28.49a2.2 2.2 0 01-1.7-.66 2.82 2.82 0 01-.63-1.9h4.92v-.68a3.38 3.38 0 00-.78-2.33 2.71 2.71 0 00-2.13-.88 2.83 2.83 0 00-2.29 1.02c-.6.78-.9 1.75-.85 2.73-.06.98.27 1.94.92 2.68a3.29 3.29 0 002.5.96c.41 0 .82-.03 1.23-.11zm-.23-5.83c.33.45.5 1 .46 1.56h-3.74c.03-.57.24-1.11.6-1.55a1.77 1.77 0 011.38-.55 1.6 1.6 0 011.3.54zm6.29 5.8l2.71-7.12h-1.16c-.89 2.43-1.46 4-1.71 4.72-.18.47-.33.95-.45 1.43h-.06c-.17-.65-.37-1.3-.6-1.92L235.28 22h-1.16l2.72 7.13h1.26zm8.1.03c.38-.08.75-.2 1.1-.35v-.97c-.72.32-1.5.48-2.29.49a2.2 2.2 0 01-1.7-.66 2.82 2.82 0 01-.63-1.9h4.92v-.68a3.37 3.37 0 00-.78-2.33 2.7 2.7 0 00-2.13-.88 2.83 2.83 0 00-2.28 1.02c-.6.78-.9 1.75-.86 2.73-.06.98.27 1.94.92 2.68a3.3 3.3 0 002.5.96c.41 0 .83-.03 1.23-.11zm-.21-5.83c.33.45.49 1 .45 1.56h-3.74c.03-.57.24-1.11.6-1.55a1.77 1.77 0 011.38-.55 1.6 1.6 0 011.3.54zm4.53-4.31h-1.08v10.12h1.09V19zm3.6.61h-1.34l.33 6.89h.7l.32-6.89zm-1.24 9.5a.8.8 0 00.56.2.74.74 0 00.58-.23.93.93 0 00.21-.65.95.95 0 00-.2-.65.81.81 0 00-1.37.65.9.9 0 00.22.67zm-52.26 7.15h-1.04v5.45a26.71 26.71 0 00.09 2.49h-.05l-5.2-7.94h-1.25v9.5h1.02v-5.4c0-.78-.03-1.64-.1-2.58h.05l5.2 7.97h1.27v-9.5h.01zm6.7 9.52c.38-.08.74-.2 1.1-.34v-.98c-.73.32-1.5.49-2.3.49a2.2 2.2 0 01-1.69-.65 2.82 2.82 0 01-.63-1.9h4.92v-.69a3.37 3.37 0 00-.78-2.33 2.7 2.7 0 00-2.13-.88 2.82 2.82 0 00-2.29 1.02c-.6.78-.9 1.75-.85 2.73-.06.98.27 1.94.92 2.68a3.29 3.29 0 002.5.96c.41 0 .83-.03 1.24-.1zm-.22-5.83c.34.45.5 1 .46 1.57h-3.74c.02-.57.24-1.12.6-1.55a1.77 1.77 0 011.38-.56 1.6 1.6 0 011.3.54zm10.58 5.81l1.98-7.13h-1.13c-.83 3.18-1.28 4.93-1.35 5.25-.06.24-.1.48-.14.72h-.06c-.12-.63-.28-1.26-.49-1.88l-1.28-4.09h-1.18l-1.3 4.1a15.6 15.6 0 00-.51 1.89h-.05c-.1-.64-.24-1.27-.42-1.9l-1.05-4.09h-1.14l1.95 7.13h1.25l1.35-4.17c.13-.41.28-1 .46-1.76h.05c.23.91.38 1.5.47 1.75l1.3 4.18h1.29zm7.82-10.12h-1.08v10.12h1.08V35.65zm3.37 3h-1.08v7.12h1.08v-7.13zm-.99-1.4a.62.62 0 00.46.19.63.63 0 00.45-.18.7.7 0 00.18-.54.69.69 0 00-.19-.54.68.68 0 00-.9 0 .7.7 0 00-.18.54.73.73 0 00.18.54zm6.51 1.4h-1.83v-.47c-.03-.45.07-.9.3-1.3a1.04 1.04 0 01.9-.4c.36 0 .72.08 1.07.2l.28-.87a4.75 4.75 0 00-1.34-.23c-1.53 0-2.3.88-2.3 2.64v.38l-1.27.4v.48h1.28v6.3h1.08v-6.3h1.82v-.84h.01zm5.55 7.14c.37-.08.74-.2 1.09-.35v-.97c-.72.32-1.5.49-2.29.49a2.2 2.2 0 01-1.7-.65 2.82 2.82 0 01-.63-1.9h4.92v-.69a3.38 3.38 0 00-.78-2.33 2.71 2.71 0 00-2.13-.88 2.83 2.83 0 00-2.28 1.02c-.6.78-.9 1.75-.86 2.73-.05.98.27 1.94.92 2.68a3.29 3.29 0 002.5.96c.42 0 .83-.03 1.24-.1zm-.22-5.83c.33.45.49 1 .45 1.56h-3.74c.03-.57.24-1.11.6-1.54a1.77 1.77 0 011.38-.56 1.6 1.6 0 011.3.54zm4.76-3.7h-1.35l.34 6.9h.68l.33-6.9zm-1.25 9.49a.8.8 0 00.56.2.74.74 0 00.58-.23.93.93 0 00.21-.64.95.95 0 00-.2-.66.81.81 0 00-1.27.19.81.81 0 00-.1.47.88.88 0 00.22.67zm-78.07-34.1h.85V52.4h-.85V11.65zm-74.45-1.5a1.18 1.18 0 011.52.2 1.24 1.24 0 01-.3 1.59 1.22 1.22 0 01-1.44-.04 1.16 1.16 0 01.22-1.74zM80.43 13.1a6.07 6.07 0 014.92-2.46c1 0 2 .17 2.95.5l-.46 2.57h-1.08c.06-.63.02-1.26-.12-1.87-1.55-.72-3.35.22-4.23 1.54a5.88 5.88 0 00-.78 5.08c.47 1.38 2.15 1.96 3.49 1.59.55-.55.64-1.42.97-2.11h1.06l-.5 2.66c-1.47.55-3.09.65-4.63.28a3.71 3.71 0 01-2.62-2.6 6.35 6.35 0 011.03-5.18zm14.24.42c.39-.52.74-1.08 1.06-1.65h1.03l-.35 1.93c1.1-.05 2.22.16 3.3-.16a1.27 1.27 0 011.15.02c.33.4.55.88.62 1.4.26 1.25.41 2.52.65 3.77.8-1.79 1.47-3.63 2.29-5.4.57.1 1.13.26 1.67.44l-.02.46c-.5.21-.94.56-1.24 1.02-1.25 2.1-1.87 4.51-3.3 6.5-.67.92-1.45 1.93-2.61 2.25a1.36 1.36 0 01-1.77-1.05 1.04 1.04 0 01.87-1.1c.4.3.78.62 1.13.98a5.38 5.38 0 002.12-2.4l-.56-.02c-.42-1.95-.65-3.95-1.24-5.87-1.08-.01-2.15.1-3.23.05-.24 1.35-.52 2.7-.72 4.06-.06.44-.05 1.07.48 1.22.57.05 1.14-.02 1.68-.2v.63c-1.04.3-2.13.76-3.23.52a1.38 1.38 0 01-.86-1.61c.2-1.53.56-3.04.83-4.57h-1v-.56c.44-.19.85-.4 1.25-.66zm-6.16.55c1.09-.29 2.19-.5 3.3-.63-.3 1.63-.6 3.26-.92 4.9-.15.47-.14.98.03 1.45.45.38 1.09.07 1.61 0v.67c-.96.4-2 .57-3.03.48a1.16 1.16 0 01-.67-1.43c.26-1.57.61-3.12.9-4.69l-1.22-.18v-.57zM106 25.18a1.14 1.14 0 11.02 2.1 1.15 1.15 0 01-.02-2.1zm-26.88.69h4.54c1-.07 1.98.2 2.8.79a2.32 2.32 0 01.3 2.86c-.41.52-.98.9-1.62 1.06a3.1 3.1 0 011.7.57 2.66 2.66 0 01-.2 4.06c-.9.55-1.93.82-2.98.76h-4.54v-.77c.4-.1 1.13.07 1.17-.49.03-2.38 0-4.77.02-7.16a.89.89 0 00-.2-.78 7.7 7.7 0 00-.98-.14v-.76zm3.21.86v3.61c.76-.02 1.65.02 2.21-.59a2.05 2.05 0 00.1-2.4c-.55-.68-1.53-.62-2.3-.62zm0 4.5v3.85c.97 0 2.18.11 2.86-.75a2.2 2.2 0 00-.12-2.55c-.73-.67-1.81-.55-2.74-.55zm6.3-2.07c.89-.4 1.84-.65 2.82-.75.01 1.53-.02 3.05.01 4.58a1.82 1.82 0 00.6 1.6c.66.33 1.4.08 2.08-.03V29.8h-1l.02-.65a10.6 10.6 0 012.86-.75c.04 2.24-.03 4.47.04 6.7l.97.15-.01.7c-.97 0-1.94.02-2.9 0l.03-.75c-1 .55-2.15 1.18-3.31.77a2.26 2.26 0 01-1.26-2.08c-.06-1.36 0-2.72-.02-4.09h-.95l.01-.65zm9.62.5a2.76 2.76 0 011.86-1.13 7.04 7.04 0 013.15.25v2.07l-.96-.01-.16-1.23a2.05 2.05 0 00-1.82-.15.82.82 0 00-.36 1.04c.05.12.13.23.24.32.8.64 1.81.92 2.63 1.52 1.16.8.7 2.72-.44 3.32-1.4.73-3.05.41-4.51.1v-2.28h.97c.03.45.1.9.2 1.34a2.18 2.18 0 002.05.3.94.94 0 00.2-1.6c-.88-.6-1.98-.84-2.77-1.57a1.84 1.84 0 01-.28-2.27v-.01zm6.17-.46a9.04 9.04 0 012.95-.73c.02 2.22-.03 4.44.03 6.65l1.05.12v.72h-4.06v-.7c.34-.03.66-.1.98-.2.14-1.72.02-3.46.06-5.2h-.98l-.02-.65zm4.55 0c.94-.39 1.93-.64 2.94-.72v.86c1-.5 2.12-1.13 3.28-.8a2.1 2.1 0 011.33 2c.05 1.52-.02 3.04.03 4.55l.97.17v.7h-3.74l.03-.7c.27-.04.53-.11.79-.2.1-1.06.02-2.12.05-3.19 0-.64.01-1.43-.6-1.85-.64-.43-1.45-.1-2.14.02 0 1.69-.03 3.38.02 5.07l.85.14.05.7c-1.27.04-2.54.01-3.8.02v-.71l.96-.14c.05-1.76 0-3.5.02-5.26h-1.04v-.66zm9.94.72a3.88 3.88 0 014.83-1.07c1.16.65 1.36 2.1 1.37 3.3l-4.97.01c.09.92.31 2 1.24 2.44 1.22.6 2.61.09 3.71-.55v1.18c-1.16.68-2.5.97-3.83.82a3.4 3.4 0 01-2.55-1.64 4.42 4.42 0 01.2-4.5zm1.82-.06c-.3.43-.47.93-.51 1.44.97.02 1.94.02 2.9 0-.1-.65-.15-1.45-.76-1.84a1.25 1.25 0 00-1.62.4h-.01zm7.29-1.23a6.37 6.37 0 013.5.15v2.06h-.93c-.03-.41-.11-.82-.25-1.2-.6-.46-1.7-.54-2.1.2a.9.9 0 00.5 1.17c.86.61 1.95.88 2.7 1.64a2.16 2.16 0 01-.97 3.1c-1.36.6-2.89.32-4.3.02v-2.29h.95l.17 1.4a2.72 2.72 0 002.14.22.95.95 0 00.07-1.64c-.9-.57-2-.81-2.77-1.57a1.87 1.87 0 01-.32-2.03 2.39 2.39 0 011.6-1.23zm5.86.39c1.3-.84 2.95-.61 4.38-.25v2.08h-.96l-.15-1.24a2.2 2.2 0 00-1.74-.2.81.81 0 00-.32 1.3c.93.9 2.39 1.05 3.2 2.1a2.22 2.22 0 01-1.05 2.92c-1.38.63-2.94.34-4.36.04v-2.29l.95-.01c.04.48.13.95.26 1.42a2.38 2.38 0 001.98.24.94.94 0 00.2-1.64c-.92-.62-2.08-.85-2.87-1.66a1.91 1.91 0 01.48-2.81zM95.03 40.6c.95-.39 1.95-.63 2.97-.73v4.52c1.03-.53 2.2-1.18 3.39-.8a2.16 2.16 0 011.26 2.1c.07 1.48 0 2.97.04 4.44l.94.18V51H99.9v-.68l.85-.18v-3.8a1.45 1.45 0 00-.74-1.38 3.45 3.45 0 00-1.98.12c0 1.66-.07 3.33.02 5 .28.12.56.21.86.26V51h-3.78v-.67c.35-.12 1.08-.02.98-.58.02-2.84 0-5.68.01-8.53h-1.09v-.62zm26.31.1c.96-.39 1.96-.63 2.98-.73.02 3.3-.01 6.62 0 9.93 0 .54.7.39 1.05.48l.05.7h-4.07v-.67l1.1-.23c-.03-2.96 0-5.9-.02-8.87h-1.09v-.62zm-39.91.42c1.53-.67 3.28-.36 4.81.13v2.46l-1.15-.01a7.35 7.35 0 00-.34-1.65A2.34 2.34 0 0082.5 42a1.37 1.37 0 00-.28 2.19c1.14 1 2.88 1.15 3.82 2.42a2.75 2.75 0 01-.84 3.9c-1.7.99-3.81.77-5.62.19v-2.75h1.2c.16.64.02 1.43.42 1.98a2.8 2.8 0 002.8-.24 1.35 1.35 0 00.07-1.9c-.69-.83-1.83-1.03-2.7-1.63a3.28 3.28 0 01-1.54-2.07 2.77 2.77 0 011.6-2.96zm7.1 3.9a4 4 0 014.81-1.19 1.36 1.36 0 01.62 2.06c-.47.5-1.21.3-1.77.1v-1.7a1.9 1.9 0 00-1.53.58 3.86 3.86 0 00-.38 3.87 2 2 0 001.87 1.18 4.35 4.35 0 002.18-.7v1.12c-.84.49-1.78.77-2.75.8a3.56 3.56 0 01-3.15-1.46 4.29 4.29 0 01.1-4.67zm18.44-1.38a4.2 4.2 0 014.12.97 4.4 4.4 0 01.63 4.46 3.4 3.4 0 01-2.76 2 4.19 4.19 0 01-3.72-1.03 4.42 4.42 0 01-.8-3.9 3.33 3.33 0 012.53-2.5zm.55.86a2.58 2.58 0 00-1.04 2.04 4.8 4.8 0 00.61 3.19 1.33 1.33 0 001.93.25c.6-.69.93-1.58.9-2.5.05-.9-.2-1.8-.68-2.57a1.37 1.37 0 00-1.73-.41zm8.33-.88a4.26 4.26 0 013.8.77 3.82 3.82 0 011.18 3.07 3.6 3.6 0 01-1.14 2.77 4.59 4.59 0 01-3.92.78 3.3 3.3 0 01-2.53-2.46 4.86 4.86 0 01.4-3.41 3.43 3.43 0 012.2-1.53zm.38.92c-.96.7-1.02 2.03-.98 3.12a3.18 3.18 0 00.97 2.38 1.32 1.32 0 001.82-.3c.5-.78.74-1.7.66-2.63 0-.85-.28-1.67-.8-2.34a1.36 1.36 0 00-1.67-.23zM29.13 0h4.6c0 1.44-.16 2.9-.09 4.33a.54.54 0 00.54.53c.75.1 1.51.13 2.28.12a.91.91 0 00.4-.83l.36-3.87c1.56.18 3.12.41 4.66.73-.26 1.5-.55 3-.75 4.5.79.4 1.63.7 2.5.86.47.17.69-.37.76-.73.3-1.25.59-2.5.9-3.73 1.27.37 2.46.98 3.5 1.8a1.18 1.18 0 01.4 1.3c-.57 1.87-1.19 3.74-1.76 5.61-.23.59-.4 1.2-.49 1.82.2 1.19.61 2.33 1.25 3.36.48 1 1.2 1.85 2.1 2.49.2-.32.36-.65.5-.99.21-.33.54-.58.75-.92a1.42 1.42 0 00-.2-1.1 3.43 3.43 0 01-.3-2.6 3 3 0 011.22-1.35 3.2 3.2 0 01-1.2-2.86c.1-.69.47-1.3 1.02-1.73.22.98.8 1.85 1.62 2.42 1.18.67 2.5 1.22 3.4 2.28.73.89 1.23 1.94 1.46 3.08.48.4.87.9 1.16 1.45.53 1.27.07 2.67-.49 3.84a2.16 2.16 0 011 2.97 2.6 2.6 0 01-1.4 1c.56.88 1.76 1.18 2.09 2.23a3.97 3.97 0 01-.75 3.12 4.94 4.94 0 002.65-1.96c.13 1.44.1 3.12-.93 4.25a6.16 6.16 0 01-3.86 1.7 4.04 4.04 0 013.02 3.34c.43 2.95-.99 5.75-2.56 8.14-1.04 1.5-2.1 3.08-3.68 4.05-.62.47-1.74.1-2.03.96a5.68 5.68 0 01-.95 2.32 2.96 2.96 0 01-2.35 1.17 8.38 8.38 0 01-3.88-1.17l.14.9c1.1.1 1.95.88 2.96 1.25-.88.64-1.78 1.43-2.93 1.5-.03.36-.16.7-.38 1-.36.3-.81.48-1.29.51-.1-.34-.32-.62-.62-.81a5.96 5.96 0 01-1.81-.88 2.3 2.3 0 01-.66 1.78l-.44-.44A3.38 3.38 0 0136.48 58a2.54 2.54 0 01-1.31-1.48c1.15-.07 2.62-.05 3.3-1.18.97-1.73 1.3-3.78 2.5-5.4a3.2 3.2 0 012.3-1.4c.97 0 1.92.3 2.73.82a2.34 2.34 0 011.84-1.59 9.71 9.71 0 00-3-1.98c.77-1.03 1.57-2.2 2.88-2.58a2.1 2.1 0 012.45-.96 9.02 9.02 0 01-.29-1.95 3.94 3.94 0 01-1.43-.83 2.13 2.13 0 01-.25-2.51 1.47 1.47 0 011.85-.59c.39.22.71.54.94.93a14.3 14.3 0 01-.46-2.64c.02-.48-.47-.7-.76-1.01-.7-.58-1.15-1.42-1.94-1.9-.15 1.6-.15 3.23-.46 4.83a25.67 25.67 0 01-8.07 14.7 28.96 28.96 0 01-7.18 4.85 1.07 1.07 0 01-1.07.13 28.22 28.22 0 01-11.71-9.95 26.44 26.44 0 01-4.25-14.54c-.53.3-.98.71-1.32 1.21-.44.48-.91.92-1.4 1.34-.05 1-.21 1.99-.48 2.96.4-.6 1.05-1.23 1.84-1 1.22.27 1.54 1.89.96 2.85-.42.57-1.03.98-1.71 1.16a8.7 8.7 0 01-.28 1.96 2.04 2.04 0 012.43.94c1.31.4 2.12 1.56 2.92 2.6a10.12 10.12 0 00-3.02 1.98 2.35 2.35 0 011.85 1.6c1.15-.73 2.73-1.23 3.96-.43 1.32.83 1.89 2.38 2.44 3.76.44 1 .67 2.14 1.4 2.98.78.83 2 .75 3.03.84a2.53 2.53 0 01-1.31 1.47 3.43 3.43 0 01-4.12-1.23l-.41.42a2.4 2.4 0 01-.68-1.76c-.54.4-1.15.7-1.8.87-.3.19-.52.48-.6.82a1.6 1.6 0 01-1.68-1.52c-1.2-.05-2.06-.97-3.07-1.5 1.1-.25 1.94-1.16 3.1-1.25l.14-.9c-1.25.63-2.6 1.26-4.05 1.16a3.24 3.24 0 01-2.88-2.56c-.17-.47-.13-1.13-.63-1.4a5.55 5.55 0 01-1.87-.6 13.07 13.07 0 01-3.07-3.35c-1.42-2.07-2.74-4.35-3-6.9a4.9 4.9 0 011.17-4.09 4.65 4.65 0 011.8-1.05 6.1 6.1 0 01-3.93-1.9c-.86-1.16-.9-2.7-.76-4.07a4.64 4.64 0 002.63 1.94c-.59-.94-1.1-2.12-.68-3.23.38-.96 1.52-1.23 2-2.1a2.73 2.73 0 01-1.36-.97 2.2 2.2 0 01.98-3 5.2 5.2 0 01-.6-3.47c.2-.72.66-1.34 1.3-1.76a7.6 7.6 0 011.05-2.63 6.9 6.9 0 012.47-2.08 9.4 9.4 0 001.88-1.12c.5-.58.86-1.26 1.06-2 1.57 1.07 1.25 3.52-.16 4.58a2.47 2.47 0 011.35 2.23c.05.94-.6 1.72-.72 2.63.18.34.41.66.7.92.26.36.45.78.57 1.21 1.1-.6 1.72-1.75 2.31-2.8.53-1.07 1.18-2.21 1.05-3.44-.7-2.36-1.47-4.68-2.18-7.03a1.21 1.21 0 01.4-1.36A10.16 10.16 0 0117.6 1.9l.82 3.45a1.51 1.51 0 00.52 1.04 12.9 12.9 0 002.4-.63.69.69 0 00.33-.9c-.21-1.29-.45-2.56-.66-3.85 1.53-.33 3.08-.57 4.64-.74.15 1.36.26 2.73.42 4.1a.58.58 0 00.58.62c.75-.01 1.49-.07 2.22-.18a.78.78 0 00.4-.86c-.03-1.32-.09-2.64-.13-3.96zm.97.69c-.52-.02-.3.68-.34 1.02.07.25-.07.78.3.8.94.06 1.87.06 2.8 0 .45-.42.22-1.18.19-1.74A9.93 9.93 0 0030.1.69zm-6.07.45c-.74.2-1.66.07-2.27.59-.03.55.1 1.1.35 1.59a21 21 0 003.05-.48 2.8 2.8 0 00-.06-1.7 1.9 1.9 0 00-1.07 0zm13.77 0c-.17.54-.23 1.1-.17 1.67a17 17 0 003.17.5 3.8 3.8 0 00.3-1.62c-.43-.39-1.1-.32-1.65-.46a4.13 4.13 0 00-1.65-.1zM16.07 3.2c-.64.28-1.22.67-1.71 1.15a1.89 1.89 0 00.31 1.54c.84-.57 1.74-1.05 2.67-1.43.32-.45.02-1.03-.16-1.48a1.38 1.38 0 00-1.1.23h-.01zm13.8.02a4.6 4.6 0 00.06 1.63c.3.38.87.12 1.28.12l.02-1.84c-.43-.06-1.02-.3-1.35.09zm1.88-.14a6.05 6.05 0 00-.09 1.89c.42.1.84.09 1.26 0a5.2 5.2 0 00.1-1.74c-.26-.4-.87-.19-1.27-.15zm13.6 1.04l.2.39c.92.35 1.8.8 2.63 1.31.4-.45.7-1.35.07-1.74a6.23 6.23 0 00-2.4-1.2c-.28.36-.45.8-.5 1.24zm-21.3-.5c-.1.52-.07 1.06.1 1.56.19.57.92.14 1.35.12a6.77 6.77 0 00-.16-1.73 1.14 1.14 0 00-1.28.06zm13.58-.17c-.28.55-.36 1.19-.23 1.8.34.18.73.26 1.11.22.3-.52.43-1.1.37-1.7-.2-.44-.84-.38-1.25-.32zm-15.42.44c-.07.63.01 1.28.23 1.88.43-.04.85-.13 1.25-.27 0-.62-.07-1.24-.22-1.85-.43.01-.85.1-1.26.24zm17.22-.2c-.19.6-.3 1.21-.3 1.84.42.02 1.02.44 1.34.02.24-.54.28-1.14.12-1.71a2.85 2.85 0 00-1.15-.15zM16.71 5.52c-.26.5.07 1.1.29 1.57.36-.07.71-.2 1.06-.3 0-.6-.14-1.18-.44-1.69-.31.12-.61.25-.9.42zm28.11 1.04a1.23 1.23 0 001.1.5c.23-.43.35-.91.37-1.4-.3-.26-.64-.45-1-.56-.28.44-.44.94-.47 1.46zm-16.57-.95a.5.5 0 00-.26.6c-.01.43.05.87.2 1.28.62.08 1.25.1 1.87.02 1.45-.1 2.9.05 4.36.05.47-.01.41-.61.46-.95 0-.34.16-1-.37-1.04a37.72 37.72 0 00-6.26.04zm-2.45.18c-1.49.2-2.98.37-4.44.68a.62.62 0 00-.6.48c0 .5.11 1 .32 1.45.4.05.8.02 1.19-.1 1.7-.37 3.46-.45 5.17-.7a2.1 2.1 0 00.04-1.8c-.5-.29-1.14-.01-1.68 0zm9.52.25c-.01.5-.33 1.34.26 1.6 2.07.2 4.15.44 6.19.86.24-.54.36-1.12.35-1.71a1.54 1.54 0 00-.93-.4c-1.69-.3-3.39-.53-5.1-.7-.3-.03-.78-.08-.77.35zm-20.35.59c-.02.51.12 1.02.4 1.46.35-.2.67-.46.95-.75-.07-.5-.2-1-.4-1.47-.37.19-.69.45-.95.76zm31.59.72c.29.29.61.54.97.74.22-.4.36-.84.43-1.29-.08-.48-.62-.66-.95-.93-.24.47-.39.97-.45 1.48zm-30.06.78c-.36.15-.67.4-.88.74.05.47.18.94.4 1.37.67-.41 1.38-.76 2.11-1.04.79-.23 1.55-.52 2.29-.87a7.76 7.76 0 00-.43-1.5c-1.2.34-2.36.78-3.5 1.3zM42.87 6.9c-.24.47-.34 1-.29 1.52.34.19.7.33 1.09.42 1.12.33 2.2.8 3.2 1.4.2-.56.74-1.4.03-1.8a12.83 12.83 0 00-4.03-1.54zM24.83 8.4c-.4.35-.1.95-.07 1.4 0 .4.44.45.74.39 1.7-.19 3.4-.29 5.1-.3.22-.03.56 0 .6-.29.04-.52.05-1.03.02-1.55-1.08-.1-2.17-.1-3.25.01-1.05.04-2.1.15-3.14.35zm7.14-.4c-.42.05-.29.55-.34.86.04.32-.09.79.28.97.69.12 1.39.04 2.08.1 1.27.03 2.54.21 3.81.27.54-.3.46-1.16.4-1.72a6.35 6.35 0 00-1.92-.31c-1.43-.15-2.87-.21-4.3-.18h-.01zM9.65 9.75c-1.19.5-2.27 1.2-3.2 2.09a6.2 6.2 0 00-1.18 5.9 9.15 9.15 0 003.62 4.82 6.84 6.84 0 01-2.85-2.02 8.34 8.34 0 01-1.8-4.95c-1.17 1.5-.35 3.48.55 4.88-.57.1-1.36.15-1.58.81a1.52 1.52 0 00.72 1.76c.04-.56.17-1.27.83-1.37.88-.05 1.61.54 2.42.79 1.1.46 2.3.58 3.47.32a6.44 6.44 0 01-3.73-4.23 4.34 4.34 0 01.9-4 1.8 1.8 0 012.08-.46c.37.25.65.61.8 1.03a2.36 2.36 0 00.4-2.27c-.45-.89-1.66-.99-2.51-.7-1.18.42-1.84 1.54-2.46 2.55a3.88 3.88 0 012.2-3.19c.78-.43 1.77-.57 2.3-1.36a2.66 2.66 0 00.4-2.17 3.62 3.62 0 01-1.38 1.77zm42.18-1.79a2.7 2.7 0 00.45 2.24c.55.8 1.6.9 2.38 1.39a3.76 3.76 0 012.08 3.13c-.62-1.05-1.33-2.2-2.56-2.6-.86-.24-2.09-.11-2.46.83a2.5 2.5 0 00.46 2.2c.15-.45.44-.83.83-1.08a1.89 1.89 0 012.23.7 4.67 4.67 0 01.13 5.23 6.5 6.5 0 01-3.13 2.8c1.23.25 2.5.1 3.64-.4.75-.24 1.45-.82 2.28-.71.64.1.75.8.77 1.35a1.46 1.46 0 00.73-1.75c-.2-.68-1-.73-1.58-.8.91-1.42 1.74-3.43.56-4.93-.05.9-.21 1.8-.49 2.65a6.91 6.91 0 01-4.07 4.3c.75-.58 1.44-1.23 2.06-1.95a7.38 7.38 0 001.53-6.47 5.68 5.68 0 00-2.55-3.33c-.66-.43-1.42-.7-2.08-1.13a4.07 4.07 0 01-1.21-1.66zm-29.55.77c-1.58.21-3.1.69-4.52 1.4.12.51.3 1.02.51 1.5 1.93-.6 3.9-1.04 5.9-1.34.35-.5.09-1.2-.07-1.74a5.35 5.35 0 00-1.82.18zm16.28 1.4c.1.28.5.2.74.3 1.8.24 3.59.64 5.32 1.2.16-.54.82-1.45.07-1.76a24.29 24.29 0 00-5.84-1.43 3.56 3.56 0 00-.28 1.7zm-22.26.82c.02.51.16 1.01.43 1.45l.88-.54a5.87 5.87 0 00-.53-1.54c-.29.17-.55.38-.78.63zm29.4-.47c-.21.45-.35.92-.42 1.4l.87.51c.26-.42.4-.9.42-1.4a.79.79 0 00-.87-.5zm-20.02.55c-.5 0-1 .13-1.46.36 2.26.42 4.57.47 6.85.75-3.34.56-6.76.19-10.1-.18a1.97 1.97 0 00-1.52.43c.32.11.65.2.98.27 3.1.53 6.22.75 9.33 1.17-1.46.2-2.95.26-4.43.16-2.48-.07-4.95-.4-7.37-.97-.35-.16-.97.1-.59.5 1.04.44 2.13.72 3.25.86 3.3.47 6.64.7 9.98.7 3.82.07 7.64-.15 11.42-.66a10.8 10.8 0 003.73-1.04l-.43-.4c-1.08.13-2.12.49-3.2.6a35.6 35.6 0 01-8.98.28c3.41-.57 6.91-.6 10.28-1.43-.74-.75-1.84-.4-2.76-.32-2.93.4-5.9.42-8.85.05 2.04-.24 4.1-.4 6.14-.6.25-.05.5-.13.72-.24-.99-.25-2-.4-3.02-.43-3.32-.25-6.65-.2-9.97.14zm-9.17 3.69c-1.54 1.18-2.01 3.24-3.54 4.44a2.33 2.33 0 01-2.45.5.99.99 0 01-.3-1.58c.5-.13.74.42.97.76.03-.5.25-1.15-.18-1.56a1.66 1.66 0 00-1.97.17c-.98.73-.96 2.16-.42 3.16 1.03 1.81 3.45 2.42 5.36 1.85.5-.12 1.15-.77.64-1.24-.31-.41-.8-.02-1.2.04a3.4 3.4 0 01-3.21-.68c1.7.3 3.67.15 4.88-1.23v-2.45c.87-.02 1.75.05 2.63-.02a2.73 2.73 0 001.02-2.2c-.72-.2-1.57-.47-2.23.04zm27.7.35a2.26 2.26 0 001 1.8c.86.09 1.72.01 2.57.03v2.46c1.23 1.36 3.19 1.54 4.89 1.21-.5.41-1.1.69-1.74.81a4.69 4.69 0 01-2.4-.43c-.21.2-.38.43-.5.7a1.47 1.47 0 001.26.92 4.84 4.84 0 004.59-1.42 2.8 2.8 0 00.43-3.18 1.84 1.84 0 00-2.3-.76c-.58.35-.38 1.07-.3 1.6.24-.32.44-.9.96-.72.58.4.23 1.27-.3 1.56a2.2 2.2 0 01-2.25-.33c-1.35-.95-1.94-2.56-2.94-3.81a2.28 2.28 0 00-1.84-1.1c-.43.06-1.13.07-1.14.66zm-35.26-.3c-1.33.57-1.62 2.27-1.38 3.55a3.4 3.4 0 011.25-1.64c.43-.29 1.1-.46 1.16-1.08a.73.73 0 00-1.03-.83zm43.96.85c.08.62.75.8 1.19 1.08.55.41.97.97 1.22 1.6.21-1.28-.04-2.97-1.39-3.53a.73.73 0 00-1.02.85zm-33.23-.44c-.25.6-.55 1.17-.89 1.72l1.25.01c.32-.53.6-1.1.8-1.7a2.05 2.05 0 00-1.16-.03zm22.36.02c.18.58.44 1.13.78 1.63.42.08.85.11 1.27.08-.35-.55-.6-1.16-.96-1.7a1.47 1.47 0 00-1.1-.01zm-20.37.2c-.27.48-.46 1.01-.7 1.52.42-.02.86-.02 1.28-.02.23-.5.43-1 .62-1.52-.39-.03-.86-.28-1.19.01zm18.37-.08c.15.54.34 1.07.58 1.58h1.3a10.3 10.3 0 00-.82-1.58 2.62 2.62 0 00-1.06 0zm-16.34.2c-.23.44-.42.9-.57 1.38l1.34-.01c.14-.46.26-.93.36-1.4a3.16 3.16 0 00-1.13.03zm14.3 0l.41 1.38h1.34c-.2-.5-.4-1-.63-1.49-.37.04-.74.07-1.1.12H38zm-12.3.05l-.4 1.33h1.35l.25-1.26-1.2-.07zm2.02.1l-.24 1.23h1.36l.13-1.22h-1.24zm6.17 0l.13 1.23h1.36l-.23-1.22h-1.26zm2.06-.03l.3 1.26h1.3l-.37-1.32-1.22.06h-.01zm-6.3 1.26h1.38v-1.17H29.8l-.14 1.17zm2.18 0h1.38l-.12-1.18h-1.25v1.18h-.01zm-16.04.76c0 4.66-.02 9.32.02 13.98-.03 3.82.78 7.6 2.37 11.08a27.09 27.09 0 0013.23 12.84 27.53 27.53 0 0011-8.93c3-4.22 4.62-9.26 4.65-14.43.06-4.85 0-9.7.02-14.55H15.8zM4.74 22.52l-.14.6a2.32 2.32 0 011.5 2.46c.47-.18.98-.21 1.46-.1.54.26.99.69 1.28 1.21a5.78 5.78 0 002.37-1.22 7.82 7.82 0 01-1.72-1.76c-.85-.07-1.69-.25-2.5-.53-.74-.25-1.44-.7-2.25-.66zm51.57.5c-.93.37-1.91.6-2.91.69a8.58 8.58 0 01-1.72 1.76c.67.59 1.48 1 2.35 1.22.3-.54.76-.97 1.32-1.23.49-.1 1-.06 1.46.13-.07-.46 0-.93.18-1.35.33-.53.81-.95 1.38-1.22l-.41-.52c-.58.07-1.14.24-1.65.51zm-42 .1a10 10 0 01-3.75.85c.55.5 1.16.92 1.82 1.25a5.9 5.9 0 01-2.27 1.93 1.96 1.96 0 001.96-.45c.38-.28.62-.9 1.17-.84.54.27.18.88-.02 1.26A12.9 12.9 0 0111 29.8a10.93 10.93 0 01-7.6 2.27 7.1 7.1 0 004.18.32c.55-.04 1.28-.25 1.72.22.35.65-.35 1.2-.95 1.14-1.5-.05-3.12 0-4.43.83-.7.45-1.4 1.22-1.17 2.12a3.66 3.66 0 012.28-1.11c-.94.54-2.04 1.1-2.43 2.22a1.85 1.85 0 00.26 1.42c.55-.72.91-1.59 1.53-2.28.62-.78 1.57-1.19 2.29-1.86.33-.3.72-.53 1.14-.69-.41.72-.68 1.6-.1 2.29.62-.35 1.2-.74 1.74-1.17.14-.71.37-1.4.7-2.05.6-1.11 1.76-1.74 2.63-2.62a6.9 6.9 0 002.13-3.9 1.9 1.9 0 00-.5-1.93c-.48-.4-1.1-.18-1.66-.15.62-.38 1.28-.7 1.95-.99.41-.3.07-1.07-.41-.76zm33.55.2c.32 1.05 1.62.87 2.26 1.6a4.4 4.4 0 00-1.19-.12 1.35 1.35 0 00-1 1.19 6.26 6.26 0 001.98 4.68c.84.93 2 1.53 2.69 2.6.42.7.69 1.47.79 2.28.58.4 1.17.78 1.78 1.15.2-.34.33-.72.35-1.11-.1-.41-.26-.81-.46-1.19.43.16.82.4 1.15.7.68.65 1.58 1.04 2.2 1.78.66.7 1.02 1.6 1.63 2.35a1.87 1.87 0 00.2-1.53c-.43-1.06-1.5-1.6-2.46-2.13.9.1 1.72.5 2.35 1.13.21-.88-.48-1.63-1.15-2.1-1.3-.84-2.9-.91-4.4-.85-.58.07-1.35-.43-1.03-1.07.39-.57 1.2-.32 1.78-.3a7.1 7.1 0 004.16-.3c-2.98.13-6.2-.66-8.27-2.91a8.75 8.75 0 01-1.83-2.69.44.44 0 01.57-.6c.44.45.93.87 1.45 1.23.44.13.91.14 1.36.04a6 6 0 01-2.28-1.93 6.92 6.92 0 001.8-1.25 9.34 9.34 0 01-3.57-.8.76.76 0 00-.86.16zm9.6 1.58c-.16.78.5 1.36.77 2.04a1.73 1.73 0 01-.43 1.38c-.33-.9-.76-2.11-1.9-2.19a1.1 1.1 0 00-1.01.88c.5.03.97.23 1.34.56a1.87 1.87 0 01-.48 2.6c-.6.28-1.22.49-1.86.6 1.41.66 2.8-.31 3.8-1.25-.23.72-1.03 1.19-1.07 1.94 1.18.44 2.48.45 3.67.05 1.23-.37 1.79-1.65 2.07-2.8-.97.51-1.9 1.37-3.07 1.22-.27-.41.18-.77.37-1.1a2.39 2.39 0 00-.05-3.14 6.04 6.04 0 01-1.38-1.76c-.37.21-.64.56-.76.97zm-52.83-.97c-.33.66-.79 1.26-1.35 1.75a2.4 2.4 0 00-.07 3.14c.21.32.62.67.38 1.1-1.15.2-2.09-.7-3.06-1.19.24 1.07.75 2.23 1.82 2.7a6.37 6.37 0 003.62.18c.14-.08.27-.2.35-.33-.4-.55-.76-1.13-1.09-1.73.98.9 2.37 1.92 3.75 1.2a5.17 5.17 0 01-1.94-.63 1.86 1.86 0 01-.35-2.58c.38-.3.83-.48 1.3-.53a1.07 1.07 0 00-1.18-.85c-1 .17-1.36 1.27-1.7 2.09a1.26 1.26 0 01-.46-1.27c.22-.66.84-1.18.77-1.91a1.39 1.39 0 00-.79-1.13v-.01zm2.6 4.23a1 1 0 00.23 1.33c.65.45 1.42.7 2.22.71.9-.43 1.6-1.2 1.96-2.13a5.84 5.84 0 01-2.7-.6c-.47.41-1.07.66-1.7.69zm44-.1c.22.98 1.12 1.57 1.88 2.12.93-.05 2.2-.19 2.63-1.18.1-.3.19-.83-.25-.88a2.35 2.35 0 01-1.54-.66c-.84.41-1.77.62-2.71.6zM13.26 31.1c-.46.58-1.32 1.28-.84 2.1 1.23-1.2 2.86-2.58 2.59-4.5-.68.73-1.06 1.68-1.75 2.4zm34.57-2.32a4.2 4.2 0 001.39 3.16c.44.44.8 1.07 1.48 1.17-.05-1.25-1.18-1.96-1.79-2.94-.36-.46-.5-1.12-1.07-1.39zM9.93 35.24c-.28 1.63.7 3.1.76 4.7a3.45 3.45 0 01-1.27 3.17 3.47 3.47 0 01-4.4-.58c1.03.43 2.14.92 3.28.6a2.72 2.72 0 001.65-3.86c-.62-1.13-1.96-1.57-2.7-2.6a3.12 3.12 0 01-.32-1.4 2.74 2.74 0 00.16 3.46c.59.7 1.72.98 1.9 1.97a1.32 1.32 0 01-1.22 1.52 5.53 5.53 0 01-4.93-2.08 8.3 8.3 0 002.25 3.8c1.75 1.54 4.19 1.89 6.44 1.89 1.75 0 3.4-.79 5.14-.68-.4-.43-.85-.79-1.36-1.07-.81-.15-1.65 0-2.36.4a4 4 0 01.83-1.58 2.22 2.22 0 00-1.8.86c-.5.49-.95 1.32-1.76 1.18a.69.69 0 01-.15-1.18c.6-.54 1.44-.85 1.84-1.6.6-1.02.1-2.28.58-3.34a.78.78 0 01.95-.27l.18.73c.3-.27.53-.63.64-1.04a1.02 1.02 0 00-.83-1.24c-.79.07-.9 1.07-1.53 1.39a.61.61 0 01-.67-.56c-.11-.95.3-1.84.37-2.78.02-1 .14-1.99.36-2.96a4.85 4.85 0 00-2.02 3.15zM50.9 32.1c.23.97.36 1.97.37 2.98.07.94.49 1.85.36 2.8a.56.56 0 01-.74.48c-.51-.34-.64-1.06-1.22-1.3a.89.89 0 00-1.05 1 1.64 1.64 0 00.61 1.22c.1-.36.26-.94.76-.77.69.3.58 1.2.63 1.82a2.91 2.91 0 001 2.6c.53.45 1.48.7 1.45 1.54a.7.7 0 01-1.09.37c-.7-.44-1.06-1.24-1.77-1.67a2.58 2.58 0 00-1.1-.25c.37.46.65 1 .81 1.58a3.87 3.87 0 00-2.12-.47c-.62.24-1.17.63-1.6 1.13.85-.02 1.7.08 2.54.3 2.33.59 4.78.48 7.04-.32 2.2-.76 3.67-2.84 4.25-5a5.53 5.53 0 01-4.52 2.13 1.73 1.73 0 01-1.39-.58 1.32 1.32 0 01.2-1.78c.6-.53 1.4-.89 1.8-1.6a2.83 2.83 0 00-.14-2.99 3.05 3.05 0 01-.44 1.46c-.76.94-1.98 1.41-2.61 2.47a2.73 2.73 0 001.64 3.88c1.14.34 2.27-.18 3.31-.59a3.56 3.56 0 01-4.42.59 3.35 3.35 0 01-1.29-3c0-1.66 1.06-3.19.77-4.88a4.92 4.92 0 00-2.04-3.15zM3.59 39.02a1.5 1.5 0 00.07 1.57c.5-.23.5-.9.8-1.3.41-.89 1.53-1.62 1.1-2.72a5.91 5.91 0 00-1.98 2.45zm53.63-2.4c-.08.52.06 1.03.36 1.44.61.81 1.13 1.7 1.53 2.63.71-.76.23-1.8-.28-2.52-.44-.59-.83-1.36-1.61-1.54zM5.33 40.87a3.12 3.12 0 002.59.55.59.59 0 00.11-.98c-.64-.47-1.25-1-1.82-1.55-.42.6-.72 1.27-.88 1.98zm49.53-.45a.59.59 0 00.13 1 2.98 2.98 0 002.57-.6c-.19-.69-.5-1.34-.9-1.94-.55.57-1.15 1.08-1.8 1.54zm-49.8 4.42c1.05 1.44 2.26 2.99 4.04 3.52.07-.41-.12-1.26.54-1.2.9.2 1.68.83 2.63.85a2.99 2.99 0 002.4-.95 9.58 9.58 0 012.13-1.46c-1.58-.2-3.07.52-4.62.6-1.72.12-3.5.3-5.18-.24a6.39 6.39 0 01-1.94-1.12zm50.8 1.13c-1.66.52-3.43.34-5.13.23-1.56-.08-3.05-.78-4.62-.6.75.4 1.45.9 2.1 1.46a2.99 2.99 0 002.43.94c.94-.04 1.7-.67 2.6-.85.65-.01.47.8.53 1.22 1.8-.56 3-2.12 4.08-3.57-.6.5-1.27.9-2 1.17zm-5.18 2.5a2.07 2.07 0 01.34 1.89c-.27.87-1.33 1-2.1.92a1.25 1.25 0 01-1.22-1.35c.15-.58.83-.58 1.31-.67a1.4 1.4 0 00-1.05-.92c-.68-.08-1.09.64-1.13 1.22-.15.51.34.92.31 1.41a.63.63 0 01-.92-.2c-.47-.56-1.05-1-1.71-1.3a1.93 1.93 0 00-2.28.38 3.5 3.5 0 00-.7 2.15c.2-.51.56-.94 1.02-1.24.88-.39 1.84.02 2.7.25 1.2.34 2.2 1.27 3.49 1.28 1.09-.01 2.36-.24 2.98-1.25a2.6 2.6 0 00-.03-2.81l-1 .25zm-38.51 3.46a4.24 4.24 0 003.41 0c1.32-.67 2.74-1.35 4.25-1.32a1.86 1.86 0 011.48 1.5c.06-.8-.17-1.6-.65-2.23a1.81 1.81 0 00-1.94-.53c-.87.3-1.64.85-2.21 1.57-.27.35-1.06.18-.72-.3a1.57 1.57 0 00-.5-2.24c-.66-.24-1.16.35-1.45.87.47.1 1.19.1 1.31.68.21.8-.63 1.36-1.34 1.37-.73.03-1.7-.1-1.95-.92a2.08 2.08 0 01.34-1.91l-.96-.26a2.5 2.5 0 00.94 3.72h-.01zm.26-3a1.28 1.28 0 001 1.86 1.56 1.56 0 001.4-.72 1.7 1.7 0 00-1.43-.05 8.06 8.06 0 01-.1-1.33c-.3.04-.6.12-.87.24zm37.17-.24c0 .45-.05.89-.16 1.32-.4-.04-.86-.3-1.23-.01-.03.54.65.76 1.1.79a1.27 1.27 0 001.22-1.7c-.15-.37-.63-.28-.93-.4zm-28.02 1.94c.15.7.06 1.45-.26 2.1a1.32 1.32 0 01-1.9.44 1.86 1.86 0 01-.49-1.43c-.44.21-.8.58-1 1.04-.03.4.06.8.25 1.16-.94-.65-2.01-.14-2.91.3 1.3 1.06 3.13.73 4.62.28-.64.54-1.59.63-2.12 1.28.12.23.29.43.48.6.23-.37.57-.66.98-.83.6-.22 1.38-.33 1.65-1 .23-.4.23-1.16.84-1.19a.64.64 0 01.5.86c-.2.61-.32 1.24-.36 1.88.28-.17.56-.35.85-.51.08.56.36 1.07.79 1.45a3.33 3.33 0 003.17.14 4.66 4.66 0 01-2.1-.69 4.67 4.67 0 01-1.48-2.41 28.06 28.06 0 00-1.51-3.47zm17.67 4.76a3.52 3.52 0 01-3.03 1.8 3.27 3.27 0 003.19-.15c.4-.39.68-.9.76-1.46l.85.54a9.8 9.8 0 00-.4-2.04.58.58 0 01.92-.56c.37.57.39 1.45 1.14 1.7.72.27 1.53.44 1.94 1.16.16-.2.65-.48.35-.76-.6-.44-1.35-.6-1.92-1.1 1.46.45 3.26.76 4.55-.28-.9-.45-1.99-.97-2.91-.28.23-.4.3-.88.19-1.33a2.3 2.3 0 00-.94-.9 1.82 1.82 0 01-.48 1.42 1.28 1.28 0 01-1.88-.39 3.02 3.02 0 01-.27-2.12c-.86 1.51-1.35 3.17-2.06 4.75zm-19.6-3.19c-.02.33.38.44.57.66.19-.36.47-.82.14-1.19-.37-.32-.79.14-.7.52v.01zm22.89-.52c-.4.3-.11 1.32.41.97.56-.28.21-1.42-.41-.97zM16.78 18.75h29.3c.02 4.49 0 8.98 0 13.48a23.81 23.81 0 01-5.62 15.28 26.86 26.86 0 01-9.04 6.93 25.64 25.64 0 01-12.35-12.02 24.93 24.93 0 01-2.3-11.15l.01-12.52zm.38.42v12.3c0 3.58.8 7.11 2.32 10.35a25.31 25.31 0 0011.94 11.64 25.65 25.65 0 0012.14-12.08 23.71 23.71 0 002.15-10.28V19.17H17.16zm13.21 4.02c-.04-1.03.6-1.92 1.08-2.78.45.88 1.1 1.74 1.05 2.78a1.46 1.46 0 01-.7 1.02l-.01 1.9.4-.38a1.48 1.48 0 01.14-1.4c.7-.73 1.77-.9 2.7-1.18-.28.93-.45 2-1.18 2.7a1.41 1.41 0 01-1.42.14c-.97 1.25-.56 2.89-.65 4.35.03.62-.18 1.41.46 1.8a2.11 2.11 0 00.75-1.68 1.33 1.33 0 01-.92-1.26c.19-.93.56-1.8 1.09-2.58.53.78.9 1.66 1.08 2.6a1.37 1.37 0 01-.9 1.24v.53c.75-.7 1.67-1.4 1.7-2.52a1.37 1.37 0 01-.94-1.14c.01-1 .61-1.86 1.07-2.7.56.79.93 1.7 1.08 2.66a1.33 1.33 0 01-.86 1.15l-.02.56c.75-.7 1.62-1.45 1.64-2.56a1.48 1.48 0 01-.85-.85c-.2-1.1.55-2.05 1.03-2.98.47.88 1.12 1.78 1.05 2.82a1.42 1.42 0 01-.88 1.01v.57c.45-.45.91-.9 1.35-1.37a1.53 1.53 0 01.27-1.26c.71-.7 1.76-.88 2.68-1.16-.28.92-.44 1.96-1.14 2.67a1.52 1.52 0 01-1.3.26l-1.36 1.36h.58a1.34 1.34 0 011.04-.88c1.04-.05 1.93.58 2.8 1.06a6.4 6.4 0 01-2.69 1.08 1.36 1.36 0 01-1.15-.92 3.91 3.91 0 00-2.62 1.75c.78.12.86-.92 1.58-.94 1.06-.1 1.97.56 2.87 1.04-.9.48-1.8 1.13-2.87 1.06a1.4 1.4 0 01-1-.93c-1.12.07-1.88.95-2.56 1.74.8.12.9-1 1.68-.93.99.13 1.92.5 2.73 1.08-.87.44-1.73 1.06-2.74 1.07a1.39 1.39 0 01-1.12-.95c-.6.13-1.8.32-1.56 1.18 1.33.11 2.68.01 4 .05.73.06 1.44-.17 2-.64a1.41 1.41 0 01.08-1.35c.68-.8 1.8-.94 2.76-1.25-.28.92-.46 1.96-1.14 2.68a1.36 1.36 0 01-1.43.17l-.4.4 1.92-.02a1.41 1.41 0 011.13-.7c.95.15 1.86.52 2.65 1.07-.89.48-1.8 1.14-2.86 1.05a1.49 1.49 0 01-.91-.7H38.7l.4.4a1.35 1.35 0 011.44.19c.58.78.96 1.69 1.13 2.65A6.3 6.3 0 0139 35.9a1.37 1.37 0 01-.18-1.48c-.77-.72-1.83-.68-2.8-.66l-.3.46a1.9 1.9 0 00-2.16-.18 2.7 2.7 0 00-.86 1.94c-.2 1.9 0 3.81.59 5.63a5.06 5.06 0 001.64 2.68c.68.46 1.44.76 2.25.88a3.14 3.14 0 01-2.8-.36 2.86 2.86 0 00-1.45-.65c-.35.38-.09.93-.09 1.39-.63-.42-.91-1.16-1.45-1.67-.36.63-.83 1.2-1.39 1.68 0-.48.35-1.1-.16-1.44-.74.15-1.28.75-2 1-.68.29-1.46.31-2.17.07a5.5 5.5 0 002.4-1.01c.98-.8 1.36-2.06 1.7-3.21.5-1.8.6-3.7.3-5.55a1.93 1.93 0 00-1.11-1.57 2.17 2.17 0 00-2.07.55 1.37 1.37 0 01-.17 1.48c-.79.58-1.7.97-2.67 1.13.28-.92.46-1.94 1.14-2.66a1.39 1.39 0 011.43-.18l.42-.4c-1.03-.02-2.18-.13-3 .63a1.4 1.4 0 01-.17 1.48c-.78.58-1.7.97-2.66 1.13.27-.92.45-1.96 1.15-2.67a1.35 1.35 0 011.43-.15l.42-.42h-1.96c-.2.35-.52.6-.9.7-1.06.12-1.97-.57-2.88-1.03.8-.58 1.72-.95 2.7-1.09a1.5 1.5 0 011.09.71h1.89l-.38-.38a1.32 1.32 0 01-1.4-.16c-.7-.72-.9-1.76-1.16-2.69.92.29 1.96.47 2.68 1.16a1.4 1.4 0 01.15 1.44c.5.44 1.16.67 1.84.64 1.38-.05 2.78.1 4.16-.07.22-.83-.96-1.04-1.55-1.16a1.4 1.4 0 01-1.11.94c-1.02.03-1.89-.62-2.75-1.06.85-.49 1.74-1.08 2.76-1.08a1.39 1.39 0 011.07.87h.55c-.71-.73-1.43-1.62-2.55-1.69a1.46 1.46 0 01-.97.93c-1.06.11-1.98-.57-2.9-1.03.9-.5 1.84-1.18 2.92-1.06a1.4 1.4 0 01.93.87l.59.01c-.71-.77-1.48-1.61-2.6-1.69a1.32 1.32 0 01-1.21.92 6.67 6.67 0 01-2.63-1.07c.8-.55 1.7-.92 2.65-1.09a1.35 1.35 0 011.19.9H25c-.46-.46-.9-.91-1.38-1.36a1.48 1.48 0 01-1.35-.32 6.54 6.54 0 01-1.06-2.6c.93.16 1.81.53 2.6 1.07a1.43 1.43 0 01.33 1.34c.44.47.9.92 1.36 1.37l-.01-.57a1.35 1.35 0 01-.89-1.2 6.8 6.8 0 011.08-2.63c.55.79.92 1.68 1.09 2.62a1.37 1.37 0 01-.92 1.23c.05 1.12.93 1.87 1.69 2.58l-.02-.6a1.37 1.37 0 01-.88-.93c-.11-1.07.6-1.99 1.06-2.89.47.89 1.16 1.82 1.04 2.88a1.43 1.43 0 01-.92.97c.06 1.12.96 1.84 1.7 2.55l-.02-.55a1.39 1.39 0 01-.86-1.09c-.01-1 .6-1.89 1.07-2.75.45.87 1.1 1.74 1.08 2.76 0 .56-.54.82-.9 1.12a1.6 1.6 0 00.6 1.45.29.29 0 00.49-.13c.14-.54.19-1.1.14-1.67-.04-1.4.23-2.97-.67-4.18a1.37 1.37 0 01-1.52-.2 6.5 6.5 0 01-1.1-2.63c.95.3 2.04.45 2.73 1.2a1.4 1.4 0 01.12 1.4l.44.42V24.2a1.44 1.44 0 01-.76-1v-.02zm1.06-1.13c-.26.39-.42.83-.45 1.3.2.46.99.33.93-.18-.1-.4-.26-.77-.48-1.1v-.02zM29 24.32c.1.54.38 1.03.8 1.38l.6-.66a2.58 2.58 0 00-1.4-.72zm3.46.72c.16.23.37.42.6.55.58-.13.62-.83.81-1.29-.53.1-1.01.36-1.4.74h-.01zm-10.09-.66c.09.5.33.96.7 1.32a1.14 1.14 0 00.7-.63 3.59 3.59 0 00-1.39-.7zm3.03 1.35c.28.3.62-.08.86-.23-.17-.41-.36-.83-.57-1.23-.15.43-.75 1.04-.28 1.45l-.01.01zm11.3-.32a.51.51 0 00.93.21c0-.49-.16-.96-.45-1.36-.22.36-.38.74-.48 1.15zm2.61-.49c-.26.32.07.62.35.76.62-.08.65-.84.85-1.3-.43.1-.84.27-1.2.53v.01zm-11.62 1.35c-.29.4-.43.88-.4 1.37.29.36.7.1 1-.1a8.05 8.05 0 00-.6-1.26zm7.03 1.22a.49.49 0 00.92.04c-.06-.44-.2-.87-.43-1.25-.29.34-.46.77-.5 1.21zm-12.46.2c.4.2.82.4 1.24.56a.79.79 0 00.24-.9c-.48-.36-1.02.16-1.48.34zm16.76 0c.17.9 1.12.23 1.6 0-.47-.25-1.43-.88-1.6 0zm-9.79 1.7a.5.5 0 00.8.38c.4-.47-.15-1.04-.3-1.49-.21.35-.38.72-.5 1.11zm3.51.3a1.03 1.03 0 00.89.07 3.14 3.14 0 00-.44-1.47c-.23.43-.63.89-.45 1.4zm-8.47 0a3 3 0 001.23.5.5.5 0 00-.01-.96c-.43.07-.85.22-1.22.46zm13-.42a.51.51 0 00-.2.67c.05.08.1.14.18.2.49.13.92-.25 1.35-.44-.42-.2-.85-.57-1.33-.42zM22.37 31c.18.44.22 1.03.69 1.3a.76.76 0 00.64-.45c-.11-.61-.86-.65-1.32-.85zm16.85.85c.1.3.46.62.76.33.25-.35.43-.75.52-1.18-.43.21-1.25.22-1.28.85zm-12.93-.12c.46.25 1.5.88 1.6-.07-.3-.8-1.13-.17-1.6.07zm9.06.45c.44-.04.87-.2 1.23-.47-.34-.2-.7-.35-1.07-.47a.48.48 0 00-.16.94zm-4.33.97a.78.78 0 00.8.28 1.2 1.2 0 00-.14-.74.47.47 0 00-.66.46zm-10.88.27c.37.25.77.42 1.2.5a.55.55 0 00.19-.91c-.5-.02-.98.13-1.39.41zm21.2-.51c-.15.34-.3.97.27 1.02.4-.11.78-.27 1.14-.48a4.2 4.2 0 00-1.41-.54zm-11.19.75a8.6 8.6 0 01.77 4.6c-.01.4.1.79.34 1.1-.3.22-.52.54-.6.91.18.18.36.35.56.5-.42.18-.76.5-.94.92.23.2.5.36.77.49-.44.3-1.31.4-1.24 1.1 1.09-.09 2.19-.1 3.28-.04.06-.62-.8-.78-1.22-1.1.3-.08.55-.25.74-.5-.2-.38-.53-.7-.93-.88.18-.14.35-.29.52-.45.11-.42-.34-.66-.57-.93.23-.32.35-.7.34-1.1-.17-1.57.1-3.17.76-4.62-.49.26-.92.61-1.28 1.03a4.99 4.99 0 00-1.3-1.03zm-7.76 2.2c.45-.19 1.16-.2 1.29-.79-.13-.2-.27-.41-.42-.6a1.98 1.98 0 00-.87 1.4zm2.84 0c.47-.19 1.14-.23 1.31-.79a1.1 1.1 0 00-.45-.51c-.63.09-.67.84-.86 1.32v-.01zm13.96-.81c.15.58.85.62 1.32.82a2.1 2.1 0 00-.85-1.4c-.17.18-.32.38-.46.58zm-11.43-14.4c.74.24 1.62.35 2.14.98a.83.83 0 01-.96 1.25c-.83-.4-.9-1.46-1.18-2.23zm5.18 1.08c.45-.74 1.44-.83 2.19-1.08-.26.77-.36 1.77-1.13 2.21a.83.83 0 01-1.06-1.13zm-14.03 8.03c.75.26 1.7.35 2.17 1.06a.83.83 0 01-1.12 1.11c-.7-.48-.8-1.42-1.04-2.17h-.01zm22.89 1.03c.5-.67 1.41-.78 2.15-1.01-.25.76-.34 1.78-1.13 2.2a.83.83 0 01-1.02-1.2zm-5.45 3.4a1.16 1.16 0 011.52.38c.45.75.76 1.58.94 2.44A6.98 6.98 0 0136.25 36a1.12 1.12 0 01.1-1.8v-.02zm.14 1.17c.35.25.74.42 1.16.5-.09-.4-.25-.8-.49-1.14-.36-.43-1.1.29-.67.64zm-8.78-.59a.82.82 0 011.54.1c.17.84-.41 1.57-.77 2.27-.39-.72-1.02-1.5-.77-2.37zm5.96-.02a.83.83 0 011.53.13c.15.83-.43 1.56-.8 2.26-.37-.73-1.04-1.54-.73-2.4zm-3.2 12.6a3.2 3.2 0 012.33-.18c-.06.4.14 1-.43 1.1l-.17-.8a1.55 1.55 0 00-1.1.15c-1.07.7-.77 2.85.64 2.89.53.19.53-.47.68-.81h.4v1c-.76.28-1.6.25-2.34-.07a1.97 1.97 0 010-3.28z" fill="#fff"/></svg>